<?xml version="1.0" encoding="UTF-8"?>
<!DOCTYPE svg PUBLIC "-//W3C//DTD SVG 1.1//EN" "http://www.w3.org/Graphics/SVG/1.1/DTD/svg11.dtd">
<svg xmlns="http://www.w3.org/2000/svg" xmlns:xlink="http://www.w3.org/1999/xlink" version="1.1" width="141px" height="281px" viewBox="-0.5 -0.5 141 281" style="background-color: rgb(255, 255, 255);"><defs><clipPath id="mx-clip-0-50-30-30-0"><rect x="0" y="50" width="30" height="30"/></clipPath><clipPath id="mx-clip-36-50-104-30-0"><rect x="36" y="50" width="104" height="30"/></clipPath><clipPath id="mx-clip-36-80-104-30-0"><rect x="36" y="80" width="104" height="30"/></clipPath><clipPath id="mx-clip-36-110-104-30-0"><rect x="36" y="110" width="104" height="30"/></clipPath><clipPath id="mx-clip-36-140-104-30-0"><rect x="36" y="140" width="104" height="30"/></clipPath><clipPath id="mx-clip-36-170-104-30-0"><rect x="36" y="170" width="104" height="30"/></clipPath><clipPath id="mx-clip-0-200-30-30-0"><rect x="0" y="200" width="30" height="30"/></clipPath><clipPath id="mx-clip-36-200-104-30-0"><rect x="36" y="200" width="104" height="30"/></clipPath><clipPath id="mx-clip-0-230-30-30-0"><rect x="0" y="230" width="30" height="30"/></clipPath><clipPath id="mx-clip-36-230-104-30-0"><rect x="36" y="230" width="104" height="30"/></clipPath><style type="text/css">@import url(https://fonts.googleapis.com/css?family=Permanent+Marker);&#xa;@import url(https://fonts.googleapis.com/css?family=Noto+Sans);&#xa;@import url(https://fonts.googleapis.com/css?family=Permanent+Marker);&#xa;</style></defs><g><path d="M 0 50 L 0 20 L 140 20 L 140 50" fill="rgba(255, 255, 255, 1)" stroke="rgba(0, 0, 0, 1)" stroke-miterlimit="10" pointer-events="all"/><path d="M 0 50 L 0 260 L 140 260 L 140 50" fill="none" stroke="rgba(0, 0, 0, 1)" stroke-miterlimit="10" pointer-events="none"/><path d="M 0 50 L 140 50" fill="none" stroke="rgba(0, 0, 0, 1)" stroke-miterlimit="10" pointer-events="none"/><path d="M 30 50 L 30 260" fill="none" stroke="rgba(0, 0, 0, 1)" stroke-miterlimit="10" pointer-events="none"/><g fill="rgba(0, 0, 0, 1)" font-family="Noto Sans" font-weight="bold" pointer-events="none" text-anchor="middle" font-size="13px"><text x="69.5" y="40">employee</text></g><path d="M 0 50 M 140 50 M 140 80 L 0 80" fill="none" stroke="rgba(0, 0, 0, 1)" stroke-miterlimit="10" pointer-events="none"/><path d="M 0 50 M 30 50 M 30 80 M 0 80" fill="none" stroke="rgba(0, 0, 0, 1)" stroke-miterlimit="10" pointer-events="none"/><g fill="rgba(0, 0, 0, 1)" font-family="Noto Sans" font-weight="bold" pointer-events="none" clip-path="url(#mx-clip-0-50-30-30-0)" text-anchor="middle" font-size="13px"><text x="14.5" y="70">PK</text></g><path d="M 30 50 M 140 50 M 140 80 M 30 80" fill="none" stroke="rgba(0, 0, 0, 1)" stroke-miterlimit="10" pointer-events="none"/><g fill="rgba(0, 0, 0, 1)" font-family="Noto Sans" font-weight="bold" text-decoration="underline" pointer-events="none" clip-path="url(#mx-clip-36-50-104-30-0)" font-size="13px"><text x="37.5" y="70">ID</text></g><path d="M 0 80 M 140 80 M 140 110 M 0 110" fill="none" stroke="rgba(0, 0, 0, 1)" stroke-miterlimit="10" pointer-events="none"/><path d="M 0 80 M 30 80 M 30 110 M 0 110" fill="none" stroke="rgba(0, 0, 0, 1)" stroke-miterlimit="10" pointer-events="none"/><path d="M 30 80 M 140 80 M 140 110 M 30 110" fill="none" stroke="rgba(0, 0, 0, 1)" stroke-miterlimit="10" pointer-events="none"/><g fill="rgba(0, 0, 0, 1)" font-family="Noto Sans" pointer-events="none" clip-path="url(#mx-clip-36-80-104-30-0)" font-size="13px"><text x="37.5" y="100">name</text></g><path d="M 0 110 M 140 110 M 140 140 M 0 140" fill="none" stroke="rgba(0, 0, 0, 1)" stroke-miterlimit="10" pointer-events="none"/><path d="M 0 110 M 30 110 M 30 140 M 0 140" fill="none" stroke="rgba(0, 0, 0, 1)" stroke-miterlimit="10" pointer-events="none"/><path d="M 30 110 M 140 110 M 140 140 M 30 140" fill="none" stroke="rgba(0, 0, 0, 1)" stroke-miterlimit="10" pointer-events="none"/><g fill="rgba(0, 0, 0, 1)" font-family="Noto Sans" pointer-events="none" clip-path="url(#mx-clip-36-110-104-30-0)" font-size="13px"><text x="37.5" y="130">position</text></g><path d="M 0 140 M 140 140 M 140 170 M 0 170" fill="none" stroke="rgba(0, 0, 0, 1)" stroke-miterlimit="10" pointer-events="none"/><path d="M 0 140 M 30 140 M 30 170 M 0 170" fill="none" stroke="rgba(0, 0, 0, 1)" stroke-miterlimit="10" pointer-events="none"/><path d="M 30 140 M 140 140 M 140 170 M 30 170" fill="none" stroke="rgba(0, 0, 0, 1)" stroke-miterlimit="10" pointer-events="none"/><g fill="rgba(0, 0, 0, 1)" font-family="Noto Sans" pointer-events="none" clip-path="url(#mx-clip-36-140-104-30-0)" font-size="13px"><text x="37.5" y="160">pay_rate</text></g><path d="M 0 170 M 140 170 M 140 200 M 0 200" fill="none" stroke="rgba(0, 0, 0, 1)" stroke-miterlimit="10" pointer-events="none"/><path d="M 0 170 M 30 170 M 30 200 M 0 200" fill="none" stroke="rgba(0, 0, 0, 1)" stroke-miterlimit="10" pointer-events="none"/><path d="M 30 170 M 140 170 M 140 200 M 30 200" fill="none" stroke="rgba(0, 0, 0, 1)" stroke-miterlimit="10" pointer-events="none"/><g fill="rgba(0, 0, 0, 1)" font-family="Noto Sans" pointer-events="none" clip-path="url(#mx-clip-36-170-104-30-0)" font-size="13px"><text x="37.5" y="190">pay_type</text></g><path d="M 0 200 M 140 200 M 140 230 M 0 230" fill="none" stroke="rgba(0, 0, 0, 1)" stroke-miterlimit="10" pointer-events="none"/><path d="M 0 200 M 30 200 M 30 230 M 0 230" fill="none" stroke="rgba(0, 0, 0, 1)" stroke-miterlimit="10" pointer-events="none"/><g fill="rgba(0, 0, 0, 1)" font-family="Noto Sans" pointer-events="none" clip-path="url(#mx-clip-0-200-30-30-0)" text-anchor="middle" font-size="13px"><text x="14.5" y="220">FK</text></g><path d="M 30 200 M 140 200 M 140 230 M 30 230" fill="none" stroke="rgba(0, 0, 0, 1)" stroke-miterlimit="10" pointer-events="none"/><g fill="rgba(0, 0, 0, 1)" font-family="Noto Sans" pointer-events="none" clip-path="url(#mx-clip-36-200-104-30-0)" font-size="13px"><text x="37.5" y="220">factory_city</text></g><path d="M 0 230 M 140 230 M 140 260 M 0 260" fill="none" stroke="rgba(0, 0, 0, 1)" stroke-miterlimit="10" pointer-events="none"/><path d="M 0 230 M 30 230 M 30 260 M 0 260" fill="none" stroke="rgba(0, 0, 0, 1)" stroke-miterlimit="10" pointer-events="none"/><g fill="rgba(0, 0, 0, 1)" font-family="Noto Sans" pointer-events="none" clip-path="url(#mx-clip-0-230-30-30-0)" text-anchor="middle" font-size="13px"><text x="14.5" y="250">FK</text></g><path d="M 30 230 M 140 230 M 140 260 M 30 260" fill="none" stroke="rgba(0, 0, 0, 1)" stroke-miterlimit="10" pointer-events="none"/><g fill="rgba(0, 0, 0, 1)" font-family="Noto Sans" pointer-events="none" clip-path="url(#mx-clip-36-230-104-30-0)" font-size="13px"><text x="37.5" y="250">supervisor_id</text></g></g></svg>