<?xml version="1.0" encoding="UTF-8" standalone="no"?>
<!DOCTYPE svg PUBLIC "-//W3C//DTD SVG 1.1//EN"
 "http://www.w3.org/Graphics/SVG/1.1/DTD/svg11.dtd">
<!-- Generated by graphviz version 2.43.0 (0)
 -->
<!-- Title: %3 Pages: 1 -->
<svg width="901pt" height="510pt"
 viewBox="0.00 0.00 901.27 510.44" xmlns="http://www.w3.org/2000/svg" xmlns:xlink="http://www.w3.org/1999/xlink">
<g id="graph0" class="graph" transform="scale(1 1) rotate(0) translate(4 506.44)">
<title>%3</title>
<polygon fill="white" stroke="transparent" points="-4,4 -4,-506.44 897.27,-506.44 897.27,4 -4,4"/>
<!-- c1 -->
<g id="node1" class="node">
<title>c1</title>
<ellipse fill="none" stroke="black" cx="479" cy="-475.57" rx="70.01" ry="26.74"/>
<text text-anchor="middle" x="479" y="-479.37" font-family="sans-serif" font-size="14.00">Chapter 1.1</text>
<text text-anchor="middle" x="479" y="-464.37" font-family="sans-serif" font-size="14.00">Basics</text>
</g>
<!-- c2 -->
<g id="node2" class="node">
<title>c2</title>
<ellipse fill="none" stroke="black" cx="299" cy="-385.83" rx="77.56" ry="26.74"/>
<text text-anchor="middle" x="299" y="-389.63" font-family="sans-serif" font-size="14.00">Chapter 1.2</text>
<text text-anchor="middle" x="299" y="-374.63" font-family="sans-serif" font-size="14.00">Data retrieval</text>
</g>
<!-- c1&#45;&gt;c2 -->
<g id="edge1" class="edge">
<title>c1&#45;&gt;c2</title>
<path fill="none" stroke="black" d="M436.8,-454C411.52,-441.68 379.15,-425.9 352.13,-412.73"/>
<polygon fill="black" stroke="black" points="353.34,-409.42 342.82,-408.19 350.28,-415.72 353.34,-409.42"/>
</g>
<!-- c5 -->
<g id="node5" class="node">
<title>c5</title>
<ellipse fill="none" stroke="black" cx="479" cy="-385.83" rx="84.29" ry="26.74"/>
<text text-anchor="middle" x="479" y="-389.63" font-family="sans-serif" font-size="14.00">Chapter 1.5</text>
<text text-anchor="middle" x="479" y="-374.63" font-family="sans-serif" font-size="14.00">Modifying data</text>
</g>
<!-- c1&#45;&gt;c5 -->
<g id="edge4" class="edge">
<title>c1&#45;&gt;c5</title>
<path fill="none" stroke="black" d="M479,-448.25C479,-440.28 479,-431.39 479,-422.9"/>
<polygon fill="black" stroke="black" points="482.5,-422.83 479,-412.83 475.5,-422.83 482.5,-422.83"/>
</g>
<!-- c6 -->
<g id="node6" class="node">
<title>c6</title>
<ellipse fill="none" stroke="black" cx="737" cy="-385.83" rx="156.04" ry="26.74"/>
<text text-anchor="middle" x="737" y="-389.63" font-family="sans-serif" font-size="14.00">Chapter 1.6</text>
<text text-anchor="middle" x="737" y="-374.63" font-family="sans-serif" font-size="14.00">Data types and table creation</text>
</g>
<!-- c1&#45;&gt;c6 -->
<g id="edge5" class="edge">
<title>c1&#45;&gt;c6</title>
<path fill="none" stroke="black" d="M530.28,-457.13C567.09,-444.61 617.37,-427.52 659.12,-413.32"/>
<polygon fill="black" stroke="black" points="660.37,-416.59 668.71,-410.06 658.11,-409.96 660.37,-416.59"/>
</g>
<!-- c3 -->
<g id="node3" class="node">
<title>c3</title>
<ellipse fill="none" stroke="black" cx="299" cy="-296.09" rx="70.92" ry="26.74"/>
<text text-anchor="middle" x="299" y="-299.89" font-family="sans-serif" font-size="14.00">Chapter 1.3</text>
<text text-anchor="middle" x="299" y="-284.89" font-family="sans-serif" font-size="14.00">Expressions</text>
</g>
<!-- c2&#45;&gt;c3 -->
<g id="edge2" class="edge">
<title>c2&#45;&gt;c3</title>
<path fill="none" stroke="black" d="M299,-358.51C299,-350.54 299,-341.65 299,-333.16"/>
<polygon fill="black" stroke="black" points="302.5,-333.09 299,-323.09 295.5,-333.09 302.5,-333.09"/>
</g>
<!-- c4 -->
<g id="node4" class="node">
<title>c4</title>
<ellipse fill="none" stroke="black" cx="299" cy="-206.35" rx="141.34" ry="26.74"/>
<text text-anchor="middle" x="299" y="-210.15" font-family="sans-serif" font-size="14.00">Chapter 1.4</text>
<text text-anchor="middle" x="299" y="-195.15" font-family="sans-serif" font-size="14.00">Queries on multiple tables</text>
</g>
<!-- c3&#45;&gt;c4 -->
<g id="edge3" class="edge">
<title>c3&#45;&gt;c4</title>
<path fill="none" stroke="black" d="M299,-268.77C299,-260.8 299,-251.91 299,-243.42"/>
<polygon fill="black" stroke="black" points="302.5,-243.35 299,-233.35 295.5,-243.35 302.5,-243.35"/>
</g>
<!-- c8 -->
<g id="node8" class="node">
<title>c8</title>
<ellipse fill="none" stroke="black" cx="70" cy="-116.61" rx="70.01" ry="26.74"/>
<text text-anchor="middle" x="70" y="-120.41" font-family="sans-serif" font-size="14.00">Chapter 1.8</text>
<text text-anchor="middle" x="70" y="-105.41" font-family="sans-serif" font-size="14.00">Subqueries</text>
</g>
<!-- c4&#45;&gt;c8 -->
<g id="edge8" class="edge">
<title>c4&#45;&gt;c8</title>
<path fill="none" stroke="black" d="M238.24,-182.07C204.11,-168.99 161.74,-152.76 128.06,-139.85"/>
<polygon fill="black" stroke="black" points="128.95,-136.45 118.36,-136.14 126.44,-142.98 128.95,-136.45"/>
</g>
<!-- c9 -->
<g id="node9" class="node">
<title>c9</title>
<ellipse fill="none" stroke="black" cx="299" cy="-116.61" rx="140.93" ry="26.74"/>
<text text-anchor="middle" x="299" y="-120.41" font-family="sans-serif" font-size="14.00">Chapter 1.9</text>
<text text-anchor="middle" x="299" y="-105.41" font-family="sans-serif" font-size="14.00">Grouping and aggregation</text>
</g>
<!-- c4&#45;&gt;c9 -->
<g id="edge9" class="edge">
<title>c4&#45;&gt;c9</title>
<path fill="none" stroke="black" d="M299,-179.03C299,-171.06 299,-162.17 299,-153.68"/>
<polygon fill="black" stroke="black" points="302.5,-153.61 299,-143.61 295.5,-153.61 302.5,-153.61"/>
</g>
<!-- c10 -->
<g id="node10" class="node">
<title>c10</title>
<ellipse fill="none" stroke="black" cx="540" cy="-116.61" rx="82.96" ry="26.74"/>
<text text-anchor="middle" x="540" y="-120.41" font-family="sans-serif" font-size="14.00">Chapter 1.10</text>
<text text-anchor="middle" x="540" y="-105.41" font-family="sans-serif" font-size="14.00">Set operations</text>
</g>
<!-- c4&#45;&gt;c10 -->
<g id="edge10" class="edge">
<title>c4&#45;&gt;c10</title>
<path fill="none" stroke="black" d="M362.32,-182.3C397.51,-169.49 441.16,-153.6 476.39,-140.77"/>
<polygon fill="black" stroke="black" points="477.89,-143.95 486.09,-137.24 475.49,-137.37 477.89,-143.95"/>
</g>
<!-- c7 -->
<g id="node7" class="node">
<title>c7</title>
<ellipse fill="none" stroke="black" cx="619" cy="-296.09" rx="113.69" ry="26.74"/>
<text text-anchor="middle" x="619" y="-299.89" font-family="sans-serif" font-size="14.00">Chapter 1.7</text>
<text text-anchor="middle" x="619" y="-284.89" font-family="sans-serif" font-size="14.00">Keys and constraints</text>
</g>
<!-- c5&#45;&gt;c7 -->
<g id="edge7" class="edge">
<title>c5&#45;&gt;c7</title>
<path fill="none" stroke="black" d="M516.15,-361.55C533.14,-350.9 553.46,-338.17 571.54,-326.84"/>
<polygon fill="black" stroke="black" points="573.6,-329.68 580.21,-321.4 569.88,-323.75 573.6,-329.68"/>
</g>
<!-- c6&#45;&gt;c7 -->
<g id="edge6" class="edge">
<title>c6&#45;&gt;c7</title>
<path fill="none" stroke="black" d="M702.87,-359.45C689.68,-349.64 674.46,-338.33 660.64,-328.05"/>
<polygon fill="black" stroke="black" points="662.36,-324.96 652.24,-321.81 658.18,-330.58 662.36,-324.96"/>
</g>
<!-- c11 -->
<g id="node11" class="node">
<title>c11</title>
<ellipse fill="none" stroke="black" cx="184" cy="-26.87" rx="92.76" ry="26.74"/>
<text text-anchor="middle" x="184" y="-30.67" font-family="sans-serif" font-size="14.00">Chapter 1.11</text>
<text text-anchor="middle" x="184" y="-15.67" font-family="sans-serif" font-size="14.00">Advanced topics</text>
</g>
<!-- c8&#45;&gt;c11 -->
<g id="edge11" class="edge">
<title>c8&#45;&gt;c11</title>
<path fill="none" stroke="black" d="M100.25,-92.33C113.71,-81.97 129.73,-69.64 144.15,-58.55"/>
<polygon fill="black" stroke="black" points="146.63,-61.05 152.42,-52.18 142.36,-55.51 146.63,-61.05"/>
</g>
<!-- c9&#45;&gt;c11 -->
<g id="edge12" class="edge">
<title>c9&#45;&gt;c11</title>
<path fill="none" stroke="black" d="M266.05,-90.47C253.08,-80.57 238.05,-69.11 224.44,-58.72"/>
<polygon fill="black" stroke="black" points="226.24,-55.69 216.17,-52.41 222,-61.26 226.24,-55.69"/>
</g>
</g>
</svg>
