<?xml version="1.0" encoding="UTF-8" standalone="no"?>
<!DOCTYPE svg PUBLIC "-//W3C//DTD SVG 1.1//EN"
 "http://www.w3.org/Graphics/SVG/1.1/DTD/svg11.dtd">
<!-- Generated by graphviz version 2.43.0 (0)
 -->
<!-- Title: %3 Pages: 1 -->
<svg width="742pt" height="510pt"
 viewBox="0.00 0.00 742.31 510.44" xmlns="http://www.w3.org/2000/svg" xmlns:xlink="http://www.w3.org/1999/xlink">
<g id="graph0" class="graph" transform="scale(1 1) rotate(0) translate(4 506.44)">
<title>%3</title>
<polygon fill="white" stroke="transparent" points="-4,4 -4,-506.44 738.31,-506.44 738.31,4 -4,4"/>
<!-- c1 -->
<g id="node1" class="node">
<title>c1</title>
<ellipse fill="none" stroke="black" cx="397.57" cy="-475.57" rx="56.64" ry="26.74"/>
<text text-anchor="middle" x="397.57" y="-479.37" font-family="Times,serif" font-size="14.00">Chapter 1.1</text>
<text text-anchor="middle" x="397.57" y="-464.37" font-family="Times,serif" font-size="14.00">Basics</text>
</g>
<!-- c2 -->
<g id="node2" class="node">
<title>c2</title>
<ellipse fill="none" stroke="black" cx="243.57" cy="-385.83" rx="64.19" ry="26.74"/>
<text text-anchor="middle" x="243.57" y="-389.63" font-family="Times,serif" font-size="14.00">Chapter 1.2</text>
<text text-anchor="middle" x="243.57" y="-374.63" font-family="Times,serif" font-size="14.00">Data retrieval</text>
</g>
<!-- c1&#45;&gt;c2 -->
<g id="edge1" class="edge">
<title>c1&#45;&gt;c2</title>
<path fill="none" stroke="black" d="M362.24,-454.44C340.58,-442.1 312.64,-426.18 289.31,-412.89"/>
<polygon fill="black" stroke="black" points="291.03,-409.85 280.61,-407.94 287.57,-415.93 291.03,-409.85"/>
</g>
<!-- c5 -->
<g id="node5" class="node">
<title>c5</title>
<ellipse fill="none" stroke="black" cx="397.57" cy="-385.83" rx="71.34" ry="26.74"/>
<text text-anchor="middle" x="397.57" y="-389.63" font-family="Times,serif" font-size="14.00">Chapter 1.5</text>
<text text-anchor="middle" x="397.57" y="-374.63" font-family="Times,serif" font-size="14.00">Modifying data</text>
</g>
<!-- c1&#45;&gt;c5 -->
<g id="edge4" class="edge">
<title>c1&#45;&gt;c5</title>
<path fill="none" stroke="black" d="M397.57,-448.25C397.57,-440.28 397.57,-431.39 397.57,-422.9"/>
<polygon fill="black" stroke="black" points="401.07,-422.83 397.57,-412.83 394.07,-422.83 401.07,-422.83"/>
</g>
<!-- c6 -->
<g id="node6" class="node">
<title>c6</title>
<ellipse fill="none" stroke="black" cx="610.57" cy="-385.83" rx="123.99" ry="26.74"/>
<text text-anchor="middle" x="610.57" y="-389.63" font-family="Times,serif" font-size="14.00">Chapter 1.6</text>
<text text-anchor="middle" x="610.57" y="-374.63" font-family="Times,serif" font-size="14.00">Data types and table creation</text>
</g>
<!-- c1&#45;&gt;c6 -->
<g id="edge5" class="edge">
<title>c1&#45;&gt;c6</title>
<path fill="none" stroke="black" d="M439.4,-457.34C469.52,-444.93 510.75,-427.95 545.2,-413.76"/>
<polygon fill="black" stroke="black" points="546.81,-416.88 554.72,-409.84 544.14,-410.41 546.81,-416.88"/>
</g>
<!-- c3 -->
<g id="node3" class="node">
<title>c3</title>
<ellipse fill="none" stroke="black" cx="243.57" cy="-296.09" rx="57.97" ry="26.74"/>
<text text-anchor="middle" x="243.57" y="-299.89" font-family="Times,serif" font-size="14.00">Chapter 1.3</text>
<text text-anchor="middle" x="243.57" y="-284.89" font-family="Times,serif" font-size="14.00">Expressions</text>
</g>
<!-- c2&#45;&gt;c3 -->
<g id="edge2" class="edge">
<title>c2&#45;&gt;c3</title>
<path fill="none" stroke="black" d="M243.57,-358.51C243.57,-350.54 243.57,-341.65 243.57,-333.16"/>
<polygon fill="black" stroke="black" points="247.07,-333.09 243.57,-323.09 240.07,-333.09 247.07,-333.09"/>
</g>
<!-- c4 -->
<g id="node4" class="node">
<title>c4</title>
<ellipse fill="none" stroke="black" cx="243.57" cy="-206.35" rx="113.69" ry="26.74"/>
<text text-anchor="middle" x="243.57" y="-210.15" font-family="Times,serif" font-size="14.00">Chapter 1.4</text>
<text text-anchor="middle" x="243.57" y="-195.15" font-family="Times,serif" font-size="14.00">Queries on multiple tables</text>
</g>
<!-- c3&#45;&gt;c4 -->
<g id="edge3" class="edge">
<title>c3&#45;&gt;c4</title>
<path fill="none" stroke="black" d="M243.57,-268.77C243.57,-260.8 243.57,-251.91 243.57,-243.42"/>
<polygon fill="black" stroke="black" points="247.07,-243.35 243.57,-233.35 240.07,-243.35 247.07,-243.35"/>
</g>
<!-- c8 -->
<g id="node8" class="node">
<title>c8</title>
<ellipse fill="none" stroke="black" cx="56.57" cy="-116.61" rx="56.64" ry="26.74"/>
<text text-anchor="middle" x="56.57" y="-120.41" font-family="Times,serif" font-size="14.00">Chapter 1.8</text>
<text text-anchor="middle" x="56.57" y="-105.41" font-family="Times,serif" font-size="14.00">Subqueries</text>
</g>
<!-- c4&#45;&gt;c8 -->
<g id="edge8" class="edge">
<title>c4&#45;&gt;c8</title>
<path fill="none" stroke="black" d="M193.95,-182.07C166.46,-169.17 132.43,-153.2 105.11,-140.39"/>
<polygon fill="black" stroke="black" points="106.29,-137.07 95.75,-136 103.32,-143.41 106.29,-137.07"/>
</g>
<!-- c9 -->
<g id="node9" class="node">
<title>c9</title>
<ellipse fill="none" stroke="black" cx="243.57" cy="-116.61" rx="112.36" ry="26.74"/>
<text text-anchor="middle" x="243.57" y="-120.41" font-family="Times,serif" font-size="14.00">Chapter 1.9</text>
<text text-anchor="middle" x="243.57" y="-105.41" font-family="Times,serif" font-size="14.00">Grouping and aggregation</text>
</g>
<!-- c4&#45;&gt;c9 -->
<g id="edge9" class="edge">
<title>c4&#45;&gt;c9</title>
<path fill="none" stroke="black" d="M243.57,-179.03C243.57,-171.06 243.57,-162.17 243.57,-153.68"/>
<polygon fill="black" stroke="black" points="247.07,-153.61 243.57,-143.61 240.07,-153.61 247.07,-153.61"/>
</g>
<!-- c10 -->
<g id="node10" class="node">
<title>c10</title>
<ellipse fill="none" stroke="black" cx="440.57" cy="-116.61" rx="66.44" ry="26.74"/>
<text text-anchor="middle" x="440.57" y="-120.41" font-family="Times,serif" font-size="14.00">Chapter 1.10</text>
<text text-anchor="middle" x="440.57" y="-105.41" font-family="Times,serif" font-size="14.00">Set operations</text>
</g>
<!-- c4&#45;&gt;c10 -->
<g id="edge10" class="edge">
<title>c4&#45;&gt;c10</title>
<path fill="none" stroke="black" d="M295.33,-182.3C323.7,-169.66 358.8,-154.03 387.39,-141.29"/>
<polygon fill="black" stroke="black" points="389.11,-144.36 396.82,-137.09 386.26,-137.97 389.11,-144.36"/>
</g>
<!-- c7 -->
<g id="node7" class="node">
<title>c7</title>
<ellipse fill="none" stroke="black" cx="510.57" cy="-296.09" rx="91.85" ry="26.74"/>
<text text-anchor="middle" x="510.57" y="-299.89" font-family="Times,serif" font-size="14.00">Chapter 1.7</text>
<text text-anchor="middle" x="510.57" y="-284.89" font-family="Times,serif" font-size="14.00">Keys and constraints</text>
</g>
<!-- c5&#45;&gt;c7 -->
<g id="edge7" class="edge">
<title>c5&#45;&gt;c7</title>
<path fill="none" stroke="black" d="M427.85,-361.32C441.08,-351.05 456.76,-338.87 470.9,-327.89"/>
<polygon fill="black" stroke="black" points="473.27,-330.48 479.02,-321.59 468.97,-324.96 473.27,-330.48"/>
</g>
<!-- c6&#45;&gt;c7 -->
<g id="edge6" class="edge">
<title>c6&#45;&gt;c7</title>
<path fill="none" stroke="black" d="M581.91,-359.69C570.94,-350.06 558.28,-338.95 546.7,-328.79"/>
<polygon fill="black" stroke="black" points="548.71,-325.9 538.88,-321.93 544.09,-331.16 548.71,-325.9"/>
</g>
<!-- c11 -->
<g id="node11" class="node">
<title>c11</title>
<ellipse fill="none" stroke="black" cx="149.57" cy="-26.87" rx="75.82" ry="26.74"/>
<text text-anchor="middle" x="149.57" y="-30.67" font-family="Times,serif" font-size="14.00">Chapter 1.11</text>
<text text-anchor="middle" x="149.57" y="-15.67" font-family="Times,serif" font-size="14.00">Advanced topics</text>
</g>
<!-- c8&#45;&gt;c11 -->
<g id="edge11" class="edge">
<title>c8&#45;&gt;c11</title>
<path fill="none" stroke="black" d="M81.49,-92.1C92.17,-82.02 104.8,-70.1 116.27,-59.29"/>
<polygon fill="black" stroke="black" points="118.73,-61.78 123.6,-52.37 113.93,-56.68 118.73,-61.78"/>
</g>
<!-- c9&#45;&gt;c11 -->
<g id="edge12" class="edge">
<title>c9&#45;&gt;c11</title>
<path fill="none" stroke="black" d="M216.63,-90.47C206.14,-80.68 194.01,-69.35 182.97,-59.05"/>
<polygon fill="black" stroke="black" points="185.24,-56.37 175.54,-52.11 180.46,-61.49 185.24,-56.37"/>
</g>
</g>
</svg>
