<?xml version="1.0" encoding="UTF-8" standalone="no"?>
<!DOCTYPE svg PUBLIC "-//W3C//DTD SVG 1.1//EN"
 "http://www.w3.org/Graphics/SVG/1.1/DTD/svg11.dtd">
<!-- Generated by graphviz version 2.43.0 (0)
 -->
<!-- Title: %3 Pages: 1 -->
<svg width="648pt" height="444pt"
 viewBox="0.00 0.00 648.31 443.70" xmlns="http://www.w3.org/2000/svg" xmlns:xlink="http://www.w3.org/1999/xlink">
<g id="graph0" class="graph" transform="scale(1 1) rotate(0) translate(4 439.7)">
<title>%3</title>
<polygon fill="white" stroke="transparent" points="-4,4 -4,-439.7 644.31,-439.7 644.31,4 -4,4"/>
<text text-anchor="middle" x="320.16" y="-7.8" font-family="Times,serif" font-size="14.00">Chapter Dependencies</text>
<!-- c1 -->
<g id="node1" class="node">
<title>c1</title>
<ellipse fill="none" stroke="black" cx="303.57" cy="-408.83" rx="56.64" ry="26.74"/>
<text text-anchor="middle" x="303.57" y="-412.63" font-family="Times,serif" font-size="14.00">Chapter 1.1</text>
<text text-anchor="middle" x="303.57" y="-397.63" font-family="Times,serif" font-size="14.00">Basics</text>
</g>
<!-- c2 -->
<g id="node2" class="node">
<title>c2</title>
<ellipse fill="none" stroke="black" cx="149.57" cy="-319.09" rx="64.19" ry="26.74"/>
<text text-anchor="middle" x="149.57" y="-322.89" font-family="Times,serif" font-size="14.00">Chapter 1.2</text>
<text text-anchor="middle" x="149.57" y="-307.89" font-family="Times,serif" font-size="14.00">Data retrieval</text>
</g>
<!-- c1&#45;&gt;c2 -->
<g id="edge1" class="edge">
<title>c1&#45;&gt;c2</title>
<path fill="none" stroke="black" d="M268.24,-387.7C246.58,-375.36 218.64,-359.44 195.31,-346.15"/>
<polygon fill="black" stroke="black" points="197.03,-343.11 186.61,-341.2 193.57,-349.19 197.03,-343.11"/>
</g>
<!-- c5 -->
<g id="node5" class="node">
<title>c5</title>
<ellipse fill="none" stroke="black" cx="303.57" cy="-319.09" rx="71.34" ry="26.74"/>
<text text-anchor="middle" x="303.57" y="-322.89" font-family="Times,serif" font-size="14.00">Chapter 1.5</text>
<text text-anchor="middle" x="303.57" y="-307.89" font-family="Times,serif" font-size="14.00">Modifying data</text>
</g>
<!-- c1&#45;&gt;c5 -->
<g id="edge4" class="edge">
<title>c1&#45;&gt;c5</title>
<path fill="none" stroke="black" d="M303.57,-381.51C303.57,-373.54 303.57,-364.65 303.57,-356.16"/>
<polygon fill="black" stroke="black" points="307.07,-356.09 303.57,-346.09 300.07,-356.09 307.07,-356.09"/>
</g>
<!-- c6 -->
<g id="node6" class="node">
<title>c6</title>
<ellipse fill="none" stroke="black" cx="516.57" cy="-319.09" rx="123.99" ry="26.74"/>
<text text-anchor="middle" x="516.57" y="-322.89" font-family="Times,serif" font-size="14.00">Chapter 1.6</text>
<text text-anchor="middle" x="516.57" y="-307.89" font-family="Times,serif" font-size="14.00">Data types and table creation</text>
</g>
<!-- c1&#45;&gt;c6 -->
<g id="edge5" class="edge">
<title>c1&#45;&gt;c6</title>
<path fill="none" stroke="black" d="M345.4,-390.6C375.52,-378.19 416.75,-361.21 451.2,-347.02"/>
<polygon fill="black" stroke="black" points="452.81,-350.14 460.72,-343.1 450.14,-343.67 452.81,-350.14"/>
</g>
<!-- c3 -->
<g id="node3" class="node">
<title>c3</title>
<ellipse fill="none" stroke="black" cx="149.57" cy="-229.35" rx="57.97" ry="26.74"/>
<text text-anchor="middle" x="149.57" y="-233.15" font-family="Times,serif" font-size="14.00">Chapter 1.3</text>
<text text-anchor="middle" x="149.57" y="-218.15" font-family="Times,serif" font-size="14.00">Expressions</text>
</g>
<!-- c2&#45;&gt;c3 -->
<g id="edge2" class="edge">
<title>c2&#45;&gt;c3</title>
<path fill="none" stroke="black" d="M149.57,-291.77C149.57,-283.8 149.57,-274.91 149.57,-266.42"/>
<polygon fill="black" stroke="black" points="153.07,-266.35 149.57,-256.35 146.07,-266.35 153.07,-266.35"/>
</g>
<!-- c4 -->
<g id="node4" class="node">
<title>c4</title>
<ellipse fill="none" stroke="black" cx="149.57" cy="-139.61" rx="113.69" ry="26.74"/>
<text text-anchor="middle" x="149.57" y="-143.41" font-family="Times,serif" font-size="14.00">Chapter 1.4</text>
<text text-anchor="middle" x="149.57" y="-128.41" font-family="Times,serif" font-size="14.00">Queries on multiple tables</text>
</g>
<!-- c3&#45;&gt;c4 -->
<g id="edge3" class="edge">
<title>c3&#45;&gt;c4</title>
<path fill="none" stroke="black" d="M149.57,-202.03C149.57,-194.06 149.57,-185.17 149.57,-176.68"/>
<polygon fill="black" stroke="black" points="153.07,-176.61 149.57,-166.61 146.07,-176.61 153.07,-176.61"/>
</g>
<!-- c8 -->
<g id="node8" class="node">
<title>c8</title>
<ellipse fill="none" stroke="black" cx="56.57" cy="-49.87" rx="56.64" ry="26.74"/>
<text text-anchor="middle" x="56.57" y="-53.67" font-family="Times,serif" font-size="14.00">Chapter 1.8</text>
<text text-anchor="middle" x="56.57" y="-38.67" font-family="Times,serif" font-size="14.00">Subqueries</text>
</g>
<!-- c4&#45;&gt;c8 -->
<g id="edge8" class="edge">
<title>c4&#45;&gt;c8</title>
<path fill="none" stroke="black" d="M122.67,-113.23C112.03,-103.2 99.72,-91.59 88.63,-81.12"/>
<polygon fill="black" stroke="black" points="90.86,-78.41 81.18,-74.09 86.05,-83.5 90.86,-78.41"/>
</g>
<!-- c9 -->
<g id="node9" class="node">
<title>c9</title>
<ellipse fill="none" stroke="black" cx="243.57" cy="-49.87" rx="112.36" ry="26.74"/>
<text text-anchor="middle" x="243.57" y="-53.67" font-family="Times,serif" font-size="14.00">Chapter 1.9</text>
<text text-anchor="middle" x="243.57" y="-38.67" font-family="Times,serif" font-size="14.00">Grouping and aggregation</text>
</g>
<!-- c4&#45;&gt;c9 -->
<g id="edge9" class="edge">
<title>c4&#45;&gt;c9</title>
<path fill="none" stroke="black" d="M176.51,-113.47C186.63,-104.01 198.29,-93.13 209.02,-83.12"/>
<polygon fill="black" stroke="black" points="211.71,-85.4 216.63,-76.02 206.93,-80.28 211.71,-85.4"/>
</g>
<!-- c7 -->
<g id="node7" class="node">
<title>c7</title>
<ellipse fill="none" stroke="black" cx="416.57" cy="-229.35" rx="91.85" ry="26.74"/>
<text text-anchor="middle" x="416.57" y="-233.15" font-family="Times,serif" font-size="14.00">Chapter 1.7</text>
<text text-anchor="middle" x="416.57" y="-218.15" font-family="Times,serif" font-size="14.00">Keys and constraints</text>
</g>
<!-- c5&#45;&gt;c7 -->
<g id="edge7" class="edge">
<title>c5&#45;&gt;c7</title>
<path fill="none" stroke="black" d="M333.85,-294.58C347.08,-284.31 362.76,-272.13 376.9,-261.15"/>
<polygon fill="black" stroke="black" points="379.27,-263.74 385.02,-254.85 374.97,-258.22 379.27,-263.74"/>
</g>
<!-- c6&#45;&gt;c7 -->
<g id="edge6" class="edge">
<title>c6&#45;&gt;c7</title>
<path fill="none" stroke="black" d="M487.91,-292.95C476.94,-283.32 464.28,-272.21 452.7,-262.05"/>
<polygon fill="black" stroke="black" points="454.71,-259.16 444.88,-255.19 450.09,-264.42 454.71,-259.16"/>
</g>
</g>
</svg>
