<?xml version="1.0" encoding="UTF-8"?>
<svg width="228px" height="319px" version="1.1" viewBox="0 0 228 319" xmlns="http://www.w3.org/2000/svg">
 <g id="surface1">
  <path d="m102.6 9.3008h2.5156c-0.58594 2.5156-0.97656 4.1523-0.97656 5.9336 0 0.31641 0 2.7344 0.92969 2.7344 0.46484 0 0.87891-0.41406 0.87891-0.80469 0-0.097656 0-0.14844-0.17187-0.48828-0.60938-1.5391-0.60938-3.4688-0.60938-3.6406 0-0.12109 0-1.707 0.48828-3.7344h2.4922c0.29297 0 1.0508 0 1.0508-0.70703 0-0.51172-0.4375-0.51172-0.82812-0.51172h-7.3867c-0.51172 0-1.293 0-2.3203 1.0977-0.58594 0.66016-1.2969 1.8555-1.2969 1.9766 0 0.14844 0.097657 0.17188 0.24609 0.17188 0.14453 0 0.17188-0.050781 0.29297-0.19531 1.1719-1.832 2.3203-1.832 2.8828-1.832h1.2969c-0.51172 1.6836-1.0508 3.6367-2.9102 7.543-0.16797 0.36719-0.16797 0.41797-0.16797 0.53906 0 0.48828 0.39062 0.58594 0.60938 0.58594 0.63672 0 0.83203-0.58594 1.1016-1.5156 0.33984-1.1445 0.33984-1.1953 0.58594-2.0977z"/>
  <path d="m111.93 14.887h2.25v-0.48828h-2.25v-2.8594h-0.39062c0 1.2695-0.46484 2.9297-2.0039 3.0039v0.34375h1.3203v4.2969c0 1.9023 1.4648 2.0977 2.0273 2.0977 1.1016 0 1.543-1.0977 1.543-2.0977v-0.87891h-0.39453v0.85156c0 1.1484-0.46484 1.7344-1.0508 1.7344-1.0508 0-1.0508-1.4141-1.0508-1.6836z"/>
  <path d="m118.07 14.227-2.1758 0.17188v0.48828c1 0 1.1484 0.097656 1.1484 0.85156v4.1992c0 0.68359-0.17188 0.68359-1.2227 0.68359v0.48828c0.48828-0.023437 1.3438-0.046875 1.7109-0.046875 0.5625 0 1.1016 0.023438 1.6406 0.046875v-0.48828c-1.0547 0-1.1016-0.070313-1.1016-0.68359zm0.046876-2.7109c0-0.48828-0.36328-0.82812-0.80469-0.82812-0.48828 0-0.83203 0.41406-0.83203 0.82812s0.34375 0.83203 0.83203 0.83203c0.44141 0 0.80469-0.34375 0.80469-0.83203z"/>
  <path d="m122.33 14.887h2.25v-0.48828h-2.25v-2.8594h-0.39062c0 1.2695-0.46484 2.9297-2.0078 3.0039v0.34375h1.3203v4.2969c0 1.9023 1.4688 2.0977 2.0312 2.0977 1.0977 0 1.5391-1.0977 1.5391-2.0977v-0.87891h-0.39062v0.85156c0 1.1484-0.46484 1.7344-1.0508 1.7344-1.0508 0-1.0508-1.4141-1.0508-1.6836z"/>
  <path d="m128.46 10.297-2.2461 0.16797v0.48828c1.0977 0 1.2227 0.097656 1.2227 0.87891v8.1055c0 0.68359-0.17188 0.68359-1.2227 0.68359v0.48828c0.51172-0.023437 1.3438-0.046875 1.7344-0.046875s1.1484 0.023438 1.7344 0.046875v-0.48828c-1.0508 0-1.2227 0-1.2227-0.68359z"/>
  <path d="m131.77 17.18c0.097656-2.3203 1.418-2.7109 1.957-2.7109 1.5898 0 1.7617 2.1016 1.7617 2.7109zm0 0.34375h4.3516c0.34375 0 0.39062 0 0.39062-0.34375 0-1.5391-0.85547-3.0508-2.7852-3.0508-1.8086 0-3.2539 1.6094-3.2539 3.5625 0 2.0781 1.6406 3.5898 3.4258 3.5898 1.9062 0 2.6133-1.7344 2.6133-2.0273 0-0.14453-0.12109-0.19531-0.21875-0.19531-0.12109 0-0.17187 0.097656-0.19531 0.22266-0.53906 1.6094-1.957 1.6094-2.1016 1.6094-0.78516 0-1.3945-0.46484-1.7617-1.0508-0.46484-0.73047-0.46484-1.7578-0.46484-2.3164z"/>
  <path d="m48.074 75.738c0.29688 0 1.0547 0 1.0547-0.70703 0-0.51172-0.44141-0.51172-0.83203-0.51172h-4.9648c-3.3711 0-5.793 3.7578-5.793 6.3945 0 1.9062 1.2227 3.4922 3.25 3.4922 2.6406 0 5.5508-2.832 5.5508-6.2031 0-0.87891-0.21875-1.7305-0.75781-2.4648zm-7.2578 8.2266c-1.1523 0-1.9805-0.87891-1.9805-2.4141 0-1.3438 0.80469-5.8125 4.1055-5.8125 0.97656 0 2.0547 0.46484 2.0547 2.1992 0 0.78125-0.36719 2.6602-1.1484 3.9531-0.80859 1.3438-2.0312 2.0742-3.0312 2.0742z"/>
  <path d="m50.891 82.199v4.1758c0 0.68359-0.17188 0.68359-1.2227 0.68359v0.48828c0.5625-0.023437 1.3438-0.050781 1.7812-0.050781 0.39453 0 1.1992 0.027344 1.7383 0.050781v-0.48828c-1.0508 0-1.2227 0-1.2227-0.68359v-2.8828c0-1.6094 1.125-2.4883 2.1016-2.4883 1.0039 0 1.1758 0.82812 1.1758 1.7344v3.6367c0 0.68359-0.17188 0.68359-1.2227 0.68359v0.48828c0.53516-0.023437 1.3438-0.050781 1.7578-0.050781 0.39062 0 1.2227 0.027344 1.7383 0.050781v-0.48828c-0.80859 0-1.1992 0-1.1992-0.46484v-2.9766c0-1.3438 0-1.8086-0.48828-2.3711-0.22266-0.26562-0.73438-0.58594-1.6406-0.58594-1.1484 0-1.8789 0.66016-2.3203 1.6367v-1.6367l-2.1992 0.17188v0.48828c1.0977 0 1.2227 0.097657 1.2227 0.87891z"/>
  <path d="m63.02 86.375c0.074219 0.60938 0.49219 1.2695 1.2227 1.2695 0.34375 0 1.2969-0.21875 1.2969-1.4883v-0.87891h-0.39062v0.87891c0 0.90234-0.39063 1-0.5625 1-0.51172 0-0.58594-0.70703-0.58594-0.78125v-3.1016c0-0.66016 0-1.2695-0.5625-1.8555-0.61328-0.60938-1.3945-0.85547-2.1289-0.85547-1.293 0-2.3711 0.73438-2.3711 1.7578 0 0.46484 0.32031 0.73438 0.73438 0.73438 0.44141 0 0.71094-0.31641 0.71094-0.70703 0-0.19531-0.074218-0.71094-0.80859-0.71094 0.44141-0.55859 1.1992-0.73047 1.6875-0.73047 0.78125 0 1.6602 0.60938 1.6602 2v0.5625c-0.80469 0.050781-1.8789 0.097656-2.8594 0.5625-1.1719 0.53516-1.5625 1.3438-1.5625 2.0273 0 1.2695 1.5156 1.6602 2.4922 1.6602 1.0273 0 1.7344-0.63672 2.0273-1.3438zm-0.097656-2.5625v1.5625c0 1.4648-1.1211 2-1.832 2-0.75781 0-1.3945-0.53516-1.3945-1.3164 0-0.85547 0.66016-2.1484 3.2266-2.2461z"/>
  <path d="m67.344 82.199v4.1758c0 0.68359-0.17188 0.68359-1.2227 0.68359v0.48828c0.5625-0.023437 1.3438-0.050781 1.7852-0.050781 0.39062 0 1.1992 0.027344 1.7344 0.050781v-0.48828c-1.0508 0-1.2227 0-1.2227-0.68359v-2.8828c0-1.6094 1.125-2.4883 2.1055-2.4883 1 0 1.1719 0.82812 1.1719 1.7344v3.6367c0 0.68359-0.17187 0.68359-1.2227 0.68359v0.48828c0.53906-0.023437 1.3438-0.050781 1.7617-0.050781 0.39062 0 1.2227 0.027344 1.7344 0.050781v-0.48828c-1.0273 0-1.1953 0-1.1953-0.68359v-2.8828c0-1.6094 1.0977-2.4883 2.1016-2.4883 0.97656 0 1.1484 0.82812 1.1484 1.7344v3.6367c0 0.68359-0.17188 0.68359-1.2227 0.68359v0.48828c0.53906-0.023437 1.3438-0.050781 1.7617-0.050781 0.41406 0 1.2227 0.027344 1.7578 0.050781v-0.48828c-0.80469 0-1.1953 0-1.2227-0.46484v-2.9766c0-1.3438 0-1.8086-0.48828-2.3711-0.21875-0.26562-0.73438-0.58594-1.6367-0.58594-1.2969 0-2.0039 0.92969-2.25 1.5391-0.21875-1.3672-1.3672-1.5391-2.0781-1.5391-1.1484 0-1.8828 0.66016-2.3242 1.6367v-1.6367l-2.1992 0.17188v0.48828c1.1016 0 1.2227 0.097657 1.2227 0.87891z"/>
  <path d="m80.359 83.617c0.097656-2.3203 1.418-2.7109 1.9531-2.7109 1.5898 0 1.7617 2.0977 1.7617 2.7109zm0 0.33984h4.3516c0.33984 0 0.39062 0 0.39062-0.33984 0-1.5391-0.85547-3.0547-2.7891-3.0547-1.8086 0-3.25 1.6133-3.25 3.5664 0 2.0742 1.6367 3.5898 3.4219 3.5898 1.9062 0 2.6172-1.7344 2.6172-2.0273 0-0.14844-0.12109-0.19531-0.21875-0.19531-0.125 0-0.17187 0.097656-0.19531 0.21875-0.53906 1.6133-1.957 1.6133-2.1055 1.6133-0.78125 0-1.3906-0.46484-1.7578-1.0508-0.46484-0.73438-0.46484-1.7578-0.46484-2.3203z"/>
  <path d="m96.258 82.445c0.24609 0 0.53906 0 0.53906-0.29297 0-0.32031-0.29297-0.32031-0.51562-0.32031h-9.3359c-0.22266 0-0.51562 0-0.51562 0.32031 0 0.29297 0.29297 0.29297 0.51562 0.29297zm0.023438 3.0273c0.22266 0 0.51562 0 0.51562-0.32031 0-0.29297-0.29297-0.29297-0.53906-0.29297h-9.3125c-0.22266 0-0.51562 0-0.51562 0.29297 0 0.32031 0.29297 0.32031 0.51562 0.32031z"/>
  <path d="m102.39 85.25c0 1.418-0.78516 2.2969-1.6133 2.2969-0.097656 0-1.1523 0-1.7109-0.90234 0.80469 0 1-0.46484 1-0.87891 0-0.5625-0.44141-0.85547-0.87891-0.85547-0.34375 0-0.88281 0.19531-0.88281 0.90234 0 1.1484 1.1016 2.0742 2.4961 2.0742 1.5898 0 2.7383-1.0977 2.9102-2.2461 0.023437-0.14453 0.023437-0.16797 0.023437-0.70703v-6.9102c0-0.63281 0.19531-0.63281 1.1992-0.63281v-0.48828c-0.6875 0.046875-1.2969 0.046875-2.0312 0.046875-0.63672 0-2.0273 0-2.6172-0.046875v0.48828h0.5625c1.543 0 1.543 0.19531 1.543 0.75781z"/>
  <path d="m108.67 86.715c0-0.4375-0.36719-0.82812-0.80469-0.82812-0.46484 0-0.83203 0.39062-0.83203 0.82812 0 0.46484 0.36719 0.83203 0.83203 0.83203 0.4375 0 0.80469-0.36719 0.80469-0.83203z"/>
  <path d="m113.51 82.055v-4.0312c0-0.36328 0-0.55859 0.34375-0.60938 0.14453-0.023437 0.60938-0.023437 0.92969-0.023437 1.3906 0 3.1289 0.074219 3.1289 2.3203 0 1.0742-0.36719 2.3438-2.6641 2.3438zm3.3008 0.19531c1.4922-0.36719 2.7148-1.3203 2.7148-2.5391 0-1.4922-1.7852-2.8086-4.0586-2.8086h-4.9141v0.48828h0.39062c1.1992 0 1.2227 0.17188 1.2227 0.73047v8.2031c0 0.5625-0.023438 0.73438-1.2227 0.73438h-0.39062v0.48828c0.5625-0.050781 1.6875-0.050781 2.2734-0.050781 0.60938 0 1.7344 0 2.2969 0.050781v-0.48828h-0.39062c-1.1992 0-1.2227-0.17188-1.2227-0.73438v-3.9297h1.7852c0.24609 0 0.90625 0 1.4688 0.53906 0.58594 0.53516 0.58594 1.0234 0.58594 2.0742 0 1 0 1.6367 0.63672 2.2227 0.63281 0.55859 1.4883 0.65625 1.9531 0.65625 1.2227 0 1.4922-1.2695 1.4922-1.707 0-0.097657 0-0.26953-0.19531-0.26953-0.17188 0-0.17188 0.14844-0.19531 0.24609-0.097657 1.1211-0.63672 1.3906-1.0273 1.3906-0.75781 0-0.87891-0.80469-1.1016-2.2461l-0.21875-1.2461c-0.26953-1-1.0273-1.5117-1.8828-1.8047z"/>
  <path d="m124.47 86.715c0-0.4375-0.36719-0.82812-0.80469-0.82812-0.46484 0-0.83203 0.39062-0.83203 0.82812 0 0.46484 0.36719 0.83203 0.83203 0.83203 0.4375 0 0.80469-0.36719 0.80469-0.83203z"/>
  <path d="m129.32 82.055v-4.0312c0-0.36328 0-0.55859 0.34375-0.60938 0.14844-0.023437 0.60938-0.023437 0.92969-0.023437 1.3945 0 3.1289 0.074219 3.1289 2.3203 0 1.0742-0.36719 2.3438-2.6641 2.3438zm3.3008 0.19531c1.4922-0.36719 2.7148-1.3203 2.7148-2.5391 0-1.4922-1.7852-2.8086-4.0586-2.8086h-4.9141v0.48828h0.39062c1.1992 0 1.2227 0.17188 1.2227 0.73047v8.2031c0 0.5625-0.023437 0.73438-1.2227 0.73438h-0.39062v0.48828c0.5625-0.050781 1.6875-0.050781 2.2734-0.050781 0.61328 0 1.7344 0 2.2969 0.050781v-0.48828h-0.39063c-1.1953 0-1.2227-0.17188-1.2227-0.73438v-3.9297h1.7852c0.24609 0 0.90625 0 1.4688 0.53906 0.58594 0.53516 0.58594 1.0234 0.58594 2.0742 0 1 0 1.6367 0.63672 2.2227 0.63281 0.55859 1.4883 0.65625 1.9531 0.65625 1.2227 0 1.4922-1.2695 1.4922-1.707 0-0.097657 0-0.26953-0.19531-0.26953-0.17188 0-0.17188 0.14844-0.19531 0.24609-0.097656 1.1211-0.63672 1.3906-1.0273 1.3906-0.75781 0-0.87891-0.80469-1.0977-2.2461l-0.22266-1.2461c-0.26953-1-1.0273-1.5117-1.8828-1.8047z"/>
  <path d="m140.28 86.715c0-0.4375-0.36328-0.82812-0.80469-0.82812-0.46484 0-0.83203 0.39062-0.83203 0.82812 0 0.46484 0.36719 0.83203 0.83203 0.83203 0.44141 0 0.80469-0.36719 0.80469-0.83203z"/>
  <path d="m157.21 77h-9.5352l-0.29297 3.5156h0.39062c0.22266-2.5156 0.44141-3.0273 2.8125-3.0273 0.26953 0 0.68359 0 0.83203 0.023438 0.34375 0.074219 0.34375 0.24609 0.34375 0.58594v8.2266c0 0.51562 0 0.73438-1.6406 0.73438h-0.63281v0.48828c0.63281-0.050781 2.2227-0.050781 2.957-0.050781 0.70703 0 2.3203 0 2.957 0.050781v-0.48828h-0.63672c-1.6367 0-1.6367-0.21875-1.6367-0.73438v-8.2266c0-0.29297 0-0.51172 0.29297-0.58594 0.17188-0.023438 0.58594-0.023438 0.88281-0.023438 2.3711 0 2.5898 0.51172 2.8086 3.0273h0.39062z"/>
  <path d="m164.12 84.203c0-1.9805-1.5391-3.6406-3.4219-3.6406-1.957 0-3.4727 1.7109-3.4727 3.6406 0 2.0234 1.6133 3.5156 3.4453 3.5156 1.8828 0 3.4492-1.5391 3.4492-3.5156zm-3.4219 3.125c-0.6875 0-1.3711-0.32031-1.7852-1.0508-0.39062-0.68359-0.39062-1.6367-0.39062-2.1992 0-0.60938 0-1.4375 0.36328-2.1211 0.41797-0.71094 1.1523-1.0508 1.7852-1.0508 0.6875 0 1.3477 0.33984 1.7617 1.0234 0.41406 0.66016 0.41406 1.5625 0.41406 2.1484 0 0.5625 0 1.418-0.33984 2.1016-0.36719 0.70703-1.0508 1.1484-1.8086 1.1484z"/>
  <path d="m167.34 76.73-2.25 0.17188v0.48828c1.1016 0 1.2227 0.097656 1.2227 0.87891v8.1055c0 0.68359-0.17188 0.68359-1.2227 0.68359v0.48828c0.51172-0.023437 1.3438-0.050781 1.7344-0.050781s1.1484 0.027344 1.7383 0.050781v-0.48828c-1.0508 0-1.2227 0-1.2227-0.68359z"/>
  <path d="m170.57 86.375c0 0.68359-0.17187 0.68359-1.2227 0.68359v0.48828c0.51172-0.023437 1.2461-0.050781 1.6875-0.050781 0.48828 0 1.0977 0.027344 1.7344 0.050781v-0.48828c-1.0508 0-1.2227 0-1.2227-0.68359v-1.6133l1.0039-0.85156c1.1953 1.6328 1.8555 2.5117 1.8555 2.8047 0 0.29297-0.26562 0.34375-0.5625 0.34375v0.48828c0.41797-0.023437 1.3477-0.050781 1.6875-0.050781 0.44141 0 0.90625 0.027344 1.3438 0.050781v-0.48828c-0.58594 0-0.92578 0-1.5156-0.83203l-1.9805-2.7812c-0.023437-0.023437-0.097656-0.12109-0.097656-0.17187 0-0.046876 1.125-1 1.2734-1.1211 0.97656-0.78125 1.6367-0.83203 1.957-0.83203v-0.48828c-0.44141 0.050781-0.63672 0.050781-1.0781 0.050781-0.5625 0-1.5391-0.027343-1.7578-0.050781v0.48828c0.29297 0 0.46484 0.17188 0.46484 0.39063 0 0.31641-0.22266 0.48828-0.34375 0.60937l-2.1992 1.8828v-7.4727l-2.25 0.17188v0.48828c1.0977 0 1.2227 0.097656 1.2227 0.87891z"/>
  <path d="m179.9 80.66-2.1758 0.17188v0.48828c1 0 1.1484 0.097657 1.1484 0.85547v4.1992c0 0.68359-0.17188 0.68359-1.2227 0.68359v0.48828c0.48828-0.023437 1.3438-0.050781 1.7109-0.050781 0.5625 0 1.1016 0.027344 1.6367 0.050781v-0.48828c-1.0508 0-1.0977-0.074219-1.0977-0.68359zm0.046874-2.707c0-0.48828-0.36719-0.83203-0.80469-0.83203-0.49219 0-0.83203 0.41406-0.83203 0.83203 0 0.41406 0.33984 0.82812 0.83203 0.82812 0.4375 0 0.80469-0.33984 0.80469-0.82812z"/>
  <path d="m183.2 83.617c0.097656-2.3203 1.418-2.7109 1.957-2.7109 1.5898 0 1.7617 2.0977 1.7617 2.7109zm0 0.33984h4.3516c0.34375 0 0.39453 0 0.39453-0.33984 0-1.5391-0.85547-3.0547-2.7891-3.0547-1.8086 0-3.25 1.6133-3.25 3.5664 0 2.0742 1.6367 3.5898 3.4219 3.5898 1.9062 0 2.6172-1.7344 2.6172-2.0273 0-0.14844-0.125-0.19531-0.22266-0.19531-0.12109 0-0.17188 0.097656-0.19531 0.21875-0.53906 1.6133-1.957 1.6133-2.1016 1.6133-0.78125 0-1.3945-0.46484-1.7617-1.0508-0.46484-0.73438-0.46484-1.7578-0.46484-2.3203z"/>
  <path d="m190.11 82.199v4.1758c0 0.68359-0.17188 0.68359-1.2227 0.68359v0.48828c0.5625-0.023437 1.3438-0.050781 1.7852-0.050781 0.39062 0 1.1953 0.027344 1.7344 0.050781v-0.48828c-1.0508 0-1.2227 0-1.2227-0.68359v-2.8828c0-1.6094 1.125-2.4883 2.1016-2.4883 1.0039 0 1.1758 0.82812 1.1758 1.7344v3.6367c0 0.68359-0.17188 0.68359-1.2227 0.68359v0.48828c0.53516-0.023437 1.3438-0.050781 1.7578-0.050781 0.39062 0 1.2227 0.027344 1.7383 0.050781v-0.48828c-0.80859 0-1.1992 0-1.1992-0.46484v-2.9766c0-1.3438 0-1.8086-0.48828-2.3711-0.21875-0.26562-0.73438-0.58594-1.6367-0.58594-1.1523 0-1.8828 0.66016-2.3242 1.6367v-1.6367l-2.1992 0.17188v0.48828c1.0977 0 1.2227 0.097657 1.2227 0.87891z"/>
  <path transform="matrix(1.5647 0 0 -1.5625 117.26 14.603)" d="m5.8644e-5 -9.044v-24.43" fill="none" stroke="#000" stroke-miterlimit="10" stroke-width=".3985"/>
  <path d="m117.13 146.86-4.4766-4.4688c-0.29297-0.26562-0.31641-0.31641-0.51172-0.31641-0.22266 0-0.44141 0.21875-0.44141 0.46484 0 0.17188 0.097656 0.26953 0.31641 0.48828l4.4531 4.4688-4.4531 4.418c-0.24219 0.24219-0.31641 0.39062-0.31641 0.51172 0 0.24609 0.21875 0.46484 0.44141 0.46484 0.19531 0 0.21875-0.050781 0.51172-0.31641l4.4492-4.4688c1.1016 1.0742 4.3789 4.3711 4.6719 4.6367 0.023437 0.050781 0.17188 0.14844 0.31641 0.14844 0.44141 0 0.44141-0.41406 0.44141-0.78125v-9.2539c0-0.36719 0-0.78125-0.44141-0.78125-0.17188 0-0.26953 0.097657-0.48828 0.31641zm0.66016 0.63672 3.8594-3.8828v7.7148z"/>
  <path d="m122.46 143.02c0.29688-0.26953 0.32031-0.31641 0.32031-0.48828 0-0.24609-0.19531-0.46484-0.44141-0.46484-0.17188 0-0.26953 0.097657-0.48828 0.31641l-4.4727 4.4688-4.4766-4.4688c-0.29297-0.26562-0.31641-0.31641-0.51172-0.31641-0.44141 0-0.44141 0.44141-0.44141 0.80469v9.207c0 0.36328 0 0.80469 0.44141 0.80469 0.19531 0 0.21875-0.050781 0.51172-0.31641l4.4492-4.4688c1.1016 1.0742 4.3789 4.3711 4.6719 4.6367 0.023438 0.050781 0.17188 0.14844 0.31641 0.14844 0.26953 0 0.44141-0.21875 0.44141-0.46484 0-0.023437 0-0.14453-0.097656-0.29297-0.14844-0.14453-3.4961-3.4648-4.6445-4.6367zm-9.6055 8.3242v-7.7148l3.8633 3.8594z"/>
  <path transform="matrix(1.5647 0 0 -1.5625 117.26 14.603)" d="m5.8644e-5 -51.564v-23.835" fill="none" stroke="#000" stroke-miterlimit="10" stroke-width=".3985"/>
  <path d="m19.523 207.1c0.29297 0 1.0508 0 1.0508-0.70703 0-0.51172-0.44141-0.51172-0.83203-0.51172h-4.9648c-3.3711 0-5.793 3.7578-5.793 6.3945 0 1.9062 1.2227 3.4922 3.25 3.4922 2.6406 0 5.5508-2.832 5.5508-6.2031 0-0.87891-0.21875-1.7305-0.75781-2.4648zm-7.2617 8.2266c-1.1484 0-1.9805-0.87891-1.9805-2.4141 0-1.3438 0.80469-5.8125 4.1055-5.8125 0.98047 0 2.0547 0.46484 2.0547 2.1992 0 0.78125-0.36719 2.6602-1.1484 3.9531-0.80859 1.3438-2.0312 2.0742-3.0312 2.0742z"/>
  <path d="m27.102 213.68c0.39063-1 1.1953-1 1.4414-1v-0.48828c-0.36719 0.023438-0.80859 0.046876-1.1719 0.046876-0.26953 0-1.0039-0.023438-1.3477-0.046876v0.48828c0.48828 0 0.73437 0.26562 0.73437 0.65625 0 0.17188-0.023437 0.19531-0.097656 0.39062l-1.5898 3.8086-1.7109-4.1719c-0.074219-0.17188-0.097656-0.22266-0.097656-0.29297 0-0.39062 0.5625-0.39062 0.87891-0.39062v-0.48828c-0.41406 0.023438-1.4414 0.046876-1.7109 0.046876-0.41406 0-1.0508-0.023438-1.5156-0.046876v0.48828c0.75781 0 1.0508 0 1.2734 0.53516l2.3438 5.6875c-0.097656 0.19531-0.31641 0.71094-0.39062 0.92969-0.33984 0.85547-0.78125 1.9297-1.7852 1.9297-0.070313 0-0.4375 0-0.73047-0.29297 0.48828-0.050781 0.60938-0.39062 0.60938-0.66016 0-0.39062-0.29297-0.63672-0.66016-0.63672-0.31641 0-0.66016 0.19531-0.66016 0.66016 0 0.70703 0.66016 1.2695 1.4414 1.2695 0.98047 0 1.6172-0.90234 1.9805-1.7812z"/>
  <path d="m30.148 214.98c0.097656-2.3203 1.418-2.7109 1.957-2.7109 1.5898 0 1.7578 2.1016 1.7578 2.7109zm0 0.34375h4.3516c0.34375 0 0.39062 0 0.39062-0.34375 0-1.5391-0.85547-3.0508-2.7852-3.0508-1.8086 0-3.2539 1.6094-3.2539 3.5625 0 2.0781 1.6406 3.5898 3.4258 3.5898 1.9062 0 2.6133-1.7344 2.6133-2.0273 0-0.14453-0.12109-0.19531-0.21875-0.19531-0.12109 0-0.17188 0.097656-0.19531 0.22266-0.53906 1.6094-1.957 1.6094-2.1016 1.6094-0.78516 0-1.3945-0.46484-1.7617-1.0508-0.46484-0.73047-0.46484-1.7578-0.46484-2.3164z"/>
  <path d="m40.523 217.73c0.074218 0.61328 0.48828 1.2695 1.2227 1.2695 0.34375 0 1.2969-0.21875 1.2969-1.4883v-0.87891h-0.39453v0.87891c0 0.90234-0.39063 1-0.55859 1-0.51562 0-0.58984-0.70703-0.58984-0.78125v-3.0977c0-0.66016 0-1.2695-0.5625-1.8555-0.60938-0.61328-1.3906-0.85547-2.125-0.85547-1.2969 0-2.3711 0.73047-2.3711 1.7578 0 0.46484 0.31641 0.73047 0.73047 0.73047 0.44141 0 0.71094-0.31641 0.71094-0.70703 0-0.19531-0.074218-0.70703-0.80859-0.70703 0.44141-0.5625 1.1992-0.73438 1.6875-0.73438 0.78516 0 1.6641 0.61328 1.6641 2.0039v0.5625c-0.80859 0.046875-1.8828 0.097657-2.8594 0.55859-1.1758 0.53906-1.5664 1.3438-1.5664 2.0273 0 1.2695 1.5156 1.6602 2.4922 1.6602 1.0273 0 1.7383-0.63281 2.0312-1.3438zm-0.097657-2.5625v1.5625c0 1.4648-1.125 2.0039-1.8359 2.0039-0.75781 0-1.3906-0.53906-1.3906-1.3203 0-0.85547 0.66016-2.1484 3.2266-2.2461z"/>
  <path d="m45.75 213.73v-1.707l-2.1758 0.17187v0.48828c1.1016 0 1.2227 0.097656 1.2227 0.87891v4.1719c0 0.68359-0.17188 0.68359-1.2227 0.68359v0.48828c0.61328-0.023438 1.3438-0.046875 1.7852-0.046875 0.60938 0 1.3438 0 1.9805 0.046875v-0.48828h-0.34375c-1.1484 0-1.1719-0.16797-1.1719-0.73047v-2.3945c0-1.5352 0.66016-2.9297 1.832-2.9297 0.097656 0 0.14844 0 0.17188 0.027344-0.046875 0-0.36719 0.19531-0.36719 0.60938s0.34375 0.66016 0.68359 0.66016c0.26953 0 0.66016-0.19531 0.66016-0.68359 0-0.48828-0.48828-0.95312-1.1484-0.95312-1.1484 0-1.7109 1.0508-1.9062 1.707z"/>
  <path d="m59.781 215.37c0.17188-0.097657 0.29297-0.17188 0.29297-0.36719 0-0.16797-0.12109-0.24219-0.29297-0.33984l-8.6523-4.0547c-0.19922-0.12109-0.22266-0.12109-0.26953-0.12109-0.17188 0-0.32031 0.14844-0.32031 0.31641 0 0.14844 0.074219 0.24609 0.29297 0.34375l8.1914 3.8555-8.1914 3.8828c-0.21875 0.097657-0.29297 0.19531-0.29297 0.34375 0 0.16797 0.14844 0.31641 0.32031 0.31641 0.046875 0 0.070313 0 0.26953-0.12109z"/>
  <path d="m65.965 208.95c0-0.39062 0-0.41406-0.36719-0.41406-0.97656 1-2.3477 1-2.8359 1v0.48828c0.31641 0 1.2227 0 2.0273-0.41406v8.082c0 0.5625-0.046874 0.73047-1.4414 0.73047h-0.48828v0.48828c0.53906-0.046875 1.8828-0.046875 2.5195-0.046875 0.60938 0 1.9805 0 2.5156 0.046875v-0.48828h-0.48828c-1.418 0-1.4414-0.16797-1.4414-0.73047z"/>
  <path d="m74.883 213.95v0.51172c0 3.6367-1.6133 4.3438-2.5195 4.3438-0.26562 0-1.1211-0.023438-1.5391-0.55859 0.68359 0 0.80859-0.44141 0.80859-0.71094 0-0.48828-0.36719-0.70703-0.71094-0.70703-0.24219 0-0.70703 0.12109-0.70703 0.73438 0 1.0469 0.82812 1.6836 2.1484 1.6836 2.0312 0 3.9375-2.125 3.9375-5.4688 0-4.1992-1.8086-5.25-3.2031-5.25-0.85547 0-1.6133 0.29297-2.2734 0.97656-0.66016 0.70703-1 1.3672-1 2.5391 0 1.9297 1.3672 3.4688 3.1016 3.4688 0.95312 0 1.5898-0.66016 1.957-1.5625zm-1.9297 1.1953c-0.24609 0-0.98047 0-1.4453-0.97656-0.29297-0.58594-0.29297-1.3438-0.29297-2.125 0-0.82812 0-1.5625 0.34375-2.1484 0.41406-0.78125 1.0039-0.97656 1.5391-0.97656 0.73438 0 1.2461 0.53906 1.5156 1.2227 0.17188 0.51172 0.24609 1.4883 0.24609 2.1953 0 1.293-0.53906 2.8086-1.9062 2.8086z"/>
  <path d="m83.949 215.78c0-1.8555-1.2734-3.418-2.957-3.418-0.73438 0-1.418 0.24609-1.9805 0.80859v-3.0547c0.31641 0.097656 0.82812 0.19531 1.3203 0.19531 1.9297 0 3.0312-1.4141 3.0312-1.6094 0-0.097656-0.050781-0.17188-0.17188-0.17188 0 0-0.050781 0-0.12109 0.050781-0.32031 0.14453-1.0781 0.46094-2.1289 0.46094-0.60938 0-1.3438-0.12109-2.0781-0.4375-0.12109-0.050781-0.14453-0.050781-0.17188-0.050781-0.17188 0-0.17188 0.125-0.17188 0.36719v4.6133c0 0.26953 0 0.39062 0.22266 0.39062 0.12109 0 0.14453-0.023437 0.21875-0.12109 0.17187-0.24219 0.73437-1.0977 2.0039-1.0977 0.80859 0 1.1992 0.70703 1.3203 1 0.24609 0.58594 0.29297 1.1719 0.29297 1.9531 0 0.5625 0 1.4883-0.39062 2.1484-0.36719 0.60938-0.95312 1-1.6602 1-1.125 0-2.0312-0.82812-2.3008-1.7305 0.050782 0 0.097657 0.023437 0.26953 0.023437 0.51562 0 0.78125-0.39062 0.78125-0.75781 0-0.39062-0.26562-0.78125-0.78125-0.78125-0.21875 0-0.75781 0.12109-0.75781 0.83203 0 1.3398 1.0781 2.8555 2.8125 2.8555 1.8086 0 3.3984-1.4883 3.3984-3.4688z"/>
  <path d="m91.914 213.93c0-1.2422-0.074218-2.4883-0.60937-3.6367-0.71094-1.5117-2.0078-1.7578-2.6406-1.7578-0.95312 0-2.0781 0.41406-2.7383 1.8555-0.49219 1.0742-0.5625 2.2969-0.5625 3.5391 0 1.1719 0.046875 2.5664 0.70703 3.7617 0.66016 1.2461 1.8086 1.5625 2.5664 1.5625 0.83203 0 2.0312-0.31641 2.7148-1.8086 0.48828-1.0742 0.5625-2.293 0.5625-3.5156zm-3.2773 4.9805c-0.60938 0-1.5391-0.39062-1.8086-1.8789-0.17188-0.92578-0.17188-2.3672-0.17188-3.2969 0-1 0-2.0234 0.125-2.8555 0.29297-1.8555 1.4648-2 1.8555-2 0.51562 0 1.543 0.29297 1.8359 1.8281 0.17188 0.87891 0.17188 2.0508 0.17188 3.0273 0 1.1719 0 2.2227-0.17188 3.2227-0.24609 1.4922-1.125 1.9531-1.8359 1.9531z"/>
  <path transform="matrix(1.5647 0 0 -1.5625 117.26 14.603)" d="m-9.6363-94.682-22.873-22.863" fill="none" stroke="#000" stroke-miterlimit="10" stroke-width=".3985"/>
  <path d="m26.625 272.58-3.1055 0.24609v0.65625c1.5156 0 1.6875 0.14844 1.6875 1.2461v13.402h0.51562c0.074219-0.16797 0.70703-1.293 0.80469-1.4648 0.51562 0.83203 1.4688 1.6875 2.9102 1.6875 2.5938 0 4.8398-2.1758 4.8398-5.0547 0-2.8555-2.1016-5.0547-4.5938-5.0547-1.2227 0-2.2734 0.5625-3.0586 1.5156zm0.050781 8.375c0-0.39062 0-0.44141 0.24219-0.80469 0.53906-0.80859 1.543-1.4414 2.6406-1.4414 0.66016 0 3.0312 0.26953 3.0312 4.5664 0 1.4883-0.24219 2.4414-0.78125 3.2461-0.4375 0.68359-1.3438 1.3906-2.4688 1.3906-1.1992 0-1.9805-0.78125-2.3711-1.3906-0.29297-0.46484-0.29297-0.5625-0.29297-0.95313z"/>
  <path d="m45.996 283.35c0-2.9023-2.1992-5.1992-4.793-5.1992-2.6875 0-4.8164 2.3672-4.8164 5.1992 0 2.8594 2.2266 5.0078 4.793 5.0078 2.6406 0 4.8164-2.1992 4.8164-5.0078zm-4.793 4.5195c-0.83203 0-1.832-0.36719-2.4922-1.4648-0.61328-1.0039-0.63672-2.3203-0.63672-3.2734 0-0.85547 0-2.2227 0.71094-3.2227 0.60938-0.95312 1.6133-1.3164 2.3945-1.3164 0.87891 0 1.8086 0.39062 2.4219 1.2695 0.70703 1.0234 0.70703 2.4414 0.70703 3.2695 0 0.78125 0 2.1719-0.58594 3.2227-0.63672 1.0977-1.6641 1.5156-2.5195 1.5156z"/>
  <path d="m57.594 283.35c0-2.9023-2.2031-5.1992-4.793-5.1992-2.6914 0-4.8164 2.3672-4.8164 5.1992 0 2.8594 2.2227 5.0078 4.793 5.0078 2.6406 0 4.8164-2.1992 4.8164-5.0078zm-4.793 4.5195c-0.83203 0-1.832-0.36719-2.4922-1.4648-0.61328-1.0039-0.63672-2.3203-0.63672-3.2734 0-0.85547 0-2.2227 0.70703-3.2227 0.61328-0.95312 1.6133-1.3164 2.3984-1.3164 0.87891 0 1.8086 0.39062 2.418 1.2695 0.71094 1.0234 0.71094 2.4414 0.71094 3.2695 0 0.78125 0 2.1719-0.58594 3.2227-0.63672 1.0977-1.6641 1.5156-2.5195 1.5156z"/>
  <path d="m64.574 282.2c0-0.027344-0.14844-0.22266-0.14844-0.22266 0-0.070313 1.3945-1.293 1.5898-1.4648 1.5391-1.3398 2.543-1.3672 3.0078-1.3906v-0.66016c-0.46484 0.050781-1.0273 0.050781-1.7109 0.050781-0.58594 0-1.7383 0-2.25-0.050781v0.66016c0.39062 0.023438 0.66016 0.21875 0.66016 0.58594 0 0.44141-0.46484 0.85547-0.46484 0.85547l-3.2266 2.8086v-10.793l-3.1055 0.24609v0.65625c1.5156 0 1.6875 0.14844 1.6875 1.2461v11.742c0 1.0039-0.24609 1.0039-1.6875 1.0039v0.65625c0.60938-0.046874 1.6875-0.046874 2.3711-0.046874s1.7617 0 2.3711 0.046874v-0.65625c-1.418 0-1.6875 0-1.6875-1.0039v-2.3672l1.418-1.2695 2.1523 3.1016c0.34375 0.46484 0.51562 0.70703 0.51562 1.0234 0 0.41797-0.32031 0.51562-0.80859 0.51562v0.65625c0.5625-0.046874 1.6641-0.046874 2.2734-0.046874 0.97656 0 1.0273 0 1.9805 0.046874v-0.65625c-0.60938 0-1.2969 0-1.9297-0.90625z"/>
  <path d="m77.25 278.66c0-0.41406 0-0.51172-0.21875-0.51172-0.17188 0-0.61328 0.48828-0.75781 0.68359-0.71094-0.5625-1.3945-0.68359-2.1289-0.68359-2.7148 0-3.5195 1.4648-3.5195 2.7109 0 0.24219 0 1.0234 0.85547 1.8047 0.73438 0.63672 1.4922 0.78125 2.5195 0.97656 1.2188 0.24609 1.5156 0.32031 2.0781 0.78125 0.41406 0.32031 0.70703 0.83203 0.70703 1.4414 0 0.97656-0.5625 2.0508-2.543 2.0508-1.4648 0-2.5664-0.85547-3.0547-3.1016-0.074219-0.39062-0.074219-0.41406-0.097656-0.4375-0.050782-0.097656-0.14844-0.097656-0.22266-0.097656-0.24219 0-0.24219 0.12109-0.24219 0.51172v3.0508c0 0.41797 0 0.51562 0.21875 0.51562 0.12109 0 0.14844-0.027344 0.53906-0.48828 0.097657-0.14844 0.097657-0.19531 0.4375-0.5625 0.85938 1.0508 2.0547 1.0508 2.4453 1.0508 2.3477 0 3.5234-1.2969 3.5234-3.0781 0-1.1953-0.73437-1.9297-0.92969-2.125-0.80859-0.68359-1.418-0.82812-2.9102-1.0977-0.66016-0.12109-2.2969-0.4375-2.2969-1.7812 0-0.70703 0.46484-1.7344 2.4922-1.7344 2.4453 0 2.5664 2.0742 2.6172 2.7852 0.023437 0.16797 0.17188 0.16797 0.24219 0.16797 0.24609 0 0.24609-0.097657 0.24609-0.51172z"/>
  <path transform="matrix(1.5647 0 0 -1.5625 117.26 14.603)" d="m-42.52-137.58v-22.64" fill="none" stroke="#000" stroke-miterlimit="10" stroke-width=".3985"/>
  <path d="m156.36 215.72c0-1.2227 0-2.1016-0.97656-2.9805-0.78125-0.73047-1.7852-1.0234-2.7891-1.0234-1.832 0-3.25 1.1953-3.25 2.6602 0 0.63281 0.41406 0.95312 0.95312 0.95312s0.90625-0.36719 0.90625-0.90625c0-0.92578-0.80859-0.92578-1.1523-0.92578 0.53906-0.95312 1.6133-1.3438 2.4961-1.3438 1.0508 0 2.3711 0.85547 2.3711 2.8555v0.90625c-4.5234 0.070313-6.2344 1.9531-6.2344 3.6836 0 1.7578 2.0781 2.3203 3.4453 2.3203 1.4688 0 2.4961-0.90234 2.9102-1.9766 0.097657 1.0742 0.78516 1.8789 1.7617 1.8789 0.46484 0 1.7578-0.31641 1.7578-2.125v-1.2422h-0.48828v1.2422c0 1.2969-0.53516 1.4648-0.85547 1.4648-0.85547 0-0.85547-1.1953-0.85547-1.5117zm-1.4414 2.832c0 2.1953-1.6367 2.9297-2.6172 2.9297-1.0977 0-2.0039-0.80859-2.0039-1.8828 0-2.9531 3.8125-3.2227 4.6211-3.2695z"/>
  <path d="m165.52 212.05v0.66016c1.5156 0 1.7109 0.14453 1.7109 1.2461v4.0273c0 1.9023-1 3.4922-2.6875 3.4922-1.8594 0-1.957-1.0508-1.957-2.2461v-7.4219l-3.1758 0.24219v0.66016c1.7109 0 1.7109 0.074218 1.7109 2.0508v3.3672c0 1.3945 0 2.1992 0.68359 2.9297 0.53906 0.58594 1.4414 0.85547 2.5898 0.85547 0.39453 0 1.1016 0 1.8594-0.63281 0.66016-0.53906 1.0273-1.3672 1.0273-1.3672v2l3.1055-0.21875v-0.66016c-1.5156 0-1.6875-0.14453-1.6875-1.2461v-7.9805z"/>
  <path d="m174.67 212.69h3.1797v-0.66016h-3.1797v-4.125h-0.48828c-0.023438 2.1211-0.83203 4.2695-2.8594 4.3438v0.44141h1.9062v6.2227c0 2.4922 1.6367 3.0039 2.8359 3.0039 1.418 0 2.1523-1.3906 2.1523-3.0039v-1.2695h-0.49219v1.2227c0 1.6094-0.66016 2.5625-1.5156 2.5625-1.5391 0-1.5391-2.0742-1.5391-2.4648z"/>
  <path d="m189.45 216.25c0-2.0742 0-2.7109-0.53516-3.4414-0.63672-0.85547-1.6875-1-2.4688-1-1.9336 0-2.8125 1.4648-3.1328 2.1484h-0.023437v-7.8125l-3.1289 0.24219v0.66016c1.5391 0 1.7109 0.14453 1.7109 1.2461v11.742c0 1-0.24219 1-1.7109 1v0.66016c0.58594-0.050781 1.8086-0.050781 2.4453-0.050781s1.8594 0 2.4453 0.050781v-0.66016c-1.4414 0-1.7109 0-1.7109-1v-4.1758c0-2.3438 1.5391-3.5898 2.9336-3.5898 1.3945 0 1.7109 1.125 1.7109 2.4922v5.2734c0 1-0.24609 1-1.7109 1v0.66016c0.58594-0.050781 1.8086-0.050781 2.418-0.050781 0.66016 0 1.8594 0 2.4453 0.050781v-0.66016c-1.125 0-1.6875 0-1.6875-0.66016z"/>
  <path d="m201.96 216.91c0-2.9062-2.2031-5.1992-4.793-5.1992-2.6914 0-4.8164 2.3672-4.8164 5.1992 0 2.8555 2.2227 5.0039 4.793 5.0039 2.6406 0 4.8164-2.1953 4.8164-5.0039zm-4.793 4.5156c-0.83203 0-1.832-0.36719-2.4922-1.4648-0.61328-1-0.63672-2.3203-0.63672-3.2695 0-0.85547 0-2.2227 0.70703-3.2227 0.61328-0.95312 1.6133-1.3203 2.3984-1.3203 0.87891 0 1.8086 0.39062 2.418 1.2695 0.71094 1.0273 0.71094 2.4414 0.71094 3.2734 0 0.78125 0 2.1719-0.58594 3.2227-0.63672 1.0977-1.6641 1.5117-2.5195 1.5117z"/>
  <path d="m206.4 216.47c0-2.1719 0.90234-4.1992 2.6406-4.1992h0.31641c-0.19531 0.097656-0.53906 0.24609-0.53906 0.83203 0 0.66016 0.51562 0.90234 0.85547 0.90234 0.46484 0 0.90625-0.29297 0.90625-0.90234 0-0.66016-0.60938-1.293-1.5625-1.293-1.9102 0-2.5703 2.0742-2.6914 2.4883h-0.023438v-2.4883l-3.0078 0.24219v0.66016c1.5156 0 1.6875 0.14453 1.6875 1.2461v6.0781c0 1-0.24609 1-1.6875 1v0.66016c0.60938-0.050781 1.8594-0.050781 2.5195-0.050781 0.60938 0 2.1992 0 2.7383 0.050781v-0.66016h-0.46484c-1.6406 0-1.6875-0.24219-1.6875-1.0508z"/>
  <path d="m218.56 212.23c0-0.41406 0-0.51172-0.21875-0.51172-0.17188 0-0.60938 0.48828-0.75781 0.68359-0.70703-0.5625-1.3945-0.68359-2.125-0.68359-2.7148 0-3.5234 1.4648-3.5234 2.707 0 0.24609 0 1.0273 0.85547 1.8086 0.73438 0.63281 1.4922 0.78125 2.5195 0.97656 1.2227 0.24219 1.5156 0.31641 2.0781 0.78125 0.41406 0.31641 0.70703 0.82812 0.70703 1.4414 0 0.97656-0.55859 2.0508-2.5391 2.0508-1.4688 0-2.5703-0.85547-3.0586-3.1016-0.074219-0.39062-0.074219-0.41406-0.097656-0.44141-0.046875-0.097656-0.14453-0.097656-0.21875-0.097656-0.24609 0-0.24609 0.125-0.24609 0.51562v3.0508c0 0.41406 0 0.51172 0.22266 0.51172 0.12109 0 0.14453-0.023438 0.53516-0.48828 0.097657-0.14453 0.097657-0.19531 0.44141-0.5625 0.85547 1.0508 2.0547 1.0508 2.4453 1.0508 2.3477 0 3.5195-1.293 3.5195-3.0742 0-1.1992-0.73437-1.9297-0.92969-2.125-0.80469-0.68359-1.418-0.83203-2.9102-1.0977-0.66016-0.125-2.2969-0.44141-2.2969-1.7852 0-0.70703 0.46484-1.7305 2.4961-1.7305 2.4414 0 2.5664 2.0742 2.6133 2.7812 0.023437 0.17188 0.17188 0.17188 0.24609 0.17188 0.24219 0 0.24219-0.097656 0.24219-0.51172z"/>
  <path transform="matrix(1.5647 0 0 -1.5625 117.26 14.603)" d="m9.6414-94.682 23.017-23.015" fill="none" stroke="#000" stroke-miterlimit="10" stroke-width=".3985"/>
 </g>
</svg>
