<?xml version="1.0" encoding="UTF-8"?>
<svg width="274px" height="231px" version="1.1" viewBox="0 0 274 231" xmlns="http://www.w3.org/2000/svg">
 <g id="surface1">
  <path d="m76.008 9.2891h2.5156c-0.58594 2.5117-0.97656 4.1445-0.97656 5.9258 0 0.31641 0 2.7305 0.92969 2.7305 0.46484 0 0.87891-0.41406 0.87891-0.80469 0-0.097656 0-0.14844-0.17188-0.48828-0.60938-1.5352-0.60938-3.4609-0.60938-3.6328 0-0.12109 0-1.707 0.48828-3.7305h2.4922c0.29297 0 1.0508 0 1.0508-0.70703 0-0.51172-0.44141-0.51172-0.83203-0.51172h-7.3789c-0.51172 0-1.293 0-2.3203 1.0977-0.58594 0.65625-1.293 1.8516-1.293 1.9727 0 0.14844 0.097656 0.17188 0.24219 0.17188 0.14844 0 0.17187-0.046875 0.29297-0.19531 1.1758-1.8281 2.3242-1.8281 2.8828-1.8281h1.2969c-0.51562 1.6836-1.0508 3.6328-2.9062 7.5352-0.17188 0.36328-0.17188 0.41406-0.17188 0.53516 0 0.48828 0.39062 0.58594 0.60938 0.58594 0.63672 0 0.83203-0.58594 1.1016-1.5117 0.33984-1.1484 0.33984-1.1953 0.58594-2.0977z"/>
  <path d="m87.832 19.914c0.074219 0.60938 0.48828 1.2656 1.2227 1.2656 0.33984 0 1.293-0.21875 1.293-1.4883v-0.875h-0.39062v0.875c0 0.90234-0.39062 1-0.5625 1-0.51172 0-0.58594-0.70703-0.58594-0.77734v-3.0977c0-0.66016 0-1.2695-0.5625-1.8516-0.60938-0.60938-1.3906-0.85547-2.125-0.85547-1.293 0-2.3711 0.73047-2.3711 1.7539 0 0.46484 0.32031 0.73438 0.73438 0.73438 0.44141 0 0.70703-0.31641 0.70703-0.70703 0-0.19531-0.070312-0.70703-0.80469-0.70703 0.44141-0.5625 1.1953-0.73438 1.6875-0.73438 0.78125 0 1.6602 0.61328 1.6602 2v0.5625c-0.80859 0.046875-1.8828 0.097656-2.8594 0.55859-1.1719 0.53906-1.5625 1.3438-1.5625 2.0234 0 1.2695 1.5156 1.6602 2.4922 1.6602 1.0234 0 1.7344-0.63281 2.0273-1.3398zm-0.097656-2.5625v1.5625c0 1.4609-1.125 2-1.832 2-0.75781 0-1.3945-0.53906-1.3945-1.3203 0-0.85156 0.66016-2.1445 3.2266-2.2422z"/>
  <path d="m96.523 19.863v1.3906l2.2461-0.17188v-0.48828c-1.0742 0-1.1953-0.097656-1.1953-0.875v-5.5117l-2.2969 0.17188v0.48828c1.0742 0 1.2227 0.097656 1.2227 0.875v2.7578c0 1.3633-0.75781 2.4141-1.9062 2.4141-1.293 0-1.3672-0.73437-1.3672-1.5391v-5.168l-2.2969 0.17188v0.48828c1.2227 0 1.2227 0.046874 1.2227 1.4141v2.3398c0 1.2188 0 2.6328 2.3672 2.6328 0.87891 0 1.5664-0.4375 2.0039-1.3906z"/>
  <path d="m101.78 14.867h2.25v-0.48828h-2.25v-2.8555h-0.39062c0 1.2695-0.46484 2.9258-2.0039 3v0.34375h1.3203v4.2891c0 1.9023 1.4648 2.0977 2.0273 2.0977 1.1016 0 1.5391-1.0977 1.5391-2.0977v-0.87891h-0.39063v0.85547c0 1.1445-0.46484 1.7305-1.0508 1.7305-1.0508 0-1.0508-1.4141-1.0508-1.6836z"/>
  <path d="m106.86 19.914c0 0.67969-0.17188 0.67969-1.2227 0.67969v0.48828c0.5625-0.023437 1.3438-0.046875 1.7852-0.046875 0.39062 0 1.1953 0.023438 1.7344 0.046875v-0.48828c-1.0508 0-1.2227 0-1.2227-0.67969v-2.8789c0-1.6094 1.125-2.4883 2.1016-2.4883 1 0 1.1719 0.83203 1.1719 1.7344v3.6328c0 0.67969-0.17188 0.67969-1.2188 0.67969v0.48828c0.53516-0.023437 1.3398-0.046875 1.7578-0.046875 0.39062 0 1.2227 0.023438 1.7344 0.046875v-0.48828c-0.80859 0-1.1992 0-1.1992-0.46094v-2.9766c0-1.3398 0-1.8047-0.48828-2.3633-0.21875-0.26953-0.73047-0.58594-1.6367-0.58594-1.3164 0-2.0039 0.92578-2.2695 1.5352v-5.4609l-2.25 0.17188v0.48828c1.1016 0 1.2227 0.097656 1.2227 0.875z"/>
  <path d="m121.14 17.742c0-1.9727-1.5391-3.6328-3.4219-3.6328-1.9531 0-3.4688 1.707-3.4688 3.6328 0 2.0234 1.6133 3.5117 3.4453 3.5117 1.8828 0 3.4453-1.5352 3.4453-3.5117zm-3.4219 3.1211c-0.68359 0-1.3672-0.31641-1.7812-1.0469-0.39062-0.68359-0.39062-1.6367-0.39062-2.1953 0-0.60938 0-1.4375 0.36719-2.1211 0.41406-0.70703 1.1484-1.0508 1.7812-1.0508 0.68359 0 1.3438 0.34375 1.7578 1.0273 0.41797 0.65625 0.41797 1.5586 0.41797 2.1445 0 0.55859 0 1.4141-0.34375 2.0977-0.36719 0.70703-1.0508 1.1445-1.8086 1.1445z"/>
  <path d="m124.21 15.914v-1.707l-2.1758 0.17188v0.48828c1.1016 0 1.2227 0.097656 1.2227 0.875v4.1719c0 0.67969-0.17187 0.67969-1.2227 0.67969v0.48828c0.61328-0.023437 1.3438-0.046875 1.7852-0.046875 0.60938 0 1.3438 0 1.9766 0.046875v-0.48828h-0.33984c-1.1484 0-1.1719-0.16797-1.1719-0.73047v-2.3906c0-1.5352 0.65625-2.9258 1.832-2.9258 0.097656 0 0.14453 0 0.16797 0.027344-0.046875 0-0.36328 0.19531-0.36328 0.60938 0 0.41406 0.33984 0.65625 0.68359 0.65625 0.26562 0 0.66016-0.19531 0.66016-0.68359 0-0.48438-0.49219-0.94922-1.1484-0.94922-1.1484 0-1.7109 1.0469-1.9062 1.707z"/>
  <path d="m130.88 21.059c0-0.97656-0.39062-1.6328-1.0039-1.6328-0.5625 0-0.82812 0.4375-0.82812 0.82812 0 0.41406 0.26562 0.82812 0.82812 0.82812 0.24609 0 0.44141-0.097656 0.58594-0.21875l0.027344-0.023437c0.023437 0 0.023437 0 0.023437 0.21875 0 1-0.41797 1.9492-1.1016 2.6836-0.097656 0.097656-0.12109 0.12109-0.12109 0.16797 0 0.12109 0.074219 0.17188 0.14844 0.17188 0.19531 0 1.4414-1.2188 1.4414-3.0234z"/>
  <path d="m139.9 14.867h2.25v-0.48828h-2.25v-2.8555h-0.39063c0 1.2695-0.46484 2.9258-2.0039 3v0.34375h1.3203v4.2891c0 1.9023 1.4648 2.0977 2.0273 2.0977 1.1016 0 1.5391-1.0977 1.5391-2.0977v-0.87891h-0.39062v0.85547c0 1.1445-0.46484 1.7305-1.0508 1.7305-1.0508 0-1.0508-1.4141-1.0508-1.6836z"/>
  <path d="m146.03 14.207-2.1758 0.17188v0.48828c1.0039 0 1.1484 0.097656 1.1484 0.85156v4.1953c0 0.67969-0.17188 0.67969-1.2227 0.67969v0.48828c0.48828-0.023437 1.3438-0.046875 1.7109-0.046875 0.5625 0 1.1016 0.023438 1.6367 0.046875v-0.48828c-1.0508 0-1.0977-0.070312-1.0977-0.67969zm0.046875-2.707c0-0.48828-0.36719-0.82812-0.80469-0.82812-0.48828 0-0.83203 0.41406-0.83203 0.82812s0.34375 0.82812 0.83203 0.82812c0.4375 0 0.80469-0.33984 0.80469-0.82812z"/>
  <path d="m150.29 14.867h2.2461v-0.48828h-2.2461v-2.8555h-0.39062c0 1.2695-0.46484 2.9258-2.0039 3v0.34375h1.3203v4.2891c0 1.9023 1.4648 2.0977 2.0273 2.0977 1.0977 0 1.5391-1.0977 1.5391-2.0977v-0.87891h-0.39062v0.85547c0 1.1445-0.46484 1.7305-1.0508 1.7305-1.0508 0-1.0508-1.4141-1.0508-1.6836z"/>
  <path d="m156.41 10.281-2.2461 0.17188v0.48828c1.0977 0 1.2227 0.097656 1.2227 0.875v8.0977c0 0.67969-0.17188 0.67969-1.2227 0.67969v0.48828c0.51172-0.023437 1.3438-0.046875 1.7344-0.046875s1.1484 0.023438 1.7344 0.046875v-0.48828c-1.0508 0-1.2227 0-1.2227-0.67969z"/>
  <path d="m159.71 17.156c0.097656-2.3164 1.418-2.707 1.957-2.707 1.5859 0 1.7578 2.0977 1.7578 2.707zm0 0.34375h4.3516c0.33984 0 0.39062 0 0.39062-0.34375 0-1.5352-0.85547-3.0469-2.7852-3.0469-1.8086 0-3.25 1.6094-3.25 3.5586 0 2.0742 1.6367 3.5859 3.4219 3.5859 1.9023 0 2.6133-1.7305 2.6133-2.0234 0-0.14844-0.125-0.19531-0.22266-0.19531-0.12109 0-0.16797 0.097656-0.19531 0.21875-0.53516 1.6094-1.9531 1.6094-2.0977 1.6094-0.78516 0-1.3945-0.46484-1.7617-1.0469-0.46484-0.73438-0.46484-1.7578-0.46484-2.3164z"/>
  <path d="m168.08 21.059c0-0.97656-0.39062-1.6328-1.0039-1.6328-0.5625 0-0.82812 0.4375-0.82812 0.82812 0 0.41406 0.26562 0.82812 0.82812 0.82812 0.24609 0 0.44141-0.097656 0.58594-0.21875l0.027344-0.023437c0.023438 0 0.023438 0 0.023438 0.21875 0 1-0.41797 1.9492-1.1016 2.6836-0.097656 0.097656-0.12109 0.12109-0.12109 0.16797 0 0.12109 0.074218 0.17188 0.14844 0.17188 0.19531 0 1.4414-1.2188 1.4414-3.0234z"/>
  <path d="m180.91 15.863c0.39062-0.99609 1.1953-0.99609 1.4414-0.99609v-0.48828c-0.36719 0.023438-0.80859 0.046875-1.1758 0.046875-0.26562 0-1-0.023437-1.3438-0.046875v0.48828c0.48828 0 0.73438 0.26562 0.73438 0.65625 0 0.17187-0.023437 0.19531-0.097656 0.39062l-1.5898 3.8047-1.707-4.1719c-0.074219-0.16797-0.097656-0.21875-0.097656-0.29297 0-0.38672 0.55859-0.38672 0.87891-0.38672v-0.48828c-0.41797 0.023438-1.4414 0.046875-1.7109 0.046875-0.41406 0-1.0508-0.023437-1.5156-0.046875v0.48828c0.75781 0 1.0508 0 1.2695 0.53516l2.3477 5.6797c-0.097656 0.19531-0.31641 0.70703-0.39062 0.92578-0.34375 0.85547-0.78125 1.9258-1.7852 1.9258-0.074219 0-0.4375 0-0.73047-0.28906 0.48828-0.050781 0.60938-0.39062 0.60938-0.66016 0-0.39062-0.29297-0.63281-0.66016-0.63281-0.31641 0-0.66016 0.19531-0.66016 0.65625 0 0.70703 0.66016 1.2695 1.4414 1.2695 0.97656 0 1.6133-0.90234 1.9805-1.7812z"/>
  <path d="m183.95 17.156c0.097656-2.3164 1.418-2.707 1.957-2.707 1.5859 0 1.7578 2.0977 1.7578 2.707zm0 0.34375h4.3516c0.33984 0 0.39062 0 0.39062-0.34375 0-1.5352-0.85547-3.0469-2.7852-3.0469-1.8086 0-3.25 1.6094-3.25 3.5586 0 2.0742 1.6367 3.5859 3.418 3.5859 1.9062 0 2.6172-1.7305 2.6172-2.0234 0-0.14844-0.125-0.19531-0.22266-0.19531-0.12109 0-0.16797 0.097656-0.19531 0.21875-0.53516 1.6094-1.9531 1.6094-2.1016 1.6094-0.78125 0-1.3906-0.46484-1.7578-1.0469-0.46484-0.73438-0.46484-1.7578-0.46484-2.3164z"/>
  <path d="m194.32 19.914c0.074219 0.60938 0.48828 1.2656 1.2227 1.2656 0.34375 0 1.293-0.21875 1.293-1.4883v-0.875h-0.39063v0.875c0 0.90234-0.39062 1-0.55859 1-0.51562 0-0.58984-0.70703-0.58984-0.77734v-3.0977c0-0.66016 0-1.2695-0.55859-1.8516-0.61328-0.60938-1.3945-0.85547-2.1289-0.85547-1.293 0-2.3672 0.73047-2.3672 1.7539 0 0.46484 0.31641 0.73438 0.73047 0.73438 0.44141 0 0.71094-0.31641 0.71094-0.70703 0-0.19531-0.074219-0.70703-0.80859-0.70703 0.44141-0.5625 1.1992-0.73438 1.6875-0.73438 0.78125 0 1.6602 0.61328 1.6602 2v0.5625c-0.80469 0.046875-1.8789 0.097656-2.8594 0.55859-1.1719 0.53906-1.5625 1.3438-1.5625 2.0234 0 1.2695 1.5156 1.6602 2.4922 1.6602 1.0273 0 1.7344-0.63281 2.0273-1.3398zm-0.097656-2.5625v1.5625c0 1.4609-1.1211 2-1.832 2-0.75781 0-1.3906-0.53906-1.3906-1.3203 0-0.85156 0.66016-2.1445 3.2227-2.2422z"/>
  <path d="m199.54 15.914v-1.707l-2.1719 0.17188v0.48828c1.0977 0 1.2188 0.097656 1.2188 0.875v4.1719c0 0.67969-0.16797 0.67969-1.2188 0.67969v0.48828c0.60938-0.023437 1.3438-0.046875 1.7812-0.046875 0.61328 0 1.3438 0 1.9805 0.046875v-0.48828h-0.34375c-1.1484 0-1.1719-0.16797-1.1719-0.73047v-2.3906c0-1.5352 0.66016-2.9258 1.832-2.9258 0.097656 0 0.14844 0 0.17188 0.027344-0.050782 0-0.36719 0.19531-0.36719 0.60938 0 0.41406 0.34375 0.65625 0.68359 0.65625 0.26953 0 0.66016-0.19531 0.66016-0.68359 0-0.48438-0.48828-0.94922-1.1484-0.94922-1.1484 0-1.7109 1.0469-1.9062 1.707z"/>
  <path d="m105.82 75.637c0.29297 0 1.0508 0 1.0508-0.70703 0-0.51172-0.4375-0.51172-0.82813-0.51172h-4.9609c-3.3711 0-5.7891 3.7539-5.7891 6.3867 0 1.9023 1.2227 3.4883 3.25 3.4883 2.6367 0 5.543-2.8281 5.543-6.1953 0-0.875-0.21875-1.7305-0.75781-2.4609zm-7.2539 8.2148c-1.1484 0-1.9805-0.875-1.9805-2.4141 0-1.3398 0.80859-5.8008 4.1055-5.8008 0.97656 0 2.0508 0.46094 2.0508 2.1953 0 0.77734-0.36328 2.6562-1.1484 3.9492-0.80469 1.3398-2.0273 2.0703-3.0273 2.0703z"/>
  <path d="m113.39 82.211c0.39062-0.99609 1.1953-0.99609 1.4414-0.99609v-0.48828c-0.36719 0.023438-0.80469 0.046876-1.1719 0.046876-0.26953 0-1.0039-0.023438-1.3438-0.046876v0.48828c0.48828 0 0.73047 0.26562 0.73047 0.65625 0 0.17188-0.023437 0.19531-0.097656 0.39062l-1.5859 3.8047-1.7109-4.1719c-0.074219-0.16797-0.097656-0.21875-0.097656-0.29297 0-0.38672 0.5625-0.38672 0.87891-0.38672v-0.48828c-0.41406 0.023438-1.4414 0.046876-1.707 0.046876-0.41797 0-1.0508-0.023438-1.5156-0.046876v0.48828c0.75781 0 1.0508 0 1.2695 0.53516l2.3438 5.6797c-0.097657 0.19531-0.31641 0.70703-0.39062 0.92578-0.33984 0.85547-0.78125 1.9258-1.7812 1.9258-0.074219 0-0.44141 0-0.73438-0.28906 0.48828-0.050782 0.60938-0.39063 0.60938-0.66016 0-0.39062-0.29297-0.63281-0.65625-0.63281-0.32031 0-0.66016 0.19531-0.66016 0.65625 0 0.70703 0.66016 1.2695 1.4414 1.2695 0.97656 0 1.6133-0.90234 1.9766-1.7812z"/>
  <path d="m116.44 83.504c0.097656-2.3164 1.418-2.707 1.9531-2.707 1.5898 0 1.7578 2.0977 1.7578 2.707zm0 0.34375h4.3477c0.34375 0 0.39062 0 0.39062-0.34375 0-1.5352-0.85547-3.0469-2.7852-3.0469-1.8086 0-3.25 1.6094-3.25 3.5586 0 2.0742 1.6367 3.5859 3.4219 3.5859 1.9062 0 2.6133-1.7305 2.6133-2.0234 0-0.14844-0.12109-0.19531-0.21875-0.19531-0.12109 0-0.17188 0.097657-0.19531 0.21875-0.53906 1.6094-1.957 1.6094-2.1016 1.6094-0.78125 0-1.3945-0.46484-1.7578-1.0469-0.46484-0.73437-0.46484-1.7578-0.46484-2.3164z"/>
  <path d="m126.8 86.262c0.074218 0.60938 0.48828 1.2656 1.2188 1.2656 0.34375 0 1.2969-0.21875 1.2969-1.4883v-0.875h-0.39062v0.875c0 0.90234-0.39063 1-0.5625 1-0.51172 0-0.58594-0.70703-0.58594-0.77734v-3.0977c0-0.66016 0-1.2695-0.5625-1.8516-0.60938-0.61328-1.3906-0.85547-2.125-0.85547-1.2969 0-2.3711 0.73047-2.3711 1.7539 0 0.46484 0.32031 0.73437 0.73438 0.73437 0.44141 0 0.70703-0.31641 0.70703-0.70703 0-0.19531-0.070312-0.70703-0.80469-0.70703 0.4375-0.5625 1.1953-0.73438 1.6836-0.73438 0.78516 0 1.6641 0.60938 1.6641 2v0.5625c-0.80859 0.046875-1.8828 0.097656-2.8594 0.55859-1.1719 0.53906-1.5625 1.3438-1.5625 2.0234 0 1.2695 1.5117 1.6602 2.4922 1.6602 1.0234 0 1.7344-0.63281 2.0273-1.3398zm-0.097657-2.5625v1.5625c0 1.4609-1.125 1.9961-1.832 1.9961-0.75781 0-1.3945-0.53516-1.3945-1.3164 0-0.85156 0.66016-2.1445 3.2266-2.2422z"/>
  <path d="m132.03 82.262v-1.707l-2.1758 0.17187v0.48828c1.1016 0 1.2227 0.097656 1.2227 0.875v4.1719c0 0.67969-0.17188 0.67969-1.2227 0.67969v0.48828c0.61328-0.023438 1.3438-0.046876 1.7852-0.046876 0.60938 0 1.3438 0 1.9766 0.046876v-0.48828h-0.33984c-1.1484 0-1.1719-0.16797-1.1719-0.73047v-2.3906c0-1.5352 0.66016-2.9258 1.832-2.9258 0.097656 0 0.14453 0 0.17188 0.027344-0.050781 0-0.36719 0.19531-0.36719 0.60938s0.33984 0.65625 0.68359 0.65625c0.26953 0 0.66016-0.19531 0.66016-0.68359 0-0.48438-0.48828-0.94922-1.1484-0.94922-1.1484 0-1.7109 1.0469-1.9062 1.707z"/>
  <path d="m146.05 83.895c0.17188-0.097656 0.29297-0.17188 0.29297-0.36328 0-0.17188-0.12109-0.24609-0.29297-0.34375l-8.6484-4.0469c-0.19531-0.12109-0.21875-0.12109-0.26563-0.12109-0.17187 0-0.32031 0.14453-0.32031 0.31641 0 0.14453 0.074219 0.24219 0.29297 0.33984l8.1836 3.8555-8.1836 3.875c-0.21875 0.097656-0.29297 0.19531-0.29297 0.33984 0 0.17188 0.14844 0.31641 0.32031 0.31641 0.046876 0 0.070313 0 0.26563-0.12109z"/>
  <path d="m152.23 77.484c0-0.39062 0-0.41797-0.36719-0.41797-0.97656 1-2.3438 1-2.832 1v0.48828c0.31641 0 1.2227 0 2.0273-0.41406v8.0703c0 0.5625-0.050782 0.73047-1.4414 0.73047h-0.48828v0.48828c0.53516-0.046876 1.8789-0.046876 2.5156-0.046876 0.60938 0 1.9805 0 2.5156 0.046876v-0.48828h-0.48828c-1.418 0-1.4414-0.16797-1.4414-0.73047z"/>
  <path d="m161.14 82.48v0.51172c0 3.6328-1.6133 4.3398-2.5156 4.3398-0.26953 0-1.125-0.023437-1.5391-0.55859 0.68359 0 0.80469-0.44141 0.80469-0.70703 0-0.48828-0.36719-0.70703-0.70703-0.70703-0.24609 0-0.71094 0.12109-0.71094 0.73047 0 1.0469 0.83203 1.6836 2.1523 1.6836 2.0273 0 3.9297-2.1211 3.9297-5.4648 0-4.1914-1.8047-5.2422-3.1992-5.2422-0.85547 0-1.6133 0.29297-2.2695 0.97656-0.66016 0.70703-1.0039 1.3672-1.0039 2.5352 0 1.9258 1.3672 3.4648 3.1016 3.4648 0.95312 0 1.5898-0.66016 1.957-1.5625zm-1.9297 1.1953c-0.24609 0-0.98047 0-1.4414-0.97656-0.29297-0.58594-0.29297-1.3398-0.29297-2.1211 0-0.82812 0-1.5586 0.33984-2.1445 0.41406-0.78125 1.0039-0.97656 1.5391-0.97656 0.73438 0 1.2461 0.53906 1.5156 1.2188 0.17188 0.51172 0.24219 1.4883 0.24219 2.1953 0 1.293-0.53516 2.8047-1.9023 2.8047z"/>
  <path d="m170.2 84.309c0-1.8516-1.2695-3.4141-2.957-3.4141-0.73438 0-1.418 0.24609-1.9805 0.80469v-3.0469c0.32031 0.097656 0.83203 0.19531 1.3203 0.19531 1.9297 0 3.0312-1.4141 3.0312-1.6094 0-0.097656-0.050781-0.17188-0.17188-0.17188 0 0-0.050781 0-0.12109 0.050782-0.32031 0.14453-1.0781 0.46484-2.125 0.46484-0.61328 0-1.3438-0.125-2.0781-0.44141-0.12109-0.046875-0.14844-0.046875-0.17188-0.046875-0.17187 0-0.17187 0.12109-0.17187 0.36328v4.6094c0 0.26953 0 0.39062 0.22266 0.39062 0.12109 0 0.14453-0.023437 0.21875-0.12109 0.17188-0.24609 0.73438-1.0977 2.0039-1.0977 0.80469 0 1.1953 0.70703 1.3164 1 0.24609 0.58203 0.29688 1.168 0.29688 1.9492 0 0.5625 0 1.4883-0.39453 2.1445-0.36328 0.60938-0.94922 1-1.6602 1-1.1211 0-2.0273-0.82812-2.2969-1.7305 0.050781 0 0.097656 0.023438 0.26953 0.023438 0.51172 0 0.78125-0.39062 0.78125-0.75391 0-0.39062-0.26953-0.78125-0.78125-0.78125-0.21875 0-0.75781 0.12109-0.75781 0.82812 0 1.3438 1.0742 2.8555 2.8086 2.8555 1.8086 0 3.3984-1.4883 3.3984-3.4648z"/>
  <path d="m178.16 82.457c0-1.2422-0.070312-2.4883-0.60938-3.6328-0.70703-1.5117-2.0039-1.7578-2.6367-1.7578-0.95312 0-2.0781 0.41797-2.7383 1.8555-0.48828 1.0703-0.5625 2.293-0.5625 3.5352 0 1.168 0.050781 2.5586 0.71094 3.7539 0.66016 1.2422 1.8047 1.5625 2.5625 1.5625 0.83203 0 2.0273-0.32031 2.7148-1.8047 0.48828-1.0742 0.55859-2.293 0.55859-3.5117zm-3.2734 4.9727c-0.60937 0-1.5391-0.39063-1.8047-1.875-0.17188-0.92969-0.17188-2.3672-0.17188-3.293 0-1 0-2.0234 0.12109-2.8516 0.29297-1.8555 1.4648-2 1.8555-2 0.51563 0 1.5391 0.29297 1.832 1.8281 0.17188 0.87891 0.17188 2.0469 0.17188 3.0234 0 1.1719 0 2.2188-0.17188 3.2188-0.24219 1.4883-1.1211 1.9492-1.832 1.9492z"/>
  <path transform="matrix(1.5635 0 0 -1.5604 137 16.096)" d="m-4.9591e-4 -10.012v-22.492" fill="none" stroke="#000" stroke-miterlimit="10" stroke-width=".3985"/>
  <path d="m17.145 147.41-4.4727-4.4609c-0.29297-0.26953-0.31641-0.31641-0.51172-0.31641-0.21875 0-0.44141 0.21875-0.44141 0.46484 0 0.16797 0.097656 0.26562 0.32031 0.48438l4.4453 4.4648-4.4453 4.4102c-0.24609 0.24609-0.32031 0.39062-0.32031 0.51172 0 0.24609 0.22266 0.46484 0.44141 0.46484 0.19531 0 0.21875-0.046876 0.51172-0.31641l4.4453-4.4609c1.1016 1.0703 4.375 4.3633 4.668 4.6328 0.023438 0.046875 0.17188 0.14453 0.31641 0.14453 0.44141 0 0.44141-0.41406 0.44141-0.78125v-9.2383c0-0.36719 0-0.78125-0.44141-0.78125-0.16797 0-0.26562 0.097656-0.48828 0.31641zm0.66016 0.63672 3.8594-3.8789v7.707z"/>
  <path d="m22.469 143.58c0.29297-0.26562 0.31641-0.31641 0.31641-0.48438 0-0.24609-0.19531-0.46484-0.44141-0.46484-0.16797 0-0.26562 0.097656-0.48828 0.31641l-4.4688 4.4609-4.4727-4.4609c-0.29297-0.26953-0.31641-0.31641-0.51172-0.31641-0.44141 0-0.44141 0.4375-0.44141 0.80469v9.1914c0 0.36719 0 0.80469 0.44141 0.80469 0.19531 0 0.21875-0.046876 0.51172-0.31641l4.4453-4.4609c1.1016 1.0703 4.375 4.3633 4.668 4.6328 0.023437 0.046875 0.17188 0.14453 0.31641 0.14453 0.26953 0 0.44141-0.21875 0.44141-0.46484 0-0.023438 0-0.14453-0.097656-0.28906-0.14844-0.14844-3.4922-3.4648-4.6406-4.6328zm-9.6016 8.3164v-7.707l3.8594 3.8555z"/>
  <path d="m31.297 155.81c0.074219 0.60938 0.48828 1.2656 1.2227 1.2656 0.33984 0 1.293-0.21875 1.293-1.4883v-0.875h-0.39062v0.875c0 0.90234-0.39062 1-0.5625 1-0.51172 0-0.58594-0.70703-0.58594-0.77734v-3.0977c0-0.66016 0-1.2695-0.5625-1.8516-0.60938-0.60938-1.3906-0.85547-2.125-0.85547-1.293 0-2.3672 0.73047-2.3672 1.7578 0 0.46094 0.31641 0.73047 0.73047 0.73047 0.44141 0 0.71094-0.31641 0.71094-0.70703 0-0.19531-0.074218-0.70703-0.80859-0.70703 0.44141-0.5625 1.1992-0.73047 1.6875-0.73047 0.78125 0 1.6602 0.60938 1.6602 1.9961v0.5625c-0.80469 0.046875-1.8828 0.097656-2.8594 0.55859-1.1719 0.53906-1.5625 1.3438-1.5625 2.0273 0 1.2656 1.5156 1.6562 2.4922 1.6562 1.0273 0 1.7344-0.63281 2.0273-1.3398zm-0.097656-2.5625v1.5625c0 1.4609-1.125 2-1.832 2-0.75781 0-1.3906-0.53906-1.3906-1.3164 0-0.85547 0.65625-2.1484 3.2227-2.2461z"/>
  <path d="m39.988 155.76v1.3906l2.25-0.17188v-0.48828c-1.0742 0-1.1992-0.097657-1.1992-0.875v-5.5117l-2.2969 0.17188v0.48828c1.0781 0 1.2227 0.097656 1.2227 0.875v2.7578c0 1.3633-0.75781 2.4141-1.9062 2.4141-1.293 0-1.3672-0.73438-1.3672-1.5391v-5.168l-2.2969 0.17188v0.48828c1.2227 0 1.2227 0.046875 1.2227 1.4141v2.3398c0 1.2188 0 2.6328 2.3672 2.6328 0.88281 0 1.5664-0.4375 2.0039-1.3906z"/>
  <path d="m45.25 150.77h2.2461v-0.48828h-2.2461v-2.8516h-0.39453c0 1.2656-0.46094 2.9258-2 2.9961v0.34375h1.3164v4.2891c0 1.9023 1.4688 2.0977 2.0273 2.0977 1.1016 0 1.5391-1.0977 1.5391-2.0977v-0.87891h-0.39062v0.85547c0 1.1445-0.46094 1.7305-1.0508 1.7305-1.0469 0-1.0469-1.4141-1.0469-1.6836z"/>
  <path d="m50.328 155.81c0 0.67969-0.17188 0.67969-1.2227 0.67969v0.48828c0.5625-0.023438 1.3438-0.046875 1.7852-0.046875 0.39062 0 1.1953 0.023437 1.7344 0.046875v-0.48828c-1.0508 0-1.2227 0-1.2227-0.67969v-2.8789c0-1.6094 1.125-2.4883 2.1016-2.4883 1.0039 0 1.1719 0.83203 1.1719 1.7344v3.6328c0 0.67969-0.16797 0.67969-1.2188 0.67969v0.48828c0.53516-0.023438 1.3438-0.046875 1.7578-0.046875 0.39062 0 1.2227 0.023437 1.7344 0.046875v-0.48828c-0.80469 0-1.1953 0-1.1953-0.46094v-2.9766c0-1.3398 0-1.8047-0.48828-2.3633-0.22266-0.26953-0.73438-0.58594-1.6406-0.58594-1.3164 0-2 0.92578-2.2695 1.5352v-5.4609l-2.25 0.17187v0.48828c1.1016 0 1.2227 0.097656 1.2227 0.875z"/>
  <path d="m64.602 153.64c0-1.9727-1.5391-3.6328-3.418-3.6328-1.957 0-3.4688 1.707-3.4688 3.6328 0 2.0234 1.6094 3.5117 3.4414 3.5117 1.8828 0 3.4453-1.5352 3.4453-3.5117zm-3.418 3.1211c-0.68359 0-1.3711-0.31641-1.7852-1.0469-0.39063-0.68359-0.39063-1.6367-0.39063-2.1953 0-0.60938 0-1.4375 0.36719-2.1211 0.41406-0.70703 1.1484-1.0469 1.7812-1.0469 0.68359 0 1.3438 0.33984 1.7617 1.0234 0.41406 0.65625 0.41406 1.5586 0.41406 2.1445 0 0.55859 0 1.4141-0.34375 2.0977-0.36328 0.70703-1.0508 1.1445-1.8047 1.1445z"/>
  <path d="m67.676 151.81v-1.707l-2.1758 0.17188v0.48828c1.1016 0 1.2227 0.097656 1.2227 0.875v4.1719c0 0.67969-0.17188 0.67969-1.2227 0.67969v0.48828c0.61328-0.023438 1.3438-0.046875 1.7852-0.046875 0.60938 0 1.3438 0 1.9805 0.046875v-0.48828h-0.34375c-1.1484 0-1.1719-0.16797-1.1719-0.73047v-2.3906c0-1.5352 0.66016-2.9258 1.832-2.9258 0.097657 0 0.14453 0 0.17188 0.027344-0.050781 0-0.36719 0.19531-0.36719 0.60938 0 0.41406 0.33984 0.65625 0.68359 0.65625 0.26953 0 0.66016-0.19531 0.66016-0.67969 0-0.48828-0.48828-0.95312-1.1484-0.95312-1.1484 0-1.7109 1.0469-1.9062 1.707z"/>
  <path d="m74.414 153.96c0.33984 0.074219 1.6094 0.31641 1.6094 1.4414 0 0.77734-0.53516 1.4141-1.7578 1.4141-1.3203 0-1.8828-0.87891-2.1758-2.2188-0.046875-0.19531-0.046875-0.24609-0.21875-0.24609-0.19531 0-0.19531 0.097656-0.19531 0.36719v2.0703c0 0.26953 0 0.36719 0.17188 0.36719 0.074219 0 0.097656-0.023438 0.39062-0.31641 0.023438-0.023438 0.023438-0.050782 0.31641-0.34375 0.68359 0.63672 1.3945 0.66016 1.7109 0.66016 1.7852 0 2.5156-1.0469 2.5156-2.1719 0-0.80469-0.46484-1.2891-0.66016-1.4609-0.51172-0.51172-1.1211-0.63281-1.7812-0.75781-0.87891-0.16797-1.9062-0.36328-1.9062-1.2656 0-0.5625 0.39062-1.1953 1.7344-1.1953 1.7109 0 1.8086 1.4141 1.832 1.8789 0 0.14453 0.14844 0.14453 0.17188 0.14453 0.21875 0 0.21875-0.074219 0.21875-0.36719v-1.582c0-0.24609 0-0.36719-0.17188-0.36719-0.070312 0-0.12109 0-0.31641 0.19531-0.046875 0.050781-0.19531 0.19531-0.26953 0.24219-0.58594-0.4375-1.2188-0.4375-1.4648-0.4375-1.9062 0-2.4922 1.0508-2.4922 1.9258 0 0.53906 0.24609 0.97656 0.66016 1.3164 0.51172 0.39062 0.95312 0.48828 2.0781 0.70703z"/>
  <path d="m80.289 156.15c0-0.4375-0.36719-0.82812-0.80859-0.82812-0.46484 0-0.83203 0.39062-0.83203 0.82812 0 0.46484 0.36719 0.82812 0.83203 0.82812 0.44141 0 0.80859-0.36328 0.80859-0.82812z"/>
  <path d="m86.812 155.81c0.074219 0.60938 0.48828 1.2656 1.2227 1.2656 0.33984 0 1.293-0.21875 1.293-1.4883v-0.875h-0.39062v0.875c0 0.90234-0.39062 1-0.5625 1-0.51172 0-0.58594-0.70703-0.58594-0.77734v-3.0977c0-0.66016 0-1.2695-0.5625-1.8516-0.60937-0.60938-1.3906-0.85547-2.125-0.85547-1.293 0-2.3672 0.73047-2.3672 1.7578 0 0.46094 0.31641 0.73047 0.73047 0.73047 0.44141 0 0.71094-0.31641 0.71094-0.70703 0-0.19531-0.074219-0.70703-0.80859-0.70703 0.44141-0.5625 1.1992-0.73047 1.6875-0.73047 0.78125 0 1.6602 0.60938 1.6602 1.9961v0.5625c-0.80469 0.046875-1.8789 0.097656-2.8594 0.55859-1.1719 0.53906-1.5625 1.3438-1.5625 2.0273 0 1.2656 1.5156 1.6562 2.4922 1.6562 1.0273 0 1.7344-0.63281 2.0273-1.3398zm-0.097656-2.5625v1.5625c0 1.4609-1.125 2-1.832 2-0.75781 0-1.3906-0.53906-1.3906-1.3164 0-0.85547 0.65625-2.1484 3.2227-2.2461z"/>
  <path d="m95.504 155.76v1.3906l2.25-0.17188v-0.48828c-1.0742 0-1.1992-0.097657-1.1992-0.875v-5.5117l-2.2969 0.17188v0.48828c1.0781 0 1.2227 0.097656 1.2227 0.875v2.7578c0 1.3633-0.75781 2.4141-1.9062 2.4141-1.293 0-1.3672-0.73438-1.3672-1.5391v-5.168l-2.2969 0.17188v0.48828c1.2227 0 1.2227 0.046875 1.2227 1.4141v2.3398c0 1.2188 0 2.6328 2.3711 2.6328 0.87891 0 1.5625-0.4375 2-1.3906z"/>
  <path d="m100.77 150.77h2.2461v-0.48828h-2.2461v-2.8516h-0.39062c0 1.2656-0.46484 2.9258-2.0039 2.9961v0.34375h1.3164v4.2891c0 1.9023 1.4688 2.0977 2.0312 2.0977 1.0977 0 1.5391-1.0977 1.5391-2.0977v-0.87891h-0.39453v0.85547c0 1.1445-0.46094 1.7305-1.0469 1.7305-1.0508 0-1.0508-1.4141-1.0508-1.6836z"/>
  <path d="m105.84 155.81c0 0.67969-0.16797 0.67969-1.2188 0.67969v0.48828c0.55859-0.023438 1.3438-0.046875 1.7812-0.046875 0.39062 0 1.1992 0.023437 1.7344 0.046875v-0.48828c-1.0508 0-1.2227 0-1.2227-0.67969v-2.8789c0-1.6094 1.125-2.4883 2.1016-2.4883 1.0039 0 1.1758 0.83203 1.1758 1.7344v3.6328c0 0.67969-0.17187 0.67969-1.2227 0.67969v0.48828c0.53516-0.023438 1.3438-0.046875 1.7578-0.046875 0.39062 0 1.2227 0.023437 1.7344 0.046875v-0.48828c-0.80469 0-1.1953 0-1.1953-0.46094v-2.9766c0-1.3398 0-1.8047-0.48828-2.3633-0.22266-0.26953-0.73438-0.58594-1.6367-0.58594-1.3203 0-2.0039 0.92578-2.2734 1.5352v-5.4609l-2.2461 0.17187v0.48828c1.0977 0 1.2188 0.097656 1.2188 0.875z"/>
  <path d="m120.12 153.64c0-1.9727-1.5391-3.6328-3.418-3.6328-1.957 0-3.4688 1.707-3.4688 3.6328 0 2.0234 1.6094 3.5117 3.4414 3.5117 1.8828 0 3.4453-1.5352 3.4453-3.5117zm-3.418 3.1211c-0.68359 0-1.3711-0.31641-1.7852-1.0469-0.39062-0.68359-0.39062-1.6367-0.39062-2.1953 0-0.60938 0-1.4375 0.36719-2.1211 0.41406-0.70703 1.1484-1.0469 1.7812-1.0469 0.6875 0 1.3438 0.33984 1.7617 1.0234 0.41406 0.65625 0.41406 1.5586 0.41406 2.1445 0 0.55859 0 1.4141-0.33984 2.0977-0.36719 0.70703-1.0508 1.1445-1.8086 1.1445z"/>
  <path d="m123.19 151.81v-1.707l-2.1758 0.17188v0.48828c1.1016 0 1.2227 0.097656 1.2227 0.875v4.1719c0 0.67969-0.17188 0.67969-1.2227 0.67969v0.48828c0.61328-0.023438 1.3438-0.046875 1.7852-0.046875 0.60938 0 1.3438 0 1.9805 0.046875v-0.48828h-0.34375c-1.1484 0-1.1719-0.16797-1.1719-0.73047v-2.3906c0-1.5352 0.66016-2.9258 1.832-2.9258 0.097656 0 0.14453 0 0.17188 0.027344-0.050781 0-0.36719 0.19531-0.36719 0.60938 0 0.41406 0.33984 0.65625 0.68359 0.65625 0.26953 0 0.66016-0.19531 0.66016-0.67969 0-0.48828-0.48828-0.95312-1.1484-0.95312-1.1484 0-1.7109 1.0469-1.9062 1.707z"/>
  <path transform="matrix(1.5635 0 0 -1.5604 127.61 156.67)" d="m-0.0030152 0.0018895h2.993" fill="none" stroke="#000" stroke-miterlimit="10" stroke-width=".398"/>
  <path d="m135.04 150.11-2.1719 0.17188v0.48828c1 0 1.1484 0.097656 1.1484 0.85156v4.1953c0 0.67969-0.17188 0.67969-1.2227 0.67969v0.48828c0.48828-0.023438 1.3438-0.046875 1.7109-0.046875 0.5625 0 1.0977 0.023437 1.6367 0.046875v-0.48828c-1.0508 0-1.1016-0.070313-1.1016-0.67969zm0.050781-2.707c0-0.48828-0.36719-0.82813-0.80859-0.82813-0.48828 0-0.82812 0.41406-0.82812 0.82813 0 0.41406 0.33984 0.82812 0.82812 0.82812 0.44141 0 0.80859-0.33984 0.80859-0.82812z"/>
  <path d="m142.52 156.13v1.0234l2.2969-0.17188v-0.48828c-1.0742 0-1.2227-0.097657-1.2227-0.875v-9.4375l-2.2227 0.17187v0.48828c1.0742 0 1.1953 0.097656 1.1953 0.875v3.3672c-0.4375-0.5625-1.1211-0.97656-1.9531-0.97656-1.832 0-3.4688 1.5352-3.4688 3.5352 0 1.9766 1.5156 3.5117 3.2969 3.5117 1.0039 0 1.6875-0.53516 2.0781-1.0234zm0-4.1719v3.1953c0 0.26953 0 0.29297-0.17188 0.5625-0.46484 0.75391-1.1484 1.0977-1.832 1.0977-0.70703 0-1.2695-0.41797-1.6367-1-0.39062-0.63672-0.44141-1.5117-0.44141-2.1719 0-0.55859 0.027344-1.4883 0.46484-2.1953 0.34375-0.48437 0.92969-1 1.7852-1 0.53516 0 1.1953 0.24609 1.6602 0.92969 0.17188 0.26562 0.17188 0.29297 0.17188 0.58203z"/>
  <path d="m155.96 151.89c0.24609 0 0.53906 0 0.53906-0.29297 0-0.31641-0.29297-0.31641-0.51172-0.31641h-9.3359c-0.21875 0-0.51172 0-0.51172 0.31641 0 0.29297 0.29297 0.29297 0.51172 0.29297zm0.027344 3.0234c0.21875 0 0.51172 0 0.51172-0.31641 0-0.29297-0.29297-0.29297-0.53906-0.29297h-9.3086c-0.21875 0-0.51172 0-0.51172 0.29297 0 0.31641 0.29297 0.31641 0.51172 0.31641z"/>
  <path d="m160.07 151.11v-4.9258l-2.25 0.17187v0.48828c1.1016 0 1.2227 0.097656 1.2227 0.875v9.2656h0.39062c0-0.023438 0.12109-0.24219 0.5625-0.97266 0.21875 0.36328 0.87891 1.1445 2.0273 1.1445 1.8555 0 3.4688-1.5352 3.4688-3.5352 0-1.9766-1.5156-3.5117-3.2969-3.5117-1.2227 0-1.8828 0.73047-2.125 1zm0.046876 4.0977v-3.1953c0-0.29297 0-0.31641 0.17187-0.5625 0.60938-0.875 1.4648-1 1.832-1 0.70703 0 1.2695 0.41797 1.6367 1 0.41406 0.63672 0.4375 1.5117 0.4375 2.1719 0 0.55859-0.023437 1.4883-0.46094 2.1953-0.34375 0.48438-0.92969 1-1.7617 1-0.70703 0-1.2695-0.36719-1.6367-0.95312-0.21875-0.31641-0.21875-0.36328-0.21875-0.65625z"/>
  <path d="m173.8 153.64c0-1.9727-1.5391-3.6328-3.4219-3.6328-1.9531 0-3.4688 1.707-3.4688 3.6328 0 2.0234 1.6133 3.5117 3.4453 3.5117 1.8828 0 3.4453-1.5352 3.4453-3.5117zm-3.4219 3.1211c-0.68359 0-1.3672-0.31641-1.7812-1.0469-0.39062-0.68359-0.39062-1.6367-0.39062-2.1953 0-0.60938 0-1.4375 0.36719-2.1211 0.41406-0.70703 1.1484-1.0469 1.7812-1.0469 0.68359 0 1.3438 0.33984 1.7578 1.0234 0.41797 0.65625 0.41797 1.5586 0.41797 2.1445 0 0.55859 0 1.4141-0.34375 2.0977-0.36719 0.70703-1.0508 1.1445-1.8086 1.1445z"/>
  <path d="m182.01 153.64c0-1.9727-1.5391-3.6328-3.4219-3.6328-1.9531 0-3.4688 1.707-3.4688 3.6328 0 2.0234 1.6133 3.5117 3.4453 3.5117 1.8789 0 3.4453-1.5352 3.4453-3.5117zm-3.4219 3.1211c-0.68359 0-1.3672-0.31641-1.7852-1.0469-0.39063-0.68359-0.39063-1.6367-0.39063-2.1953 0-0.60938 0-1.4375 0.36719-2.1211 0.41406-0.70703 1.1484-1.0469 1.7852-1.0469 0.68359 0 1.3438 0.33984 1.7578 1.0234 0.41406 0.65625 0.41406 1.5586 0.41406 2.1445 0 0.55859 0 1.4141-0.33984 2.0977-0.36719 0.70703-1.0508 1.1445-1.8086 1.1445z"/>
  <path d="m184.13 155.81c0 0.67969-0.16797 0.67969-1.2188 0.67969v0.48828c0.51172-0.023438 1.2461-0.046875 1.6836-0.046875 0.48828 0 1.1016 0.023437 1.7344 0.046875v-0.48828c-1.0508 0-1.2188 0-1.2188-0.67969v-1.6094l1-0.85547c1.1953 1.6328 1.8555 2.5117 1.8555 2.8047 0 0.29297-0.26562 0.33984-0.5625 0.33984v0.48828c0.41797-0.023438 1.3438-0.046875 1.6875-0.046875 0.44141 0 0.90234 0.023437 1.3438 0.046875v-0.48828c-0.58594 0-0.92969 0-1.5156-0.82813l-1.9766-2.7773c-0.027344-0.027344-0.097656-0.125-0.097656-0.17188 0-0.050782 1.1211-1 1.2695-1.1211 0.97656-0.78125 1.6367-0.82812 1.9531-0.82812v-0.48828c-0.4375 0.046875-0.63281 0.046875-1.0742 0.046875-0.5625 0-1.5391-0.023438-1.7578-0.046875v0.48828c0.29297 0 0.46484 0.16797 0.46484 0.38672 0 0.32031-0.22266 0.48828-0.34375 0.61328l-2.1992 1.875v-7.4609l-2.2461 0.17187v0.48828c1.0977 0 1.2188 0.097656 1.2188 0.875z"/>
  <path d="m193.94 153.96c0.33984 0.074219 1.6094 0.31641 1.6094 1.4414 0 0.77734-0.53516 1.4141-1.7578 1.4141-1.3203 0-1.8789-0.87891-2.1758-2.2188-0.046876-0.19531-0.046876-0.24609-0.21875-0.24609-0.19531 0-0.19531 0.097656-0.19531 0.36719v2.0703c0 0.26953 0 0.36719 0.17188 0.36719 0.074219 0 0.097656-0.023438 0.39062-0.31641 0.023437-0.023438 0.023437-0.050782 0.31641-0.34375 0.68359 0.63672 1.3945 0.66016 1.7109 0.66016 1.7852 0 2.5156-1.0469 2.5156-2.1719 0-0.80469-0.46484-1.2891-0.66016-1.4609-0.51172-0.51172-1.1211-0.63281-1.7812-0.75781-0.87891-0.16797-1.9062-0.36328-1.9062-1.2656 0-0.5625 0.39062-1.1953 1.7344-1.1953 1.7109 0 1.8086 1.4141 1.832 1.8789 0 0.14453 0.14844 0.14453 0.17188 0.14453 0.21875 0 0.21875-0.074219 0.21875-0.36719v-1.582c0-0.24609 0-0.36719-0.17188-0.36719-0.070313 0-0.12109 0-0.31641 0.19531-0.046876 0.050781-0.19531 0.19531-0.26953 0.24219-0.58594-0.4375-1.2188-0.4375-1.4648-0.4375-1.9062 0-2.4922 1.0508-2.4922 1.9258 0 0.53906 0.24609 0.97656 0.66016 1.3164 0.51172 0.39062 0.95312 0.48828 2.0781 0.70703z"/>
  <path d="m199.82 156.15c0-0.4375-0.36719-0.82812-0.80859-0.82812-0.46484 0-0.82812 0.39062-0.82812 0.82812 0 0.46484 0.36328 0.82812 0.82812 0.82812 0.44141 0 0.80859-0.36328 0.80859-0.82812z"/>
  <path d="m206.34 155.81c0.074218 0.60938 0.48828 1.2656 1.2227 1.2656 0.33984 0 1.293-0.21875 1.293-1.4883v-0.875h-0.39062v0.875c0 0.90234-0.39062 1-0.5625 1-0.51172 0-0.58594-0.70703-0.58594-0.77734v-3.0977c0-0.66016 0-1.2695-0.55859-1.8516-0.61328-0.60938-1.3945-0.85547-2.1289-0.85547-1.293 0-2.3672 0.73047-2.3672 1.7578 0 0.46094 0.31641 0.73047 0.73047 0.73047 0.44141 0 0.71094-0.31641 0.71094-0.70703 0-0.19531-0.074219-0.70703-0.80859-0.70703 0.44141-0.5625 1.1992-0.73047 1.6875-0.73047 0.78125 0 1.6602 0.60938 1.6602 1.9961v0.5625c-0.80469 0.046875-1.8789 0.097656-2.8594 0.55859-1.1719 0.53906-1.5625 1.3438-1.5625 2.0273 0 1.2656 1.5156 1.6562 2.4922 1.6562 1.0273 0 1.7344-0.63281 2.0273-1.3398zm-0.097656-2.5625v1.5625c0 1.4609-1.1211 2-1.832 2-0.75781 0-1.3906-0.53906-1.3906-1.3164 0-0.85547 0.66016-2.1484 3.2227-2.2461z"/>
  <path d="m215.03 155.76v1.3906l2.25-0.17188v-0.48828c-1.0742 0-1.1992-0.097657-1.1992-0.875v-5.5117l-2.2969 0.17188v0.48828c1.0781 0 1.2227 0.097656 1.2227 0.875v2.7578c0 1.3633-0.75781 2.4141-1.9062 2.4141-1.293 0-1.3672-0.73438-1.3672-1.5391v-5.168l-2.2969 0.17188v0.48828c1.2227 0 1.2227 0.046875 1.2227 1.4141v2.3398c0 1.2188 0 2.6328 2.3711 2.6328 0.87891 0 1.5625-0.4375 2-1.3906z"/>
  <path d="m220.29 150.77h2.2461v-0.48828h-2.2461v-2.8516h-0.39062c0 1.2656-0.46484 2.9258-2.0039 2.9961v0.34375h1.3203v4.2891c0 1.9023 1.4648 2.0977 2.0273 2.0977 1.0977 0 1.5391-1.0977 1.5391-2.0977v-0.87891h-0.39062v0.85547c0 1.1445-0.46484 1.7305-1.0508 1.7305-1.0508 0-1.0508-1.4141-1.0508-1.6836z"/>
  <path d="m225.37 155.81c0 0.67969-0.16797 0.67969-1.2188 0.67969v0.48828c0.55859-0.023438 1.3438-0.046875 1.7812-0.046875 0.39062 0 1.1992 0.023437 1.7344 0.046875v-0.48828c-1.0508 0-1.2188 0-1.2188-0.67969v-2.8789c0-1.6094 1.1211-2.4883 2.0977-2.4883 1.0039 0 1.1758 0.83203 1.1758 1.7344v3.6328c0 0.67969-0.17188 0.67969-1.2227 0.67969v0.48828c0.53516-0.023438 1.3438-0.046875 1.7578-0.046875 0.39063 0 1.2227 0.023437 1.7344 0.046875v-0.48828c-0.80469 0-1.1953 0-1.1953-0.46094v-2.9766c0-1.3398 0-1.8047-0.48828-2.3633-0.22266-0.26953-0.73438-0.58594-1.6367-0.58594-1.3203 0-2.0039 0.92578-2.2734 1.5352v-5.4609l-2.2461 0.17187v0.48828c1.0977 0 1.2188 0.097656 1.2188 0.875z"/>
  <path d="m239.64 153.64c0-1.9727-1.5391-3.6328-3.418-3.6328-1.957 0-3.4688 1.707-3.4688 3.6328 0 2.0234 1.6094 3.5117 3.4453 3.5117 1.8789 0 3.4414-1.5352 3.4414-3.5117zm-3.418 3.1211c-0.68359 0-1.3672-0.31641-1.7852-1.0469-0.39062-0.68359-0.39062-1.6367-0.39062-2.1953 0-0.60938 0-1.4375 0.36719-2.1211 0.41406-0.70703 1.1484-1.0469 1.7852-1.0469 0.68359 0 1.3398 0.33984 1.7578 1.0234 0.41406 0.65625 0.41406 1.5586 0.41406 2.1445 0 0.55859 0 1.4141-0.33984 2.0977-0.36719 0.70703-1.0508 1.1445-1.8086 1.1445z"/>
  <path d="m242.72 151.81v-1.707l-2.1719 0.17188v0.48828c1.0977 0 1.2188 0.097656 1.2188 0.875v4.1719c0 0.67969-0.17188 0.67969-1.2188 0.67969v0.48828c0.60938-0.023438 1.3398-0.046875 1.7812-0.046875 0.60938 0 1.3438 0 1.9805 0.046875v-0.48828h-0.34375c-1.1484 0-1.1719-0.16797-1.1719-0.73047v-2.3906c0-1.5352 0.66016-2.9258 1.832-2.9258 0.097656 0 0.14453 0 0.17188 0.027344-0.050781 0-0.36719 0.19531-0.36719 0.60938 0 0.41406 0.33984 0.65625 0.68359 0.65625 0.26953 0 0.66016-0.19531 0.66016-0.67969 0-0.48828-0.48828-0.95312-1.1484-0.95312-1.1484 0-1.7109 1.0469-1.9062 1.707z"/>
  <path transform="matrix(1.5635 0 0 -1.5604 247.15 156.67)" d="m-7.0476e-4 0.0018895h2.988" fill="none" stroke="#000" stroke-miterlimit="10" stroke-width=".398"/>
  <path d="m254.58 150.11-2.1719 0.17188v0.48828c1 0 1.1484 0.097656 1.1484 0.85156v4.1953c0 0.67969-0.17188 0.67969-1.2227 0.67969v0.48828c0.48828-0.023438 1.3438-0.046875 1.7109-0.046875 0.5625 0 1.0977 0.023437 1.6367 0.046875v-0.48828c-1.0508 0-1.1016-0.070313-1.1016-0.67969zm0.050781-2.707c0-0.48828-0.36719-0.82813-0.80469-0.82813-0.49219 0-0.83203 0.41406-0.83203 0.82813 0 0.41406 0.33984 0.82812 0.83203 0.82812 0.4375 0 0.80469-0.33984 0.80469-0.82812z"/>
  <path d="m262.06 156.13v1.0234l2.2969-0.17188v-0.48828c-1.0742 0-1.2227-0.097657-1.2227-0.875v-9.4375l-2.2227 0.17187v0.48828c1.0742 0 1.1953 0.097656 1.1953 0.875v3.3672c-0.4375-0.5625-1.1211-0.97656-1.9531-0.97656-1.832 0-3.4688 1.5352-3.4688 3.5352 0 1.9766 1.5156 3.5117 3.2969 3.5117 1.0039 0 1.6875-0.53516 2.0781-1.0234zm0-4.1719v3.1953c0 0.26953 0 0.29297-0.17188 0.5625-0.46484 0.75391-1.1484 1.0977-1.832 1.0977-0.70703 0-1.2695-0.41797-1.6367-1-0.39062-0.63672-0.4375-1.5117-0.4375-2.1719 0-0.55859 0.023437-1.4883 0.46094-2.1953 0.34375-0.48437 0.92969-1 1.7852-1 0.53516 0 1.1953 0.24609 1.6602 0.92969 0.17188 0.26562 0.17188 0.29297 0.17188 0.58203z"/>
  <path transform="matrix(1.5635 0 0 -1.5604 137 16.096)" d="m-4.9591e-4 -52.534v-22.377" fill="none" stroke="#000" stroke-miterlimit="10" stroke-width=".3985"/>
  <path d="m65.273 216.94c0-1.2188 0-2.0977-0.97656-2.9766-0.78516-0.73047-1.7852-1.0234-2.7852-1.0234-1.832 0-3.25 1.1953-3.25 2.6562 0 0.63672 0.41406 0.95312 0.95312 0.95312 0.53516 0 0.90234-0.36719 0.90234-0.90234 0-0.92578-0.80469-0.92578-1.1484-0.92578 0.53906-0.95312 1.6133-1.3438 2.4922-1.3438 1.0508 0 2.3711 0.85547 2.3711 2.8555v0.90234c-4.5195 0.070312-6.2305 1.9492-6.2305 3.6797 0 1.7578 2.0781 2.3164 3.4453 2.3164 1.4648 0 2.4922-0.90234 2.9062-1.9727 0.097656 1.0703 0.78125 1.875 1.7578 1.875 0.46484 0 1.7617-0.31641 1.7617-2.1211v-1.2422h-0.48828v1.2422c0 1.293-0.53906 1.4648-0.85547 1.4648-0.85547 0-0.85547-1.1953-0.85547-1.5117zm-1.4414 2.8281c0 2.1953-1.6367 2.9258-2.6133 2.9258-1.1016 0-2.0039-0.80469-2.0039-1.8789 0-2.9492 3.8086-3.2188 4.6172-3.2656z"/>
  <path d="m74.422 213.28v0.66016c1.5156 0 1.7109 0.14453 1.7109 1.2422v4.0234c0 1.9023-1.0039 3.4883-2.6875 3.4883-1.8555 0-1.9531-1.0508-1.9531-2.2422v-7.4141l-3.1758 0.24219v0.66016c1.707 0 1.707 0.074219 1.707 2.0469v3.3672c0 1.3867 0 2.1914 0.68359 2.9258 0.53906 0.58203 1.4414 0.85156 2.5898 0.85156 0.39062 0 1.1016 0 1.8594-0.63281 0.66016-0.53516 1.0234-1.3672 1.0234-1.3672v2l3.1055-0.21875v-0.66016c-1.5156 0-1.6875-0.14453-1.6875-1.2422v-7.9727z"/>
  <path d="m83.57 213.92h3.1758v-0.66016h-3.1758v-4.1211h-0.48828c-0.023437 2.1211-0.83203 4.2695-2.8594 4.3398v0.44141h1.9062v6.2148c0 2.4883 1.6367 3 2.8359 3 1.4141 0 2.1484-1.3906 2.1484-3v-1.2656h-0.48828v1.2188c0 1.6094-0.66016 2.5586-1.5156 2.5586-1.5391 0-1.5391-2.0703-1.5391-2.4609z"/>
  <path d="m98.344 217.48c0-2.0703 0-2.707-0.53906-3.4375-0.63672-0.85156-1.6875-1-2.4688-1-1.9297 0-2.8086 1.4648-3.125 2.1445h-0.023438v-7.8008l-3.1289 0.24219v0.66016c1.5391 0 1.7109 0.14453 1.7109 1.2422v11.73c0 0.99609-0.24609 0.99609-1.7109 0.99609v0.66016c0.58594-0.050781 1.8086-0.050781 2.4414-0.050781 0.63672 0 1.8594 0 2.4453 0.050781v-0.66016c-1.4414 0-1.7109 0-1.7109-0.99609v-4.1719c0-2.3398 1.5391-3.582 2.9336-3.582 1.3906 0 1.707 1.1211 1.707 2.4844v5.2695c0 0.99609-0.24219 0.99609-1.707 0.99609v0.66016c0.58594-0.050781 1.8047-0.050781 2.418-0.050781 0.66016 0 1.8555 0 2.4414 0.050781v-0.66016c-1.125 0-1.6836 0-1.6836-0.65625z"/>
  <path d="m110.84 218.14c0-2.9023-2.1953-5.1953-4.7852-5.1953-2.6875 0-4.8125 2.3672-4.8125 5.1953 0 2.8516 2.2227 4.9961 4.7852 4.9961 2.6406 0 4.8125-2.1953 4.8125-4.9961zm-4.7852 4.5078c-0.83203 0-1.832-0.36328-2.4922-1.4609-0.61328-1-0.63672-2.3164-0.63672-3.2695 0-0.85156 0-2.2188 0.70703-3.2148 0.61328-0.95312 1.6133-1.3203 2.3945-1.3203 0.88281 0 1.8086 0.39062 2.4219 1.2695 0.70703 1.0234 0.70703 2.4375 0.70703 3.2656 0 0.78125 0 2.1719-0.58594 3.2188-0.63672 1.0977-1.6602 1.5117-2.5156 1.5117z"/>
  <path d="m115.27 217.7c0-2.168 0.90234-4.1914 2.6367-4.1914h0.32031c-0.19922 0.097656-0.53906 0.24219-0.53906 0.82812 0 0.65625 0.51172 0.90234 0.85547 0.90234 0.46484 0 0.90234-0.29297 0.90234-0.90234 0-0.66016-0.60938-1.293-1.5625-1.293-1.9062 0-2.5664 2.0742-2.6875 2.4883h-0.023438v-2.4883l-3.0078 0.24219v0.66016c1.5156 0 1.6875 0.14453 1.6875 1.2422v6.0742c0 0.99609-0.24609 0.99609-1.6875 0.99609v0.66016c0.61328-0.050781 1.8594-0.050781 2.5195-0.050781 0.60938 0 2.1992 0 2.7344 0.050781v-0.66016h-0.46484c-1.6367 0-1.6836-0.24219-1.6836-1.0469z"/>
  <path d="m127.43 213.45c0-0.41406 0-0.51172-0.21875-0.51172-0.17188 0-0.61328 0.48828-0.75781 0.68359-0.70703-0.5625-1.3945-0.68359-2.125-0.68359-2.7109 0-3.5195 1.4648-3.5195 2.707 0 0.24219 0 1.0234 0.85547 1.8047 0.73438 0.63281 1.4922 0.78125 2.5156 0.97266 1.2227 0.24609 1.5156 0.32031 2.0781 0.78125 0.41406 0.31641 0.70703 0.82812 0.70703 1.4375 0 0.97656-0.5625 2.0508-2.5391 2.0508-1.4648 0-2.5664-0.85547-3.0547-3.0977-0.074219-0.39062-0.074219-0.41406-0.097656-0.4375-0.050782-0.097656-0.14844-0.097656-0.21875-0.097656-0.24609 0-0.24609 0.12109-0.24609 0.51172v3.0469c0 0.41406 0 0.51172 0.21875 0.51172 0.125 0 0.14844-0.023437 0.53906-0.48828 0.097656-0.14453 0.097656-0.19531 0.44141-0.55859 0.85547 1.0469 2.0508 1.0469 2.4414 1.0469 2.3438 0 3.5195-1.293 3.5195-3.0703 0-1.1953-0.73438-1.9258-0.92969-2.1211-0.80469-0.68359-1.418-0.83203-2.9062-1.0977-0.66016-0.12109-2.2969-0.44141-2.2969-1.7812 0-0.70703 0.46484-1.7305 2.4922-1.7305 2.4414 0 2.5625 2.0742 2.6133 2.7812 0.023438 0.16797 0.17188 0.16797 0.24219 0.16797 0.24609 0 0.24609-0.097656 0.24609-0.51172z"/>
  <path transform="matrix(1.5635 0 0 -1.5604 137 16.096)" d="m-6.7535-95.17-15.02-22.527" fill="none" stroke="#000" stroke-miterlimit="10" stroke-width=".3985"/>
  <path d="m157.24 207.38-3.1016 0.24219v0.66016c1.5156 0 1.6836 0.14453 1.6836 1.2422v13.387h0.51563c0.070312-0.17187 0.70703-1.293 0.80469-1.4648 0.51172 0.83203 1.4648 1.6836 2.9062 1.6836 2.5898 0 4.8398-2.168 4.8398-5.0469 0-2.8516-2.1016-5.0469-4.5938-5.0469-1.2227 0-2.2734 0.5625-3.0547 1.5117zm0.050781 8.3633c0-0.39062 0-0.4375 0.24219-0.80469 0.53906-0.80469 1.5391-1.4375 2.6406-1.4375 0.65625 0 3.0273 0.26562 3.0273 4.5586 0 1.4883-0.24219 2.4375-0.78125 3.2422-0.44141 0.68359-1.3438 1.3906-2.4688 1.3906-1.1953 0-1.9766-0.78125-2.3672-1.3906-0.29297-0.46484-0.29297-0.5625-0.29297-0.94922z"/>
  <path d="m176.59 218.14c0-2.9023-2.1992-5.1953-4.7891-5.1953-2.6875 0-4.8125 2.3672-4.8125 5.1953 0 2.8516 2.2227 4.9961 4.7891 4.9961 2.6367 0 4.8125-2.1953 4.8125-4.9961zm-4.7891 4.5078c-0.82813 0-1.832-0.36328-2.4922-1.4609-0.60938-1-0.63281-2.3164-0.63281-3.2695 0-0.85156 0-2.2188 0.70703-3.2148 0.60938-0.95312 1.6133-1.3203 2.3945-1.3203 0.87891 0 1.8086 0.39062 2.418 1.2695 0.71094 1.0234 0.71094 2.4375 0.71094 3.2656 0 0.78125 0 2.1719-0.58984 3.2188-0.63281 1.0977-1.6602 1.5117-2.5156 1.5117z"/>
  <path d="m188.18 218.14c0-2.9023-2.1992-5.1953-4.7891-5.1953-2.6875 0-4.8125 2.3672-4.8125 5.1953 0 2.8516 2.2227 4.9961 4.7852 4.9961 2.6406 0 4.8164-2.1953 4.8164-4.9961zm-4.7891 4.5078c-0.83203 0-1.832-0.36328-2.4922-1.4609-0.61328-1-0.63672-2.3164-0.63672-3.2695 0-0.85156 0-2.2188 0.71094-3.2148 0.60938-0.95312 1.6094-1.3203 2.3906-1.3203 0.88281 0 1.8086 0.39062 2.4219 1.2695 0.70703 1.0234 0.70703 2.4375 0.70703 3.2656 0 0.78125 0 2.1719-0.58594 3.2188-0.63672 1.0977-1.6602 1.5117-2.5156 1.5117z"/>
  <path d="m195.16 216.99c0-0.023437-0.14453-0.21875-0.14453-0.21875 0-0.074219 1.3906-1.293 1.5859-1.4609 1.5391-1.3438 2.543-1.3672 3.0039-1.3906v-0.66016c-0.46094 0.050782-1.0234 0.050782-1.707 0.050782-0.58594 0-1.7344 0-2.25-0.050782v0.66016c0.39062 0.023437 0.66016 0.21875 0.66016 0.58594 0 0.4375-0.46484 0.85156-0.46484 0.85156l-3.2227 2.8047v-10.777l-3.1016 0.24219v0.66016c1.5117 0 1.6836 0.14453 1.6836 1.2422v11.73c0 0.99609-0.24219 0.99609-1.6836 0.99609v0.66016c0.60938-0.050781 1.6836-0.050781 2.3672-0.050781 0.68359 0 1.7578 0 2.3711 0.050781v-0.66016c-1.418 0-1.6875 0-1.6875-0.99609v-2.3672l1.418-1.2656 2.1484 3.0938c0.34375 0.46484 0.51563 0.70703 0.51563 1.0234 0 0.41406-0.32031 0.51172-0.80859 0.51172v0.66016c0.5625-0.050781 1.6641-0.050781 2.2734-0.050781 0.97656 0 1.0273 0 1.9805 0.050781v-0.66016c-0.61328 0-1.2969 0-1.9297-0.90234z"/>
  <path d="m207.82 213.45c0-0.41406 0-0.51172-0.21875-0.51172-0.17188 0-0.61328 0.48828-0.75781 0.68359-0.70703-0.5625-1.3945-0.68359-2.125-0.68359-2.7109 0-3.5195 1.4648-3.5195 2.707 0 0.24219 0 1.0234 0.85547 1.8047 0.73438 0.63281 1.4922 0.78125 2.5156 0.97266 1.2227 0.24609 1.5156 0.32031 2.0781 0.78125 0.41406 0.31641 0.70703 0.82812 0.70703 1.4375 0 0.97656-0.5625 2.0508-2.5391 2.0508-1.4648 0-2.5664-0.85547-3.0547-3.0977-0.074219-0.39062-0.074219-0.41406-0.097656-0.4375-0.050781-0.097656-0.14844-0.097656-0.21875-0.097656-0.24609 0-0.24609 0.12109-0.24609 0.51172v3.0469c0 0.41406 0 0.51172 0.21875 0.51172 0.125 0 0.14844-0.023437 0.53906-0.48828 0.097656-0.14453 0.097656-0.19531 0.44141-0.55859 0.85547 1.0469 2.0508 1.0469 2.4414 1.0469 2.3438 0 3.5195-1.293 3.5195-3.0703 0-1.1953-0.73438-1.9258-0.92969-2.1211-0.80469-0.68359-1.418-0.83203-2.9062-1.0977-0.66016-0.12109-2.2969-0.44141-2.2969-1.7812 0-0.70703 0.46484-1.7305 2.4922-1.7305 2.4414 0 2.5625 2.0742 2.6133 2.7812 0.023437 0.16797 0.17187 0.16797 0.24609 0.16797 0.24219 0 0.24219-0.097656 0.24219-0.51172z"/>
  <path transform="matrix(1.5635 0 0 -1.5604 137 16.096)" d="m6.755-95.17 15.018-22.527" fill="none" stroke="#000" stroke-miterlimit="10" stroke-width=".3985"/>
 </g>
</svg>
