<?xml version="1.0" encoding="UTF-8" standalone="no"?>
<!DOCTYPE svg PUBLIC "-//W3C//DTD SVG 1.1//EN"
 "http://www.w3.org/Graphics/SVG/1.1/DTD/svg11.dtd">
<!-- Generated by graphviz version 2.43.0 (0)
 -->
<!-- Title: %3 Pages: 1 -->
<svg width="700pt" height="241pt"
 viewBox="0.00 0.00 699.58 241.22" xmlns="http://www.w3.org/2000/svg" xmlns:xlink="http://www.w3.org/1999/xlink">
<g id="graph0" class="graph" transform="scale(1 1) rotate(0) translate(4 237.22)">
<title>%3</title>
<polygon fill="white" stroke="transparent" points="-4,4 -4,-237.22 695.58,-237.22 695.58,4 -4,4"/>
<!-- p1 -->
<g id="node1" class="node">
<title>p1</title>
<ellipse fill="none" stroke="black" stroke-dasharray="1,5" cx="147.2" cy="-116.61" rx="101.23" ry="26.74"/>
<text text-anchor="middle" x="147.2" y="-120.41" font-family="sans-serif" font-size="14.00">Part 1 &#45; SQL</text>
<text text-anchor="middle" x="147.2" y="-105.41" font-family="sans-serif" font-size="14.00">Chapters 1.1 &#45; 1.7</text>
</g>
<!-- c3 -->
<g id="node4" class="node">
<title>c3</title>
<ellipse fill="none" stroke="black" cx="79.2" cy="-26.87" rx="79.39" ry="26.74"/>
<text text-anchor="middle" x="79.2" y="-30.67" font-family="sans-serif" font-size="14.00">Chapter 3.3</text>
<text text-anchor="middle" x="79.2" y="-15.67" font-family="sans-serif" font-size="14.00">Normalization</text>
</g>
<!-- p1&#45;&gt;c3 -->
<g id="edge4" class="edge">
<title>p1&#45;&gt;c3</title>
<path fill="none" stroke="black" stroke-dasharray="1,5" d="M127.53,-90.23C120.55,-81.23 112.59,-70.95 105.16,-61.38"/>
<polygon fill="black" stroke="black" points="107.71,-58.95 98.82,-53.19 102.18,-63.24 107.71,-58.95"/>
</g>
<!-- c4 -->
<g id="node5" class="node">
<title>c4</title>
<ellipse fill="none" stroke="black" cx="434.2" cy="-26.87" rx="257.27" ry="26.74"/>
<text text-anchor="middle" x="434.2" y="-30.67" font-family="sans-serif" font-size="14.00">Chapter 3.4</text>
<text text-anchor="middle" x="434.2" y="-15.67" font-family="sans-serif" font-size="14.00">Differences between SQL and the relational model</text>
</g>
<!-- p1&#45;&gt;c4 -->
<g id="edge5" class="edge">
<title>p1&#45;&gt;c4</title>
<path fill="none" stroke="black" stroke-dasharray="1,5" d="M211.96,-95.81C251,-83.87 301.3,-68.5 344.17,-55.39"/>
<polygon fill="black" stroke="black" points="345.23,-58.73 353.77,-52.46 343.18,-52.04 345.23,-58.73"/>
</g>
<!-- c1 -->
<g id="node2" class="node">
<title>c1</title>
<ellipse fill="none" stroke="black" cx="400.2" cy="-206.35" rx="191.75" ry="26.74"/>
<text text-anchor="middle" x="400.2" y="-210.15" font-family="sans-serif" font-size="14.00">Chapter 3.1</text>
<text text-anchor="middle" x="400.2" y="-195.15" font-family="sans-serif" font-size="14.00">The relational model of the database</text>
</g>
<!-- c2 -->
<g id="node3" class="node">
<title>c2</title>
<ellipse fill="none" stroke="black" cx="400.2" cy="-116.61" rx="99.9" ry="26.74"/>
<text text-anchor="middle" x="400.2" y="-120.41" font-family="sans-serif" font-size="14.00">Chapter 3.2</text>
<text text-anchor="middle" x="400.2" y="-105.41" font-family="sans-serif" font-size="14.00">Relational algebra</text>
</g>
<!-- c1&#45;&gt;c2 -->
<g id="edge1" class="edge">
<title>c1&#45;&gt;c2</title>
<path fill="none" stroke="black" d="M400.2,-179.03C400.2,-171.06 400.2,-162.17 400.2,-153.68"/>
<polygon fill="black" stroke="black" points="403.7,-153.61 400.2,-143.61 396.7,-153.61 403.7,-153.61"/>
</g>
<!-- c2&#45;&gt;c3 -->
<g id="edge3" class="edge">
<title>c2&#45;&gt;c3</title>
<path fill="none" stroke="black" d="M330.29,-97.4C284.19,-85.29 222.51,-68.87 168.2,-53.74 161.63,-51.91 154.81,-49.98 147.99,-48.03"/>
<polygon fill="black" stroke="black" points="148.61,-44.57 138.03,-45.17 146.67,-51.3 148.61,-44.57"/>
</g>
<!-- c2&#45;&gt;c4 -->
<g id="edge2" class="edge">
<title>c2&#45;&gt;c4</title>
<path fill="none" stroke="black" d="M410.21,-89.76C413.44,-81.44 417.06,-72.08 420.5,-63.21"/>
<polygon fill="black" stroke="black" points="423.78,-64.43 424.13,-53.84 417.26,-61.9 423.78,-64.43"/>
</g>
</g>
</svg>
