<?xml version="1.0" encoding="UTF-8"?>
<svg width="294px" height="253px" version="1.1" viewBox="0 0 294 253" xmlns="http://www.w3.org/2000/svg">
 <g id="surface1">
  <path d="m151.32 9.4727h2.5156c-0.58594 2.5156-0.97656 4.1523-0.97656 5.9336 0 0.31641 0 2.7344 0.92578 2.7344 0.46484 0 0.87891-0.41406 0.87891-0.80469 0-0.097657 0-0.14453-0.17188-0.48828-0.60938-1.5391-0.60938-3.4688-0.60938-3.6406 0-0.12109 0-1.707 0.48828-3.7344h2.4883c0.29297 0 1.0508 0 1.0508-0.71094 0-0.51172-0.44141-0.51172-0.83203-0.51172h-7.3672c-0.51172 0-1.293 0-2.3164 1.1016-0.58594 0.65625-1.293 1.8555-1.293 1.9766 0 0.14844 0.097656 0.17188 0.24219 0.17188 0.14844 0 0.17188-0.050781 0.29297-0.19531 1.1719-1.832 2.3164-1.832 2.8789-1.832h1.293c-0.51172 1.6836-1.0469 3.6367-2.9023 7.5469-0.17188 0.36719-0.17188 0.41406-0.17188 0.53516 0 0.48828 0.39062 0.58594 0.60938 0.58594 0.63672 0 0.83203-0.58594 1.0977-1.5117 0.34375-1.1484 0.34375-1.1992 0.58594-2.1016z"/>
  <path d="m160.64 15.059h2.2422v-0.49219h-2.2422v-2.8555h-0.39062c0 1.2695-0.46484 2.9297-2 3.0039v0.34375h1.3164v4.2969c0 1.9062 1.4648 2.1016 2.0234 2.1016 1.0977 0 1.5391-1.1016 1.5391-2.1016v-0.87891h-0.39062v0.85547c0 1.1484-0.46484 1.7344-1.0508 1.7344-1.0469 0-1.0469-1.418-1.0469-1.6875z"/>
  <path d="m166.76 14.398-2.1719 0.16797v0.49219c1 0 1.1484 0.097656 1.1484 0.85156v4.2031c0 0.68359-0.17188 0.68359-1.2188 0.68359v0.48828c0.48828-0.023437 1.3398-0.050781 1.707-0.050781 0.55859 0 1.0977 0.027344 1.6328 0.050781v-0.48828c-1.0469 0-1.0977-0.074219-1.0977-0.68359zm0.050782-2.7109c0-0.48828-0.36719-0.83203-0.80469-0.83203-0.48828 0-0.83203 0.41406-0.83203 0.83203 0 0.41406 0.34375 0.82812 0.83203 0.82812 0.4375 0 0.80469-0.33984 0.80469-0.82812z"/>
  <path d="m171.01 15.059h2.2422v-0.49219h-2.2422v-2.8555h-0.39062c0 1.2695-0.46484 2.9297-2 3.0039v0.34375h1.3164v4.2969c0 1.9062 1.4648 2.1016 2.0234 2.1016 1.0977 0 1.5391-1.1016 1.5391-2.1016v-0.87891h-0.39062v0.85547c0 1.1484-0.46484 1.7344-1.0508 1.7344-1.0469 0-1.0469-1.418-1.0469-1.6875z"/>
  <path d="m177.13 10.465-2.2422 0.17188v0.48828c1.0977 0 1.2188 0.097656 1.2188 0.87891v8.1094c0 0.68359-0.17188 0.68359-1.2188 0.68359v0.48828c0.51172-0.023437 1.3398-0.050781 1.7305-0.050781 0.39062 0 1.1484 0.027344 1.7305 0.050781v-0.48828c-1.0469 0-1.2188 0-1.2188-0.68359z"/>
  <path d="m180.43 17.352c0.097657-2.3203 1.4141-2.7109 1.9531-2.7109 1.5859 0 1.7539 2.1016 1.7539 2.7109zm0 0.34375h4.3438c0.33984 0 0.39062 0 0.39062-0.34375 0-1.5391-0.85547-3.0508-2.7812-3.0508-1.8047 0-3.2461 1.6094-3.2461 3.5664 0 2.0742 1.6328 3.5898 3.4141 3.5898 1.9062 0 2.6133-1.7344 2.6133-2.0273 0-0.14844-0.125-0.19531-0.22266-0.19531-0.12109 0-0.16797 0.097656-0.19141 0.21875-0.53906 1.6133-1.9531 1.6133-2.1016 1.6133-0.77734 0-1.3906-0.46484-1.7539-1.0508-0.46484-0.73438-0.46484-1.7578-0.46484-2.3203z"/>
  <path d="m165.82 80.617-4.4648-4.4688c-0.28906-0.26953-0.31641-0.31641-0.51172-0.31641-0.21875 0-0.4375 0.21875-0.4375 0.46484 0 0.16797 0.097656 0.26562 0.31641 0.48828l4.4414 4.4688-4.4414 4.4219c-0.24219 0.24219-0.31641 0.39062-0.31641 0.51172 0 0.24219 0.21875 0.46484 0.4375 0.46484 0.19531 0 0.22266-0.050782 0.51172-0.32031l4.4414-4.4688c1.0977 1.0742 4.3672 4.3711 4.6602 4.6406 0.023438 0.050782 0.17188 0.14844 0.31641 0.14844 0.44141 0 0.44141-0.41797 0.44141-0.78125v-9.2578c0-0.36719 0-0.78125-0.44141-0.78125-0.16797 0-0.26563 0.097657-0.48828 0.31641zm0.66016 0.63672 3.8555-3.8828v7.7148z"/>
  <path d="m171.14 76.785c0.29297-0.26953 0.32031-0.32031 0.32031-0.48828 0-0.24609-0.19531-0.46484-0.44141-0.46484-0.17188 0-0.26953 0.097657-0.48828 0.31641l-4.4648 4.4688-4.4648-4.4688c-0.29297-0.26953-0.31641-0.31641-0.51172-0.31641-0.4375 0-0.4375 0.4375-0.4375 0.80469v9.207c0 0.36719 0 0.80859 0.4375 0.80859 0.19531 0 0.21875-0.050782 0.51172-0.32031l4.4414-4.4688c1.0977 1.0742 4.3672 4.3711 4.6602 4.6406 0.023437 0.050782 0.17188 0.14844 0.31641 0.14844 0.26953 0 0.44141-0.22266 0.44141-0.46484 0-0.023438 0-0.14844-0.097656-0.29297-0.14844-0.14844-3.4922-3.4688-4.6367-4.6406zm-9.5859 8.3281v-7.7188l3.8555 3.8594z"/>
  <path transform="matrix(1.5614 0 0 -1.5631 165.95 14.776)" d="m-0.0017988-9.0446v-23.835" fill="none" stroke="#000" stroke-miterlimit="10" stroke-width=".3985"/>
  <path d="m19.461 142.4c0.29297 0 1.0469 0 1.0469-0.70703 0-0.51172-0.4375-0.51172-0.82812-0.51172h-4.9531c-3.3672 0-5.7812 3.7617-5.7812 6.3984 0 1.9062 1.2188 3.4922 3.2461 3.4922 2.6328 0 5.5352-2.832 5.5352-6.2031 0-0.87891-0.21875-1.7344-0.75391-2.4688zm-7.2461 8.2305c-1.1484 0-1.9766-0.87891-1.9766-2.418 0-1.3398 0.80469-5.8125 4.0977-5.8125 0.97656 0 2.0508 0.46484 2.0508 2.1992 0 0.78125-0.36719 2.6641-1.1484 3.957-0.80469 1.3438-2.0234 2.0742-3.0234 2.0742z"/>
  <path d="m22.266 148.87v4.1758c0 0.68359-0.17188 0.68359-1.2188 0.68359v0.48828c0.55859-0.023438 1.3398-0.050782 1.7773-0.050782 0.39062 0 1.1953 0.027344 1.7344 0.050782v-0.48828c-1.0508 0-1.2188 0-1.2188-0.68359v-2.8828c0-1.6133 1.1211-2.4922 2.0977-2.4922 1 0 1.1719 0.83203 1.1719 1.7344v3.6406c0 0.68359-0.17188 0.68359-1.2227 0.68359v0.48828c0.53906-0.023438 1.3438-0.050782 1.7578-0.050782 0.39062 0 1.2188 0.027344 1.7305 0.050782v-0.48828c-0.80469 0-1.1953 0-1.1953-0.46484v-2.9805c0-1.3438 0-1.8047-0.48828-2.3672-0.21875-0.26953-0.73047-0.58594-1.6328-0.58594-1.1484 0-1.8789 0.66016-2.3164 1.6367v-1.6367l-2.1953 0.16797v0.49219c1.0977 0 1.2188 0.097657 1.2188 0.87891z"/>
  <path d="m34.371 153.04c0.074218 0.60938 0.48828 1.2695 1.2188 1.2695 0.34375 0 1.293-0.21875 1.293-1.4883v-0.88281h-0.38672v0.88281c0 0.90234-0.39062 1-0.5625 1-0.51172 0-0.58594-0.70703-0.58594-0.78125v-3.1016c0-0.66016 0-1.2695-0.5625-1.8555-0.60938-0.61328-1.3906-0.85547-2.1211-0.85547-1.293 0-2.3672 0.73047-2.3672 1.7578 0 0.46484 0.31641 0.73047 0.73438 0.73047 0.4375 0 0.70703-0.31641 0.70703-0.70703 0-0.19531-0.074219-0.70703-0.80469-0.70703 0.4375-0.5625 1.1953-0.73438 1.6797-0.73438 0.78125 0 1.6602 0.61328 1.6602 2.0039v0.5625c-0.80469 0.046875-1.8789 0.097656-2.8555 0.5625-1.168 0.53516-1.5586 1.3398-1.5586 2.0273 0 1.2695 1.5117 1.6602 2.4883 1.6602 1.0234 0 1.7305-0.63672 2.0234-1.3438zm-0.097656-2.5664v1.5625c0 1.4688-1.1211 2.0039-1.8281 2.0039-0.75781 0-1.3906-0.53516-1.3906-1.3164 0-0.85547 0.65625-2.1523 3.2188-2.25z"/>
  <path d="m38.684 148.87v4.1758c0 0.68359-0.16797 0.68359-1.2188 0.68359v0.48828c0.5625-0.023438 1.3438-0.050782 1.7812-0.050782 0.39062 0 1.1953 0.027344 1.7305 0.050782v-0.48828c-1.0469 0-1.2188 0-1.2188-0.68359v-2.8828c0-1.6133 1.125-2.4922 2.0977-2.4922 1 0 1.1719 0.83203 1.1719 1.7344v3.6406c0 0.68359-0.17188 0.68359-1.2188 0.68359v0.48828c0.53516-0.023438 1.3398-0.050782 1.7578-0.050782 0.38672 0 1.2188 0.027344 1.7305 0.050782v-0.48828c-1.0234 0-1.1953 0-1.1953-0.68359v-2.8828c0-1.6133 1.0977-2.4922 2.0977-2.4922 0.97656 0 1.1484 0.83203 1.1484 1.7344v3.6406c0 0.68359-0.17188 0.68359-1.2227 0.68359v0.48828c0.53906-0.023438 1.3438-0.050782 1.7578-0.050782 0.41406 0 1.2188 0.027344 1.7578 0.050782v-0.48828c-0.80469 0-1.1953 0-1.2227-0.46484v-2.9805c0-1.3438 0-1.8047-0.48828-2.3672-0.21875-0.26953-0.73047-0.58594-1.6328-0.58594-1.293 0-2 0.92578-2.2461 1.5391-0.21875-1.3711-1.3633-1.5391-2.0703-1.5391-1.1484 0-1.8789 0.66016-2.3203 1.6367v-1.6367l-2.1953 0.16797v0.49219c1.0977 0 1.2188 0.097657 1.2188 0.87891z"/>
  <path d="m51.672 150.28c0.097656-2.3203 1.4141-2.7109 1.9531-2.7109 1.5859 0 1.7539 2.1016 1.7539 2.7109zm0 0.34375h4.3438c0.33984 0 0.39062 0 0.39062-0.34375 0-1.5391-0.85547-3.0508-2.7812-3.0508-1.8086 0-3.2461 1.6094-3.2461 3.5664 0 2.0742 1.6328 3.5898 3.4141 3.5898 1.9062 0 2.6133-1.7344 2.6133-2.0273 0-0.14844-0.125-0.19531-0.22266-0.19531-0.12109 0-0.16797 0.097657-0.19531 0.21875-0.53516 1.6133-1.9492 1.6133-2.0977 1.6133-0.78125 0-1.3906-0.46484-1.7539-1.0508-0.46484-0.73437-0.46484-1.7578-0.46484-2.3203z"/>
  <path d="m67.539 149.11c0.24219 0 0.53516 0 0.53516-0.29297 0-0.31641-0.29297-0.31641-0.51172-0.31641h-9.3203c-0.21875 0-0.51172 0-0.51172 0.31641 0 0.29297 0.29297 0.29297 0.51172 0.29297zm0.023438 3.0273c0.21875 0 0.51172 0 0.51172-0.31641 0-0.29297-0.29297-0.29297-0.53516-0.29297h-9.2969c-0.21875 0-0.51172 0-0.51172 0.29297 0 0.31641 0.29297 0.31641 0.51172 0.31641z"/>
  <path d="m73.66 151.92c0 1.418-0.78125 2.2969-1.6094 2.2969-0.097656 0-1.1484 0-1.707-0.90234 0.80469 0 1-0.46484 1-0.88281 0-0.55859-0.44141-0.85156-0.87891-0.85156-0.34375 0-0.87891 0.19531-0.87891 0.90234 0 1.1484 1.0977 2.0742 2.4883 2.0742 1.5859 0 2.7344-1.0977 2.9023-2.2461 0.023438-0.14453 0.023438-0.17188 0.023438-0.70703v-6.9141c0-0.63281 0.19531-0.63281 1.1992-0.63281v-0.48828c-0.68359 0.046875-1.293 0.046875-2.0273 0.046875-0.63281 0-2.0234 0-2.6094-0.046875v0.48828h0.5625c1.5352 0 1.5352 0.19531 1.5352 0.75781z"/>
  <path d="m79.922 153.38c0-0.4375-0.36719-0.82812-0.80469-0.82812-0.46484 0-0.82813 0.39062-0.82813 0.82812 0 0.46484 0.36328 0.83203 0.82813 0.83203 0.4375 0 0.80469-0.36719 0.80469-0.83203z"/>
  <path d="m84.754 148.72v-4.0312c0-0.36328 0-0.55859 0.34375-0.60938 0.14453-0.023437 0.60938-0.023437 0.92578-0.023437 1.3906 0 3.125 0.074218 3.125 2.3203 0 1.0742-0.36719 2.3438-2.6602 2.3438zm3.2969 0.19531c1.4883-0.36719 2.707-1.3203 2.707-2.5391 0-1.4922-1.7812-2.8086-4.0508-2.8086h-4.9023v0.48828h0.39062c1.1953 0 1.2188 0.17187 1.2188 0.73047v8.207c0 0.5625-0.023437 0.73437-1.2188 0.73437h-0.39062v0.48828c0.55859-0.050782 1.6836-0.050782 2.2695-0.050782 0.60938 0 1.7305 0 2.293 0.050782v-0.48828h-0.39063c-1.1953 0-1.2227-0.17187-1.2227-0.73437v-3.9297h1.7812c0.24609 0 0.90234 0 1.4648 0.53516 0.58594 0.53906 0.58594 1.0273 0.58594 2.0781 0 1 0 1.6367 0.63281 2.2227 0.63672 0.55859 1.4883 0.65625 1.9531 0.65625 1.2188 0 1.4883-1.2695 1.4883-1.707 0-0.097656 0-0.26953-0.19531-0.26953-0.17188 0-0.17188 0.14844-0.19531 0.24609-0.097656 1.1211-0.63281 1.3906-1.0234 1.3906-0.75781 0-0.87891-0.80469-1.0977-2.2461l-0.22266-1.2461c-0.26562-1.0039-1.0234-1.5156-1.875-1.8086z"/>
  <path d="m95.695 153.38c0-0.4375-0.36719-0.82812-0.80859-0.82812-0.46094 0-0.82812 0.39062-0.82812 0.82812 0 0.46484 0.36719 0.83203 0.82812 0.83203 0.44141 0 0.80859-0.36719 0.80859-0.83203z"/>
  <path d="m100.53 148.72v-4.0312c0-0.36328 0-0.55859 0.33984-0.60938 0.14844-0.023437 0.61328-0.023437 0.92969-0.023437 1.3906 0 3.1211 0.074218 3.1211 2.3203 0 1.0742-0.36719 2.3438-2.6602 2.3438zm3.293 0.19531c1.4883-0.36719 2.707-1.3203 2.707-2.5391 0-1.4922-1.7812-2.8086-4.0469-2.8086h-4.9062v0.48828h0.39062c1.1953 0 1.2188 0.17187 1.2188 0.73047v8.207c0 0.5625-0.023438 0.73437-1.2188 0.73437h-0.39062v0.48828c0.5625-0.050782 1.6836-0.050782 2.2695-0.050782 0.60938 0 1.7305 0 2.293 0.050782v-0.48828h-0.39062c-1.1953 0-1.2188-0.17187-1.2188-0.73437v-3.9297h1.7812c0.24219 0 0.90234 0 1.4648 0.53516 0.58203 0.53906 0.58203 1.0273 0.58203 2.0781 0 1 0 1.6367 0.63672 2.2227 0.63281 0.55859 1.4883 0.65625 1.9531 0.65625 1.2188 0 1.4844-1.2695 1.4844-1.707 0-0.097656 0-0.26953-0.19141-0.26953-0.17188 0-0.17188 0.14844-0.19531 0.24609-0.097657 1.1211-0.63672 1.3906-1.0273 1.3906-0.75391 0-0.87891-0.80469-1.0977-2.2461l-0.21875-1.2461c-0.26953-1.0039-1.0234-1.5156-1.8789-1.8086z"/>
  <path d="m111.46 153.38c0-0.4375-0.36719-0.82812-0.80469-0.82812-0.46484 0-0.82812 0.39062-0.82812 0.82812 0 0.46484 0.36328 0.83203 0.82812 0.83203 0.4375 0 0.80469-0.36719 0.80469-0.83203z"/>
  <path d="m128.36 143.66h-9.5156l-0.29297 3.5156h0.39062c0.21875-2.5156 0.4375-3.0273 2.8047-3.0273 0.26953 0 0.68359 0 0.83203 0.023437 0.33984 0.074219 0.33984 0.24609 0.33984 0.58594v8.2305c0 0.51562 0 0.73437-1.6328 0.73437h-0.63672v0.48828c0.63672-0.050782 2.2227-0.050782 2.9531-0.050782 0.70703 0 2.3164 0 2.9531 0.050782v-0.48828h-0.63672c-1.6328 0-1.6328-0.21875-1.6328-0.73437v-8.2305c0-0.29297 0-0.51172 0.29297-0.58594 0.16797-0.023437 0.58594-0.023437 0.87891-0.023437 2.3633 0 2.5859 0.51172 2.8047 3.0273h0.39062z"/>
  <path d="m135.25 150.87c0-1.9766-1.5352-3.6367-3.4141-3.6367-1.9531 0-3.4648 1.707-3.4648 3.6367 0 2.0273 1.6094 3.5195 3.4414 3.5195 1.8789 0 3.4375-1.5391 3.4375-3.5195zm-3.4141 3.1289c-0.68359 0-1.3672-0.32031-1.7812-1.0508-0.39063-0.68359-0.39063-1.6367-0.39063-2.1992 0-0.60938 0-1.4414 0.36719-2.125 0.41406-0.70703 1.1445-1.0508 1.7812-1.0508 0.68359 0 1.3398 0.34375 1.7578 1.0273 0.41406 0.66016 0.41406 1.5625 0.41406 2.1484 0 0.5625 0 1.418-0.34375 2.1016-0.36328 0.70703-1.0469 1.1484-1.8047 1.1484z"/>
  <path d="m138.47 143.39-2.2461 0.17188v0.48828c1.0977 0 1.2188 0.097656 1.2188 0.87891v8.1094c0 0.68359-0.16797 0.68359-1.2188 0.68359v0.48828c0.51172-0.023438 1.3438-0.050782 1.7344-0.050782 0.38672 0 1.1445 0.027344 1.7305 0.050782v-0.48828c-1.0508 0-1.2188 0-1.2188-0.68359z"/>
  <path d="m141.69 153.04c0 0.68359-0.17188 0.68359-1.2188 0.68359v0.48828c0.51172-0.023438 1.2422-0.050782 1.6836-0.050782 0.48438 0 1.0977 0.027344 1.7305 0.050782v-0.48828c-1.0508 0-1.2188 0-1.2188-0.68359v-1.6133l1-0.85547c1.1953 1.6367 1.8516 2.5156 1.8516 2.8086 0 0.29297-0.26562 0.34375-0.55859 0.34375v0.48828c0.41406-0.023438 1.3398-0.050782 1.6836-0.050782 0.4375 0 0.90234 0.027344 1.3398 0.050782v-0.48828c-0.58594 0-0.92578 0-1.5117-0.83203l-1.9766-2.7852c-0.023438-0.023437-0.097656-0.12109-0.097656-0.16797 0-0.050781 1.1211-1.0039 1.2695-1.125 0.97656-0.78125 1.6328-0.82812 1.9531-0.82812v-0.49219c-0.44141 0.050781-0.63672 0.050781-1.0742 0.050781-0.5625 0-1.5391-0.023437-1.7578-0.050781v0.49219c0.29297 0 0.46484 0.16797 0.46484 0.39062 0 0.31641-0.21875 0.48828-0.34375 0.60938l-2.1953 1.8789v-7.4727l-2.2422 0.17188v0.48828c1.0977 0 1.2188 0.097656 1.2188 0.87891z"/>
  <path d="m151 147.33-2.1719 0.16797v0.49219c1 0 1.1445 0.097657 1.1445 0.85156v4.2031c0 0.68359-0.16797 0.68359-1.2188 0.68359v0.48828c0.48828-0.023438 1.3438-0.050782 1.707-0.050782 0.5625 0 1.0977 0.027344 1.6367 0.050782v-0.48828c-1.0508 0-1.0977-0.074218-1.0977-0.68359zm0.046875-2.7109c0-0.48828-0.36328-0.83203-0.80469-0.83203-0.48828 0-0.82813 0.41406-0.82813 0.83203 0 0.41406 0.33984 0.82812 0.82813 0.82812 0.44141 0 0.80469-0.33984 0.80469-0.82812z"/>
  <path d="m154.3 150.28c0.097656-2.3203 1.4141-2.7109 1.9492-2.7109 1.5859 0 1.7578 2.1016 1.7578 2.7109zm0 0.34375h4.3398c0.34375 0 0.39062 0 0.39062-0.34375 0-1.5391-0.85156-3.0508-2.7812-3.0508-1.8047 0-3.2422 1.6094-3.2422 3.5664 0 2.0742 1.6328 3.5898 3.4141 3.5898 1.9023 0 2.6094-1.7344 2.6094-2.0273 0-0.14844-0.12109-0.19531-0.21875-0.19531-0.12109 0-0.17188 0.097657-0.19531 0.21875-0.53516 1.6133-1.9531 1.6133-2.0977 1.6133-0.78125 0-1.3906-0.46484-1.7578-1.0508-0.46094-0.73437-0.46094-1.7578-0.46094-2.3203z"/>
  <path d="m161.18 148.87v4.1758c0 0.68359-0.17188 0.68359-1.2188 0.68359v0.48828c0.55859-0.023438 1.3398-0.050782 1.7812-0.050782 0.39062 0 1.1953 0.027344 1.7305 0.050782v-0.48828c-1.0469 0-1.2188 0-1.2188-0.68359v-2.8828c0-1.6133 1.1211-2.4922 2.0977-2.4922 1 0 1.1719 0.83203 1.1719 1.7344v3.6406c0 0.68359-0.17188 0.68359-1.2188 0.68359v0.48828c0.53516-0.023438 1.3398-0.050782 1.7539-0.050782 0.39062 0 1.2188 0.027344 1.7344 0.050782v-0.48828c-0.80469 0-1.1953 0-1.1953-0.46484v-2.9805c0-1.3438 0-1.8047-0.48828-2.3672-0.22266-0.26953-0.73438-0.58594-1.6367-0.58594-1.1445 0-1.8789 0.66016-2.3164 1.6367v-1.6367l-2.1953 0.16797v0.49219c1.0977 0 1.2188 0.097657 1.2188 0.87891z"/>
  <path transform="matrix(1.5614 0 0 -1.5631 165.95 14.776)" d="m-10.542-51.55-28.515-24.445" fill="none" stroke="#000" stroke-miterlimit="10" stroke-width=".3985"/>
  <path d="m61.125 215.97c0-1.2227 0-2.1016-0.97656-2.9805-0.78125-0.73438-1.7812-1.0273-2.7812-1.0273-1.832 0-3.2461 1.1992-3.2461 2.6641 0 0.63281 0.41406 0.95312 0.95312 0.95312 0.53516 0 0.90234-0.36719 0.90234-0.90625 0-0.92578-0.80469-0.92578-1.1484-0.92578 0.53906-0.95312 1.6133-1.3438 2.4883-1.3438 1.0508 0 2.3672 0.85547 2.3672 2.8555v0.90625c-4.5117 0.070312-6.2188 1.9531-6.2188 3.6875 0 1.7578 2.0703 2.3203 3.4375 2.3203 1.4648 0 2.4883-0.90625 2.9023-1.9805 0.097656 1.0742 0.78125 1.8828 1.7578 1.8828 0.46484 0 1.7578-0.32031 1.7578-2.125v-1.2461h-0.48828v1.2461c0 1.293-0.53906 1.4648-0.85547 1.4648-0.85156 0-0.85156-1.1992-0.85156-1.5156zm-1.4414 2.832c0 2.1992-1.6328 2.9297-2.6094 2.9297-1.0977 0-2-0.80469-2-1.8789 0-2.957 3.8047-3.2266 4.6094-3.2734z"/>
  <path d="m70.262 212.31v0.65625c1.5117 0 1.707 0.14844 1.707 1.2461v4.0312c0 1.9062-1 3.4922-2.6836 3.4922-1.8555 0-1.9531-1.0508-1.9531-2.2461v-7.4258l-3.1719 0.24609v0.65625c1.7109 0 1.7109 0.074218 1.7109 2.0547v3.3711c0 1.3906 0 2.1953 0.67969 2.9297 0.53906 0.58594 1.4414 0.85547 2.5898 0.85547 0.38672 0 1.0977 0 1.8516-0.63672 0.66016-0.53516 1.0234-1.3672 1.0234-1.3672v2.0039l3.1016-0.22266v-0.65625c-1.5156 0-1.6836-0.14844-1.6836-1.2461v-7.9883z"/>
  <path d="m79.398 212.94h3.1719v-0.66016h-3.1719v-4.125h-0.48828c-0.027344 2.125-0.83203 4.2734-2.8555 4.3477v0.4375h1.9023v6.2305c0 2.4883 1.6367 3.0039 2.832 3.0039 1.4141 0 2.1445-1.3945 2.1445-3.0039v-1.2734h-0.48828v1.2227c0 1.6133-0.65625 2.5664-1.5117 2.5664-1.5352 0-1.5352-2.0781-1.5352-2.4688z"/>
  <path d="m94.148 216.51c0-2.0742 0-2.7109-0.53906-3.4453-0.63281-0.85156-1.6797-1-2.4609-1-1.9297 0-2.8086 1.4648-3.125 2.1484h-0.023438v-7.8125l-3.1211 0.24219v0.66016c1.5352 0 1.707 0.14453 1.707 1.2461v11.746c0 1.0039-0.24609 1.0039-1.707 1.0039v0.65625c0.58203-0.046875 1.8047-0.046875 2.4375-0.046875 0.63672 0 1.8555 0 2.4414 0.046875v-0.65625c-1.4414 0-1.7109 0-1.7109-1.0039v-4.1758c0-2.3438 1.5391-3.5898 2.9297-3.5898 1.3906 0 1.707 1.125 1.707 2.4922v5.2734c0 1.0039-0.24219 1.0039-1.707 1.0039v0.65625c0.58594-0.046875 1.8047-0.046875 2.4141-0.046875 0.66016 0 1.8555 0 2.4414 0.046875v-0.65625c-1.1211 0-1.6836 0-1.6836-0.66016z"/>
  <path d="m106.62 217.17c0-2.9062-2.1953-5.2031-4.7812-5.2031-2.6836 0-4.8047 2.3711-4.8047 5.2031 0 2.8555 2.2188 5.0078 4.7812 5.0078 2.6328 0 4.8047-2.1992 4.8047-5.0078zm-4.7812 4.5195c-0.82812 0-1.8281-0.36719-2.4883-1.4688-0.60938-1-0.63281-2.3203-0.63281-3.2695 0-0.85547 0-2.2227 0.70703-3.2266 0.60937-0.95312 1.6094-1.3164 2.3906-1.3164 0.87891 0 1.8047 0.39062 2.4141 1.2695 0.70703 1.0234 0.70703 2.4414 0.70703 3.2734 0 0.78125 0 2.1719-0.58594 3.2227-0.63281 1.0977-1.6562 1.5156-2.5117 1.5156z"/>
  <path d="m111.05 216.73c0-2.1719 0.90234-4.1992 2.6367-4.1992h0.31641c-0.19531 0.097656-0.53906 0.24219-0.53906 0.83203 0 0.65625 0.51562 0.90234 0.85547 0.90234 0.46484 0 0.90234-0.29297 0.90234-0.90234 0-0.66016-0.60937-1.2969-1.5625-1.2969-1.9023 0-2.5586 2.0781-2.6836 2.4922h-0.023438v-2.4922l-3 0.24609v0.65625c1.5117 0 1.6836 0.14844 1.6836 1.2461v6.082c0 1.0039-0.24609 1.0039-1.6836 1.0039v0.65625c0.60938-0.046875 1.8555-0.046875 2.5117-0.046875 0.60938 0 2.1953 0 2.7344 0.046875v-0.65625h-0.46484c-1.6328 0-1.6836-0.24609-1.6836-1.0508z"/>
  <path d="m123.2 212.48c0-0.41406 0-0.51172-0.21875-0.51172-0.17187 0-0.60937 0.48828-0.75781 0.68359-0.70703-0.5625-1.3906-0.68359-2.1211-0.68359-2.707 0-3.5156 1.4648-3.5156 2.7109 0 0.24609 0 1.0273 0.85547 1.8086 0.73047 0.63281 1.4883 0.78125 2.5117 0.97656 1.2227 0.24219 1.5156 0.31641 2.0742 0.78125 0.41406 0.31641 0.70703 0.83203 0.70703 1.4414 0 0.97656-0.55859 2.0508-2.5352 2.0508-1.4648 0-2.5625-0.85547-3.0508-3.1016-0.074219-0.39062-0.074219-0.41406-0.097656-0.4375-0.046875-0.097656-0.14453-0.097656-0.21875-0.097656-0.24609 0-0.24609 0.12109-0.24609 0.51172v3.0508c0 0.41797 0 0.51562 0.22266 0.51562 0.12109 0 0.14453-0.027343 0.53516-0.48828 0.097656-0.14844 0.097656-0.19531 0.44141-0.5625 0.85156 1.0508 2.0469 1.0508 2.4375 1.0508 2.3438 0 3.5117-1.2969 3.5117-3.0781 0-1.1992-0.73047-1.9297-0.92578-2.125-0.80469-0.68359-1.4141-0.83203-2.9023-1.0977-0.66016-0.125-2.293-0.44141-2.293-1.7852 0-0.70703 0.46094-1.7344 2.4883-1.7344 2.4375 0 2.5625 2.0781 2.6094 2.7852 0.023438 0.17188 0.17188 0.17188 0.24609 0.17188 0.24219 0 0.24219-0.097656 0.24219-0.51562z"/>
  <path transform="matrix(1.5614 0 0 -1.5631 165.95 14.776)" d="m-49.607-94.087v-23.61" fill="none" stroke="#000" stroke-miterlimit="10" stroke-width=".3985"/>
  <path d="m212.27 140.89c0.28906 0 1.0469 0 1.0469-0.71094 0-0.51172-0.4375-0.51172-0.82812-0.51172h-4.9531c-3.3672 0-5.7812 3.7617-5.7812 6.3984 0 1.9062 1.2188 3.4922 3.2422 3.4922 2.6367 0 5.5391-2.832 5.5391-6.2031 0-0.87891-0.21875-1.7344-0.75781-2.4648zm-7.2461 8.2305c-1.1484 0-1.9766-0.87891-1.9766-2.418 0-1.3438 0.80469-5.8125 4.0977-5.8125 0.97656 0 2.0508 0.46094 2.0508 2.1953 0 0.78125-0.36719 2.6641-1.1484 3.957-0.80469 1.3438-2.0234 2.0781-3.0234 2.0781z"/>
  <path d="m219.82 147.47c0.39062-1 1.1992-1 1.4414-1v-0.48828c-0.36719 0.023437-0.80469 0.046875-1.1719 0.046875-0.26953 0-1-0.023438-1.3398-0.046875v0.48828c0.48828 0 0.73047 0.26953 0.73047 0.66016 0 0.16797-0.023437 0.19531-0.097656 0.39063l-1.5859 3.8086-1.707-4.1758c-0.074219-0.17188-0.097656-0.21875-0.097656-0.29297 0-0.39062 0.5625-0.39062 0.87891-0.39062v-0.48828c-0.41406 0.023437-1.4414 0.046875-1.707 0.046875-0.41797 0-1.0508-0.023438-1.5156-0.046875v0.48828c0.75781 0 1.0508 0 1.2695 0.53516l2.3438 5.6914c-0.097656 0.19531-0.31641 0.70703-0.39062 0.92969-0.34375 0.85547-0.78125 1.9297-1.7812 1.9297-0.074219 0-0.44141 0-0.73438-0.29297 0.48828-0.050781 0.61328-0.39062 0.61328-0.66016 0-0.39062-0.29297-0.63672-0.66016-0.63672-0.31641 0-0.66016 0.19531-0.66016 0.66016 0 0.70703 0.66016 1.2695 1.4414 1.2695 0.97656 0 1.6094-0.90234 1.9766-1.7812z"/>
  <path d="m222.87 148.77c0.097656-2.3203 1.4141-2.7109 1.9531-2.7109 1.5859 0 1.7539 2.1016 1.7539 2.7109zm0 0.34375h4.3438c0.33984 0 0.39062 0 0.39062-0.34375 0-1.5352-0.85547-3.0508-2.7812-3.0508-1.8047 0-3.2461 1.6133-3.2461 3.5664 0 2.0742 1.6367 3.5898 3.418 3.5898 1.9023 0 2.6094-1.7344 2.6094-2.0273 0-0.14844-0.12109-0.19531-0.21875-0.19531-0.125 0-0.17187 0.097656-0.19531 0.21875-0.53906 1.6133-1.9531 1.6133-2.1016 1.6133-0.77734 0-1.3906-0.46484-1.7539-1.0508-0.46484-0.73438-0.46484-1.7578-0.46484-2.3203z"/>
  <path d="m233.22 151.53c0.074219 0.60938 0.48828 1.2695 1.2227 1.2695 0.33984 0 1.293-0.21875 1.293-1.4883v-0.87891h-0.39062v0.87891c0 0.90234-0.39062 1-0.5625 1-0.51172 0-0.58594-0.70703-0.58594-0.78125v-3.1016c0-0.66016 0-1.2695-0.55859-1.8555-0.61328-0.61328-1.3906-0.85547-2.125-0.85547-1.293 0-2.3672 0.73047-2.3672 1.7578 0 0.46484 0.32031 0.73438 0.73438 0.73438 0.4375 0 0.70703-0.32031 0.70703-0.71094 0-0.19531-0.074219-0.70703-0.80469-0.70703 0.4375-0.5625 1.1953-0.73437 1.6836-0.73437 0.78125 0 1.6562 0.61328 1.6562 2.0039v0.5625c-0.80469 0.046875-1.875 0.097656-2.8516 0.5625-1.1719 0.53516-1.5625 1.3438-1.5625 2.0273 0 1.2695 1.5117 1.6602 2.4883 1.6602 1.0234 0 1.7305-0.63672 2.0234-1.3438zm-0.097656-2.5625v1.5625c0 1.4648-1.1211 2-1.8281 2-0.75781 0-1.3906-0.53516-1.3906-1.3164 0-0.85547 0.66016-2.1484 3.2188-2.2461z"/>
  <path d="m238.44 147.52v-1.7109l-2.1719 0.17188v0.48828c1.0977 0 1.2188 0.097656 1.2188 0.87891v4.1758c0 0.68359-0.17188 0.68359-1.2188 0.68359v0.48828c0.60938-0.023438 1.3398-0.046875 1.7812-0.046875 0.60938 0 1.3398 0 1.9766 0.046875v-0.48828h-0.34375c-1.1445 0-1.1719-0.17188-1.1719-0.73047v-2.3945c0-1.5391 0.66016-2.9336 1.832-2.9336 0.097656 0 0.14453 0 0.17188 0.027344-0.050781 0-0.36719 0.19531-0.36719 0.60937 0 0.41406 0.33984 0.66016 0.68359 0.66016 0.26953 0 0.65625-0.19531 0.65625-0.68359s-0.48438-0.95312-1.1445-0.95312c-1.1484 0-1.707 1.0508-1.9023 1.7109z"/>
  <path d="m252.44 149.16c0.17188-0.097656 0.29297-0.17188 0.29297-0.36719 0-0.17188-0.12109-0.24609-0.29297-0.34375l-8.6367-4.0547c-0.19531-0.12109-0.21875-0.12109-0.26953-0.12109-0.17188 0-0.31641 0.14844-0.31641 0.31641 0 0.14844 0.074218 0.24609 0.29297 0.34375l8.1719 3.8594-8.1719 3.8828c-0.21875 0.097657-0.29297 0.19531-0.29297 0.33984 0 0.17188 0.14453 0.32031 0.31641 0.32031 0.050781 0 0.074219 0 0.26953-0.125z"/>
  <path d="m258.61 142.73c0-0.39062 0-0.41406-0.36719-0.41406-0.97656 1-2.3438 1-2.832 1v0.48828c0.32031 0 1.2227 0 2.0273-0.41406v8.0859c0 0.55859-0.050781 0.73047-1.4414 0.73047h-0.48828v0.48828c0.53906-0.046875 1.8789-0.046875 2.5156-0.046875 0.60937 0 1.9727 0 2.5117 0.046875v-0.48828h-0.48828c-1.4141 0-1.4375-0.17188-1.4375-0.73047z"/>
  <path d="m267.51 147.74v0.51172c0 3.6406-1.6094 4.3477-2.5117 4.3477-0.26953 0-1.125-0.023437-1.5391-0.5625 0.68359 0 0.80469-0.4375 0.80469-0.70703 0-0.48828-0.36328-0.70703-0.70703-0.70703-0.24219 0-0.70703 0.12109-0.70703 0.73047 0 1.0508 0.82812 1.6875 2.1484 1.6875 2.0234 0 3.9258-2.125 3.9258-5.4727 0-4.1992-1.8047-5.25-3.1953-5.25-0.85547 0-1.6094 0.29297-2.2695 0.97656-0.66016 0.70703-1 1.3672-1 2.5391 0 1.9297 1.3672 3.4688 3.0977 3.4688 0.95312 0 1.5859-0.66016 1.9531-1.5625zm-1.9297 1.1953c-0.24219 0-0.97266 0-1.4375-0.97656-0.29297-0.58594-0.29297-1.3438-0.29297-2.125 0-0.82813 0-1.5625 0.33984-2.1484 0.41797-0.78125 1.0039-0.97656 1.5391-0.97656 0.73047 0 1.2422 0.53516 1.5117 1.2188 0.17188 0.51562 0.24609 1.4922 0.24609 2.1992 0 1.2969-0.53906 2.8086-1.9062 2.8086z"/>
  <path d="m276.55 149.57c0-1.8555-1.2695-3.4219-2.9531-3.4219-0.73047 0-1.4141 0.24609-1.9766 0.80859v-3.0547c0.31641 0.097656 0.82812 0.19531 1.3164 0.19531 1.9297 0 3.0273-1.4141 3.0273-1.6094 0-0.097657-0.050781-0.17188-0.17188-0.17188 0 0-0.046875 0-0.12109 0.046876-0.31641 0.14844-1.0742 0.46484-2.1211 0.46484-0.61328 0-1.3438-0.12109-2.0742-0.4375-0.125-0.050781-0.14844-0.050781-0.17188-0.050781-0.17188 0-0.17188 0.12109-0.17188 0.36719v4.6172c0 0.26562 0 0.39062 0.21875 0.39062 0.125 0 0.14844-0.027344 0.22266-0.125 0.16797-0.24219 0.73047-1.0977 2-1.0977 0.80469 0 1.1953 0.70703 1.3164 1 0.24609 0.58594 0.29297 1.1719 0.29297 1.957 0 0.55859 0 1.4883-0.39062 2.1484-0.36719 0.60938-0.95312 1-1.6602 1-1.1211 0-2.0234-0.82812-2.293-1.7344 0.050781 0 0.097656 0.023437 0.26953 0.023437 0.51172 0 0.78125-0.39062 0.78125-0.75391 0-0.39062-0.26953-0.78125-0.78125-0.78125-0.21875 0-0.75781 0.12109-0.75781 0.82812 0 1.3438 1.0742 2.8594 2.8086 2.8594 1.8047 0 3.3906-1.4922 3.3906-3.4688z"/>
  <path d="m284.5 147.72c0-1.2461-0.074218-2.4922-0.61328-3.6406-0.70703-1.5156-2-1.7578-2.6328-1.7578-0.95312 0-2.0742 0.41406-2.7344 1.8555-0.48828 1.0742-0.55859 2.2969-0.55859 3.543 0 1.1719 0.046875 2.5625 0.70703 3.7617 0.66016 1.2422 1.8047 1.5625 2.5625 1.5625 0.82812 0 2.0234-0.32031 2.707-1.8086 0.48828-1.0742 0.5625-2.2969 0.5625-3.5156zm-3.2695 4.9805c-0.60938 0-1.5391-0.39062-1.8086-1.8789-0.16797-0.92969-0.16797-2.3711-0.16797-3.2969 0-1.0039 0-2.0273 0.12109-2.8594 0.29297-1.8555 1.4648-2.0039 1.8555-2.0039 0.51172 0 1.5352 0.29297 1.8281 1.832 0.17188 0.87891 0.17188 2.0547 0.17188 3.0312 0 1.1719 0 2.2227-0.17188 3.2227-0.24219 1.4883-1.1211 1.9531-1.8281 1.9531z"/>
  <path transform="matrix(1.5614 0 0 -1.5631 165.95 14.776)" d="m10.541-51.552 27.387-23.473" fill="none" stroke="#000" stroke-miterlimit="10" stroke-width=".3985"/>
  <path d="m219.35 206.4-3.0977 0.24219v0.66016c1.5117 0 1.6836 0.14453 1.6836 1.2461v13.406h0.51172c0.074219-0.16797 0.70703-1.293 0.80469-1.4648 0.51562 0.83203 1.4648 1.6875 2.9062 1.6875 2.5859 0 4.8281-2.1758 4.8281-5.0586 0-2.8555-2.0977-5.0547-4.5859-5.0547-1.2188 0-2.2695 0.5625-3.0508 1.5156zm0.050782 8.375c0-0.39063 0-0.4375 0.24219-0.80469 0.53906-0.80469 1.5391-1.4414 2.6367-1.4414 0.65625 0 3.0234 0.26953 3.0234 4.5664 0 1.4922-0.24219 2.4414-0.78125 3.25-0.4375 0.68359-1.3398 1.3906-2.4609 1.3906-1.1953 0-1.9766-0.78125-2.3672-1.3906-0.29297-0.46484-0.29297-0.5625-0.29297-0.95312z"/>
  <path d="m238.68 217.17c0-2.9062-2.1953-5.2031-4.7812-5.2031-2.6836 0-4.8047 2.3711-4.8047 5.2031 0 2.8555 2.2188 5.0078 4.7812 5.0078 2.6367 0 4.8047-2.1992 4.8047-5.0078zm-4.7812 4.5195c-0.82813 0-1.8281-0.36719-2.4883-1.4688-0.60938-1-0.63281-2.3203-0.63281-3.2695 0-0.85547 0-2.2227 0.70703-3.2266 0.60938-0.95312 1.6094-1.3164 2.3906-1.3164 0.87891 0 1.8047 0.39062 2.4141 1.2695 0.71094 1.0234 0.71094 2.4414 0.71094 3.2734 0 0.78125 0 2.1719-0.58594 3.2227-0.63672 1.0977-1.6602 1.5156-2.5156 1.5156z"/>
  <path d="m250.25 217.17c0-2.9062-2.1953-5.2031-4.7812-5.2031-2.6836 0-4.8086 2.3711-4.8086 5.2031 0 2.8555 2.2227 5.0078 4.7812 5.0078 2.6367 0 4.8086-2.1992 4.8086-5.0078zm-4.7812 4.5195c-0.83203 0-1.832-0.36719-2.4883-1.4688-0.60938-1-0.63672-2.3203-0.63672-3.2695 0-0.85547 0-2.2227 0.70703-3.2266 0.61328-0.95312 1.6133-1.3164 2.3906-1.3164 0.87891 0 1.8086 0.39062 2.418 1.2695 0.70703 1.0234 0.70703 2.4414 0.70703 3.2734 0 0.78125 0 2.1719-0.58594 3.2227-0.63281 1.0977-1.6602 1.5156-2.5117 1.5156z"/>
  <path d="m257.22 216.02c0-0.023437-0.14453-0.21875-0.14453-0.21875 0-0.074219 1.3906-1.2969 1.5859-1.4648 1.5352-1.3438 2.5352-1.3711 3-1.3945v-0.66016c-0.46484 0.050781-1.0234 0.050781-1.707 0.050781-0.58594 0-1.7344 0-2.2461-0.050781v0.66016c0.39062 0.023438 0.66016 0.22266 0.66016 0.58594 0 0.44141-0.46484 0.85547-0.46484 0.85547l-3.2188 2.8086v-10.793l-3.1016 0.24219v0.66016c1.5156 0 1.6836 0.14453 1.6836 1.2461v11.746c0 1.0039-0.24219 1.0039-1.6836 1.0039v0.65625c0.61328-0.046875 1.6836-0.046875 2.3672-0.046875 0.68359 0 1.7578 0 2.3672 0.046875v-0.65625c-1.4141 0-1.6836 0-1.6836-1.0039v-2.3672l1.4141-1.2695 2.1484 3.1016c0.33984 0.46094 0.51172 0.70703 0.51172 1.0234 0 0.41797-0.31641 0.51562-0.80469 0.51562v0.65625c0.5625-0.046875 1.6602-0.046875 2.2695-0.046875 0.97656 0 1.0234 0 1.9766 0.046875v-0.65625c-0.60938 0-1.293 0-1.9297-0.90625z"/>
  <path d="m269.87 212.48c0-0.41406 0-0.51172-0.21875-0.51172-0.16797 0-0.60938 0.48828-0.75391 0.68359-0.70703-0.5625-1.3906-0.68359-2.125-0.68359-2.707 0-3.5117 1.4648-3.5117 2.7109 0 0.24609 0 1.0273 0.85547 1.8086 0.73047 0.63281 1.4844 0.78125 2.5117 0.97656 1.2188 0.24219 1.5117 0.31641 2.0742 0.78125 0.41406 0.31641 0.70703 0.83203 0.70703 1.4414 0 0.97656-0.5625 2.0508-2.5391 2.0508-1.4609 0-2.5625-0.85547-3.0469-3.1016-0.074218-0.39062-0.074218-0.41406-0.097656-0.4375-0.050781-0.097656-0.14844-0.097656-0.22266-0.097656-0.24219 0-0.24219 0.12109-0.24219 0.51172v3.0508c0 0.41797 0 0.51562 0.21875 0.51562 0.12109 0 0.14844-0.027343 0.53906-0.48828 0.097656-0.14844 0.097656-0.19531 0.4375-0.5625 0.85547 1.0508 2.0508 1.0508 2.4414 1.0508 2.3398 0 3.5117-1.2969 3.5117-3.0781 0-1.1992-0.73438-1.9297-0.92578-2.125-0.80859-0.68359-1.418-0.83203-2.9062-1.0977-0.65625-0.125-2.293-0.44141-2.293-1.7852 0-0.70703 0.46484-1.7344 2.4883-1.7344 2.4414 0 2.5625 2.0781 2.6133 2.7852 0.023438 0.17188 0.16797 0.17188 0.24219 0.17188 0.24219 0 0.24219-0.097656 0.24219-0.51562z"/>
  <path transform="matrix(1.5614 0 0 -1.5631 165.95 14.776)" d="m49.609-95.057v-22.641" fill="none" stroke="#000" stroke-miterlimit="10" stroke-width=".3985"/>
 </g>
</svg>
