<?xml version="1.0" encoding="UTF-8" standalone="no"?>
<!DOCTYPE svg PUBLIC "-//W3C//DTD SVG 1.1//EN"
 "http://www.w3.org/Graphics/SVG/1.1/DTD/svg11.dtd">
<!-- Generated by graphviz version 2.43.0 (0)
 -->
<!-- Title: %3 Pages: 1 -->
<svg width="1044pt" height="241pt"
 viewBox="0.00 0.00 1044.01 241.22" xmlns="http://www.w3.org/2000/svg" xmlns:xlink="http://www.w3.org/1999/xlink">
<g id="graph0" class="graph" transform="scale(1 1) rotate(0) translate(4 237.22)">
<title>%3</title>
<polygon fill="white" stroke="transparent" points="-4,4 -4,-237.22 1040.01,-237.22 1040.01,4 -4,4"/>
<!-- c1 -->
<g id="node1" class="node">
<title>c1</title>
<ellipse fill="none" stroke="black" cx="869.84" cy="-206.35" rx="157.87" ry="26.74"/>
<text text-anchor="middle" x="869.84" y="-210.15" font-family="sans-serif" font-size="14.00">Chapter 2.1</text>
<text text-anchor="middle" x="869.84" y="-195.15" font-family="sans-serif" font-size="14.00">Introduction to data modeling</text>
</g>
<!-- c2 -->
<g id="node2" class="node">
<title>c2</title>
<ellipse fill="none" stroke="black" cx="869.84" cy="-116.61" rx="150.73" ry="26.74"/>
<text text-anchor="middle" x="869.84" y="-120.41" font-family="sans-serif" font-size="14.00">Chapter 2.2</text>
<text text-anchor="middle" x="869.84" y="-105.41" font-family="sans-serif" font-size="14.00">Entity&#45;relationship diagrams</text>
</g>
<!-- c1&#45;&gt;c2 -->
<g id="edge1" class="edge">
<title>c1&#45;&gt;c2</title>
<path fill="none" stroke="black" d="M869.84,-179.03C869.84,-171.06 869.84,-162.17 869.84,-153.68"/>
<polygon fill="black" stroke="black" points="873.34,-153.61 869.84,-143.61 866.34,-153.61 873.34,-153.61"/>
</g>
<!-- c3 -->
<g id="node3" class="node">
<title>c3</title>
<ellipse fill="none" stroke="black" cx="382.84" cy="-26.87" rx="193.08" ry="26.74"/>
<text text-anchor="middle" x="382.84" y="-30.67" font-family="sans-serif" font-size="14.00">Chapter 2.3</text>
<text text-anchor="middle" x="382.84" y="-15.67" font-family="sans-serif" font-size="14.00">Converting ERD to a relational model</text>
</g>
<!-- c2&#45;&gt;c3 -->
<g id="edge2" class="edge">
<title>c2&#45;&gt;c3</title>
<path fill="none" stroke="black" d="M766.56,-97C690.92,-83.37 587.9,-64.81 507.64,-50.35"/>
<polygon fill="black" stroke="black" points="507.94,-46.85 497.48,-48.52 506.7,-53.74 507.94,-46.85"/>
</g>
<!-- c4 -->
<g id="node4" class="node">
<title>c4</title>
<ellipse fill="none" stroke="black" cx="869.84" cy="-26.87" rx="166.34" ry="26.74"/>
<text text-anchor="middle" x="869.84" y="-30.67" font-family="sans-serif" font-size="14.00">Chapter 2.4</text>
<text text-anchor="middle" x="869.84" y="-15.67" font-family="sans-serif" font-size="14.00">ERD alternatives and variations</text>
</g>
<!-- c2&#45;&gt;c4 -->
<g id="edge3" class="edge">
<title>c2&#45;&gt;c4</title>
<path fill="none" stroke="black" d="M869.84,-89.29C869.84,-81.32 869.84,-72.43 869.84,-63.94"/>
<polygon fill="black" stroke="black" points="873.34,-63.87 869.84,-53.87 866.34,-63.87 873.34,-63.87"/>
</g>
<!-- c1_7 -->
<g id="node5" class="node">
<title>c1_7</title>
<ellipse fill="none" stroke="black" stroke-dasharray="1,5" cx="113.84" cy="-116.61" rx="113.69" ry="26.74"/>
<text text-anchor="middle" x="113.84" y="-120.41" font-family="sans-serif" font-size="14.00">Chapter 1.7</text>
<text text-anchor="middle" x="113.84" y="-105.41" font-family="sans-serif" font-size="14.00">Keys and constraints</text>
</g>
<!-- c1_7&#45;&gt;c3 -->
<g id="edge4" class="edge">
<title>c1_7&#45;&gt;c3</title>
<path fill="none" stroke="black" stroke-dasharray="1,5" d="M178.62,-94.48C215.02,-82.61 260.84,-67.66 299.85,-54.94"/>
<polygon fill="black" stroke="black" points="301.19,-58.18 309.62,-51.76 299.02,-51.53 301.19,-58.18"/>
</g>
<!-- c_OR -->
<g id="node7" class="node">
<title>c_OR</title>
<text text-anchor="middle" x="272.84" y="-112.91" font-family="sans-serif" font-size="14.00">&#45;or&#45;</text>
</g>
<!-- c1_7&#45;&gt;c_OR -->
<g id="edge7" class="edge">
<title>c1_7&#45;&gt;c_OR</title>
</g>
<!-- c3_1 -->
<g id="node6" class="node">
<title>c3_1</title>
<ellipse fill="none" stroke="black" stroke-dasharray="1,5" cx="509.84" cy="-116.61" rx="191.75" ry="26.74"/>
<text text-anchor="middle" x="509.84" y="-120.41" font-family="sans-serif" font-size="14.00">Chapter 3.1</text>
<text text-anchor="middle" x="509.84" y="-105.41" font-family="sans-serif" font-size="14.00">The relational model of the database</text>
</g>
<!-- c3_1&#45;&gt;c3 -->
<g id="edge6" class="edge">
<title>c3_1&#45;&gt;c3</title>
<path fill="none" stroke="black" stroke-dasharray="1,5" d="M473.11,-90.23C459.15,-80.59 443.07,-69.48 428.39,-59.34"/>
<polygon fill="black" stroke="black" points="430.15,-56.3 419.94,-53.5 426.17,-62.06 430.15,-56.3"/>
</g>
<!-- c_OR&#45;&gt;c3 -->
<g id="edge5" class="edge">
<title>c_OR&#45;&gt;c3</title>
</g>
<!-- c_OR&#45;&gt;c3_1 -->
<g id="edge8" class="edge">
<title>c_OR&#45;&gt;c3_1</title>
</g>
</g>
</svg>
