<?xml version="1.0" encoding="UTF-8" standalone="no"?>
<!DOCTYPE svg PUBLIC "-//W3C//DTD SVG 1.1//EN"
 "http://www.w3.org/Graphics/SVG/1.1/DTD/svg11.dtd">
<!-- Generated by graphviz version 2.43.0 (0)
 -->
<!-- Title: %3 Pages: 1 -->
<svg width="722pt" height="241pt"
 viewBox="0.00 0.00 721.50 241.22" xmlns="http://www.w3.org/2000/svg" xmlns:xlink="http://www.w3.org/1999/xlink">
<g id="graph0" class="graph" transform="scale(1 1) rotate(0) translate(4 237.22)">
<title>%3</title>
<polygon fill="white" stroke="transparent" points="-4,4 -4,-237.22 717.5,-237.22 717.5,4 -4,4"/>
<!-- p1 -->
<g id="node1" class="node">
<title>p1</title>
<ellipse fill="none" stroke="black" stroke-dasharray="1,5" cx="101.12" cy="-116.61" rx="101.23" ry="26.74"/>
<text text-anchor="middle" x="101.12" y="-120.41" font-family="sans-serif" font-size="14.00">Part 1 &#45; SQL</text>
<text text-anchor="middle" x="101.12" y="-105.41" font-family="sans-serif" font-size="14.00">Chapters 1.1 &#45; 1.7</text>
</g>
<!-- c3 -->
<g id="node4" class="node">
<title>c3</title>
<ellipse fill="none" stroke="black" cx="101.12" cy="-26.87" rx="79.39" ry="26.74"/>
<text text-anchor="middle" x="101.12" y="-30.67" font-family="sans-serif" font-size="14.00">Chapter 3.3</text>
<text text-anchor="middle" x="101.12" y="-15.67" font-family="sans-serif" font-size="14.00">Normalization</text>
</g>
<!-- p1&#45;&gt;c3 -->
<g id="edge4" class="edge">
<title>p1&#45;&gt;c3</title>
<path fill="none" stroke="black" stroke-dasharray="1,5" d="M101.12,-89.29C101.12,-81.32 101.12,-72.43 101.12,-63.94"/>
<polygon fill="black" stroke="black" points="104.62,-63.87 101.12,-53.87 97.62,-63.87 104.62,-63.87"/>
</g>
<!-- c1 -->
<g id="node2" class="node">
<title>c1</title>
<ellipse fill="none" stroke="black" cx="388.12" cy="-206.35" rx="191.75" ry="26.74"/>
<text text-anchor="middle" x="388.12" y="-210.15" font-family="sans-serif" font-size="14.00">Chapter 3.1</text>
<text text-anchor="middle" x="388.12" y="-195.15" font-family="sans-serif" font-size="14.00">The relational model of the database</text>
</g>
<!-- c2 -->
<g id="node3" class="node">
<title>c2</title>
<ellipse fill="none" stroke="black" cx="388.12" cy="-116.61" rx="99.9" ry="26.74"/>
<text text-anchor="middle" x="388.12" y="-120.41" font-family="sans-serif" font-size="14.00">Chapter 3.2</text>
<text text-anchor="middle" x="388.12" y="-105.41" font-family="sans-serif" font-size="14.00">Relational algebra</text>
</g>
<!-- c1&#45;&gt;c2 -->
<g id="edge1" class="edge">
<title>c1&#45;&gt;c2</title>
<path fill="none" stroke="black" d="M388.12,-179.03C388.12,-171.06 388.12,-162.17 388.12,-153.68"/>
<polygon fill="black" stroke="black" points="391.62,-153.61 388.12,-143.61 384.62,-153.61 391.62,-153.61"/>
</g>
<!-- c2&#45;&gt;c3 -->
<g id="edge3" class="edge">
<title>c2&#45;&gt;c3</title>
<path fill="none" stroke="black" d="M323.71,-95.92C277.42,-81.77 215.17,-62.74 168.26,-48.4"/>
<polygon fill="black" stroke="black" points="169.09,-44.99 158.5,-45.41 167.04,-51.68 169.09,-44.99"/>
</g>
<!-- c4 -->
<g id="node5" class="node">
<title>c4</title>
<ellipse fill="none" stroke="black" cx="456.12" cy="-26.87" rx="257.27" ry="26.74"/>
<text text-anchor="middle" x="456.12" y="-30.67" font-family="sans-serif" font-size="14.00">Chapter 3.4</text>
<text text-anchor="middle" x="456.12" y="-15.67" font-family="sans-serif" font-size="14.00">Differences between SQL and the relational model</text>
</g>
<!-- c2&#45;&gt;c4 -->
<g id="edge2" class="edge">
<title>c2&#45;&gt;c4</title>
<path fill="none" stroke="black" d="M407.78,-90.23C414.64,-81.39 422.45,-71.31 429.76,-61.88"/>
<polygon fill="black" stroke="black" points="432.66,-63.85 436.02,-53.8 427.13,-59.56 432.66,-63.85"/>
</g>
</g>
</svg>
